<?xml version="1.0" encoding="UTF-8" standalone="no"?>
<!DOCTYPE svg PUBLIC "-//W3C//DTD SVG 1.1//EN" "http://www.w3.org/Graphics/SVG/1.1/DTD/svg11.dtd">
<svg width="100%" height="100%" viewBox="0 0 45 15" version="1.1" xmlns="http://www.w3.org/2000/svg" xmlns:xlink="http://www.w3.org/1999/xlink" xml:space="preserve" xmlns:serif="http://www.serif.com/" style="fill-rule:evenodd;clip-rule:evenodd;stroke-linejoin:round;stroke-miterlimit:2;">
    <g transform="matrix(1,0,0,1,-652,-181)">
        <g transform="matrix(1.13981,0,0,0.894792,0,0)">
            <g id="envcp_parammod" transform="matrix(2.44853,0,0,1.85068,-6179.34,-3238.83)">
                <g transform="matrix(0.303186,0,0,0.553553,2406.33,658.823)">
                    <path d="M1173,2183L1160,2171L1160,2178L1173,2178L1173,2183Z" style="fill:rgb(81,81,81);fill-opacity:0.97;"/>
                </g>
                <g transform="matrix(0.303186,0,0,0.553553,2411.71,658.823)">
                    <path d="M1173,2183L1160,2171L1160,2178L1173,2178L1173,2183Z" style="fill:rgb(116,115,105);fill-opacity:0.97;"/>
                </g>
                <g transform="matrix(0.303186,0,0,0.553553,2417.08,658.823)">
                    <path d="M1173,2183L1160,2171L1160,2178L1173,2178L1173,2183Z" style="fill:rgb(81,81,81);fill-opacity:0.97;"/>
                </g>
            </g>
        </g>
    </g>
</svg>
