<?xml version="1.0" encoding="UTF-8" standalone="no"?>
<!DOCTYPE svg PUBLIC "-//W3C//DTD SVG 1.1//EN" "http://www.w3.org/Graphics/SVG/1.1/DTD/svg11.dtd">
<svg width="100%" height="100%" viewBox="0 0 8 8" version="1.1" xmlns="http://www.w3.org/2000/svg" xmlns:xlink="http://www.w3.org/1999/xlink" xml:space="preserve" xmlns:serif="http://www.serif.com/" style="fill-rule:evenodd;clip-rule:evenodd;stroke-linejoin:round;stroke-miterlimit:2;">
    <g transform="matrix(1,0,0,1,-650,-33)">
        <g transform="matrix(1.13981,0,0,0.894792,0,0)">
            <g id="envcp_bg" transform="matrix(2.44853,0,0,1.85068,-6211.81,-2942.67)">
                <g id="body" transform="matrix(0.0290522,0,0,0.190698,2586.83,1342.46)">
                    <rect x="6312" y="1406" width="74" height="19" style="fill:rgb(30,30,30);"/>
                </g>
                <g id="body1" serif:id="body" transform="matrix(0.0290522,0,0,0.0317829,2586.83,1568.91)">
                    <rect x="6312" y="1406" width="74" height="19" style="fill:rgb(9,9,9);fill-opacity:0.32;"/>
                </g>
                <g transform="matrix(0.179155,7.39534e-17,-3.81569e-18,0.0262555,2382.16,1570.7)">
                    <rect x="2178" y="1634" width="2" height="46" style="fill:rgb(255,0,255);"/>
                </g>
                <g transform="matrix(0.179155,3.69767e-17,-3.81569e-18,0.0131277,2379.65,1588.53)">
                    <rect x="2178" y="1634" width="2" height="46" style="fill:rgb(255,0,255);"/>
                </g>
            </g>
        </g>
    </g>
</svg>
