<?xml version="1.0" encoding="UTF-8" standalone="no"?>
<!DOCTYPE svg PUBLIC "-//W3C//DTD SVG 1.1//EN" "http://www.w3.org/Graphics/SVG/1.1/DTD/svg11.dtd">
<svg width="100%" height="100%" viewBox="0 0 45 15" version="1.1" xmlns="http://www.w3.org/2000/svg" xmlns:xlink="http://www.w3.org/1999/xlink" xml:space="preserve" xmlns:serif="http://www.serif.com/" style="fill-rule:evenodd;clip-rule:evenodd;stroke-linejoin:round;stroke-miterlimit:2;">
    <g transform="matrix(1,0,0,1,-652,-135)">
        <g transform="matrix(1.13981,0,0,0.894792,0,0)">
            <g id="envcp_learn" transform="matrix(2.44853,0,0,1.85068,-6179.34,-3215.36)">
                <g transform="matrix(0.358311,0,0,0.603876,2405.09,508.475)">
                    <path d="M991.6,2172.11C994.109,2172.62 996,2174.84 996,2177.5C996,2180.54 993.536,2183 990.5,2183C987.464,2183 985,2180.54 985,2177.5C985,2174.84 986.891,2172.62 989.4,2172.11L989.4,2173.64L991.6,2173.64L991.6,2172.11ZM990.5,2179.95C991.107,2179.95 991.6,2180.44 991.6,2181.05C991.6,2181.65 991.107,2182.15 990.5,2182.15C989.893,2182.15 989.4,2181.65 989.4,2181.05C989.4,2180.44 989.893,2179.95 990.5,2179.95ZM988.77,2179.23C989.2,2179.66 989.2,2180.36 988.77,2180.78C988.341,2181.21 987.644,2181.21 987.215,2180.78C986.786,2180.36 986.786,2179.66 987.215,2179.23C987.644,2178.8 988.341,2178.8 988.77,2179.23ZM992.23,2179.23C992.659,2178.8 993.356,2178.8 993.785,2179.23C994.214,2179.66 994.214,2180.36 993.785,2180.78C993.356,2181.21 992.659,2181.21 992.23,2180.78C991.8,2180.36 991.8,2179.66 992.23,2179.23ZM988.054,2177.5C988.054,2178.11 987.561,2178.6 986.954,2178.6C986.347,2178.6 985.854,2178.11 985.854,2177.5C985.854,2176.89 986.347,2176.4 986.954,2176.4C987.561,2176.4 988.054,2176.89 988.054,2177.5ZM992.946,2177.5C992.946,2176.89 993.439,2176.4 994.046,2176.4C994.653,2176.4 995.146,2176.89 995.146,2177.5C995.146,2178.11 994.653,2178.6 994.046,2178.6C993.439,2178.6 992.946,2178.11 992.946,2177.5Z" style="fill:rgb(81,81,81);"/>
                </g>
                <g transform="matrix(0.358311,0,0,0.603876,2410.47,508.475)">
                    <path d="M991.6,2172.11C994.109,2172.62 996,2174.84 996,2177.5C996,2180.54 993.536,2183 990.5,2183C987.464,2183 985,2180.54 985,2177.5C985,2174.84 986.891,2172.62 989.4,2172.11L989.4,2173.64L991.6,2173.64L991.6,2172.11ZM990.5,2179.95C991.107,2179.95 991.6,2180.44 991.6,2181.05C991.6,2181.65 991.107,2182.15 990.5,2182.15C989.893,2182.15 989.4,2181.65 989.4,2181.05C989.4,2180.44 989.893,2179.95 990.5,2179.95ZM988.77,2179.23C989.2,2179.66 989.2,2180.36 988.77,2180.78C988.341,2181.21 987.644,2181.21 987.215,2180.78C986.786,2180.36 986.786,2179.66 987.215,2179.23C987.644,2178.8 988.341,2178.8 988.77,2179.23ZM992.23,2179.23C992.659,2178.8 993.356,2178.8 993.785,2179.23C994.214,2179.66 994.214,2180.36 993.785,2180.78C993.356,2181.21 992.659,2181.21 992.23,2180.78C991.8,2180.36 991.8,2179.66 992.23,2179.23ZM988.054,2177.5C988.054,2178.11 987.561,2178.6 986.954,2178.6C986.347,2178.6 985.854,2178.11 985.854,2177.5C985.854,2176.89 986.347,2176.4 986.954,2176.4C987.561,2176.4 988.054,2176.89 988.054,2177.5ZM992.946,2177.5C992.946,2176.89 993.439,2176.4 994.046,2176.4C994.653,2176.4 995.146,2176.89 995.146,2177.5C995.146,2178.11 994.653,2178.6 994.046,2178.6C993.439,2178.6 992.946,2178.11 992.946,2177.5Z" style="fill:rgb(116,115,105);"/>
                </g>
                <g transform="matrix(0.358311,0,0,0.603876,2415.84,508.475)">
                    <path d="M991.6,2172.11C994.109,2172.62 996,2174.84 996,2177.5C996,2180.54 993.536,2183 990.5,2183C987.464,2183 985,2180.54 985,2177.5C985,2174.84 986.891,2172.62 989.4,2172.11L989.4,2173.64L991.6,2173.64L991.6,2172.11ZM990.5,2179.95C991.107,2179.95 991.6,2180.44 991.6,2181.05C991.6,2181.65 991.107,2182.15 990.5,2182.15C989.893,2182.15 989.4,2181.65 989.4,2181.05C989.4,2180.44 989.893,2179.95 990.5,2179.95ZM988.77,2179.23C989.2,2179.66 989.2,2180.36 988.77,2180.78C988.341,2181.21 987.644,2181.21 987.215,2180.78C986.786,2180.36 986.786,2179.66 987.215,2179.23C987.644,2178.8 988.341,2178.8 988.77,2179.23ZM992.23,2179.23C992.659,2178.8 993.356,2178.8 993.785,2179.23C994.214,2179.66 994.214,2180.36 993.785,2180.78C993.356,2181.21 992.659,2181.21 992.23,2180.78C991.8,2180.36 991.8,2179.66 992.23,2179.23ZM988.054,2177.5C988.054,2178.11 987.561,2178.6 986.954,2178.6C986.347,2178.6 985.854,2178.11 985.854,2177.5C985.854,2176.89 986.347,2176.4 986.954,2176.4C987.561,2176.4 988.054,2176.89 988.054,2177.5ZM992.946,2177.5C992.946,2176.89 993.439,2176.4 994.046,2176.4C994.653,2176.4 995.146,2176.89 995.146,2177.5C995.146,2178.11 994.653,2178.6 994.046,2178.6C993.439,2178.6 992.946,2178.11 992.946,2177.5Z" style="fill:rgb(81,81,81);"/>
                </g>
            </g>
        </g>
    </g>
</svg>
