<?xml version="1.0" encoding="UTF-8" standalone="no"?>
<!DOCTYPE svg PUBLIC "-//W3C//DTD SVG 1.1//EN" "http://www.w3.org/Graphics/SVG/1.1/DTD/svg11.dtd">
<svg width="100%" height="100%" viewBox="0 0 72 24" version="1.1" xmlns="http://www.w3.org/2000/svg" xmlns:xlink="http://www.w3.org/1999/xlink" xml:space="preserve" xmlns:serif="http://www.serif.com/" style="fill-rule:evenodd;clip-rule:evenodd;stroke-linejoin:round;stroke-miterlimit:2;">
    <g transform="matrix(1,0,0,1,-42,-1656)">
        <g transform="matrix(1.13981,0,0,0.894792,0,0)">
            <g id="gen_repeat_on" transform="matrix(0.996,0,0,0.76849,19.6204,972.903)">
                <rect x="17.297" y="1142.25" width="63.422" height="34.902" style="fill:none;"/>
                <g transform="matrix(0.0450439,0,0,0.0743652,22.2216,1150.18)">
                    <path d="M240,56L240,104C240,108.389 236.389,112 232,112L184,112C183.998,112 183.996,112 183.994,112C179.605,112 175.994,108.389 175.994,104C175.994,101.878 176.838,99.84 178.34,98.34L195.34,81.34L184.79,71.69L184.54,71.45C169.544,56.459 149.186,48.029 127.982,48.029C84.095,48.029 47.982,84.143 47.982,128.029C47.982,171.916 84.095,208.029 127.982,208.029C148.382,208.029 168.029,200.226 182.87,186.23C184.356,184.825 186.325,184.041 188.37,184.041C192.761,184.041 196.374,187.654 196.374,192.045C196.374,194.244 195.468,196.349 193.87,197.86C176.088,214.699 152.49,224.063 128,224L126.68,224C74.517,223.286 31.995,180.177 31.995,128.009C31.995,75.345 75.331,32.009 127.995,32.009C153.384,32.009 177.764,42.081 195.75,60L206.68,70L226.34,50.3C227.84,48.798 229.878,47.954 232,47.954C236.389,47.954 240,51.565 240,55.954C240,55.969 240,55.985 240,56Z" style="fill:rgb(102,153,204);fill-rule:nonzero;"/>
                </g>
                <g transform="matrix(0.0450439,0,0,0.0743652,43.3623,1150.18)">
                    <path d="M240,56L240,104C240,108.389 236.389,112 232,112L184,112C183.998,112 183.996,112 183.994,112C179.605,112 175.994,108.389 175.994,104C175.994,101.878 176.838,99.84 178.34,98.34L195.34,81.34L184.79,71.69L184.54,71.45C169.544,56.459 149.186,48.029 127.982,48.029C84.095,48.029 47.982,84.143 47.982,128.029C47.982,171.916 84.095,208.029 127.982,208.029C148.382,208.029 168.029,200.226 182.87,186.23C184.356,184.825 186.325,184.041 188.37,184.041C192.761,184.041 196.374,187.654 196.374,192.045C196.374,194.244 195.468,196.349 193.87,197.86C176.088,214.699 152.49,224.063 128,224L126.68,224C74.517,223.286 31.995,180.177 31.995,128.009C31.995,75.345 75.331,32.009 127.995,32.009C153.384,32.009 177.764,42.081 195.75,60L206.68,70L226.34,50.3C227.84,48.798 229.878,47.954 232,47.954C236.389,47.954 240,51.565 240,55.954C240,55.969 240,55.985 240,56Z" style="fill:rgb(102,153,204);fill-rule:nonzero;"/>
                </g>
                <g transform="matrix(0.0450439,0,0,0.0743652,64.5029,1150.18)">
                    <path d="M240,56L240,104C240,108.389 236.389,112 232,112L184,112C183.998,112 183.996,112 183.994,112C179.605,112 175.994,108.389 175.994,104C175.994,101.878 176.838,99.84 178.34,98.34L195.34,81.34L184.79,71.69L184.54,71.45C169.544,56.459 149.186,48.029 127.982,48.029C84.095,48.029 47.982,84.143 47.982,128.029C47.982,171.916 84.095,208.029 127.982,208.029C148.382,208.029 168.029,200.226 182.87,186.23C184.356,184.825 186.325,184.041 188.37,184.041C192.761,184.041 196.374,187.654 196.374,192.045C196.374,194.244 195.468,196.349 193.87,197.86C176.088,214.699 152.49,224.063 128,224L126.68,224C74.517,223.286 31.995,180.177 31.995,128.009C31.995,75.345 75.331,32.009 127.995,32.009C153.384,32.009 177.764,42.081 195.75,60L206.68,70L226.34,50.3C227.84,48.798 229.878,47.954 232,47.954C236.389,47.954 240,51.565 240,55.954C240,55.969 240,55.985 240,56Z" style="fill:rgb(57,57,57);fill-rule:nonzero;"/>
                </g>
            </g>
        </g>
    </g>
</svg>
