<?xml version="1.0" encoding="UTF-8" standalone="no"?>
<!DOCTYPE svg PUBLIC "-//W3C//DTD SVG 1.1//EN" "http://www.w3.org/Graphics/SVG/1.1/DTD/svg11.dtd">
<svg width="100%" height="100%" viewBox="0 0 60 20" version="1.1" xmlns="http://www.w3.org/2000/svg" xmlns:xlink="http://www.w3.org/1999/xlink" xml:space="preserve" xmlns:serif="http://www.serif.com/" style="fill-rule:evenodd;clip-rule:evenodd;stroke-linejoin:round;stroke-miterlimit:2;">
    <g transform="matrix(1,0,0,1,-970,-822)">
        <g transform="matrix(1.13981,0,0,0.894792,0,0)">
            <g id="gen_midi_on" transform="matrix(0.913,0,0,0.704449,646.596,833.714)">
                <g transform="matrix(0.960938,0,0,1.58646,-641.906,-947.115)">
                    <rect x="903" y="675" width="16" height="16" style="fill:rgb(153,204,153);"/>
                </g>
                <g transform="matrix(0.960938,0,0,1.58646,-622.688,-947.115)">
                    <rect x="903" y="675" width="16" height="16" style="fill:rgb(153,204,153);"/>
                </g>
                <g transform="matrix(0.960938,0,0,1.58646,-603.469,-947.115)">
                    <rect x="903" y="675" width="16" height="16" style="fill:rgb(153,204,153);"/>
                </g>
                <g id="button-off-a" serif:id="button off a" transform="matrix(1,0,0,1,0,30.1427)">
                    <g transform="matrix(0.960938,0,0,1.58646,-641.906,-945.528)">
                        <rect x="903" y="655" width="16" height="1" style="fill:rgb(242,240,236);fill-opacity:0.19;"/>
                    </g>
                    <g transform="matrix(0.900879,0,0,1.58646,-586.712,-921.732)">
                        <rect x="903" y="655" width="16" height="1" style="fill:rgb(9,9,9);fill-opacity:0.15;"/>
                    </g>
                    <g transform="matrix(0.0600586,0,0,23.7969,171.587,-15491.8)">
                        <rect x="903" y="655" width="16" height="1" style="fill:rgb(242,240,236);fill-opacity:0.06;"/>
                    </g>
                    <g transform="matrix(1.23549,0,0,2.03973,-87.7199,-26.2899)">
                        <path d="M267,59.556L267,70.444C267,71.303 266.303,72 265.444,72L254.556,72C253.697,72 253,71.303 253,70.444L253,59.556C253,58.697 253.697,58 254.556,58L265.444,58C266.303,58 267,58.697 267,59.556ZM266.222,59.556C266.222,59.126 265.874,58.778 265.444,58.778L254.556,58.778C254.126,58.778 253.778,59.126 253.778,59.556L253.778,70.444C253.778,70.874 254.126,71.222 254.556,71.222L265.444,71.222C265.874,71.222 266.222,70.874 266.222,70.444L266.222,59.556Z" style="fill:rgb(9,9,9);"/>
                    </g>
                </g>
                <g id="button-off-b" serif:id="button off b" transform="matrix(1,0,0,1,19.2188,30.1427)">
                    <g transform="matrix(0.960938,0,0,25.3833,-641.906,-16532.5)">
                        <rect x="903" y="655" width="16" height="1" style="fill:rgb(242,240,236);fill-opacity:0.06;"/>
                    </g>
                    <g id="button-off-a1" serif:id="button off a">
                        <g transform="matrix(0.960938,0,0,1.58646,-641.906,-945.528)">
                            <rect x="903" y="655" width="16" height="1" style="fill:rgb(242,240,236);fill-opacity:0.19;"/>
                        </g>
                        <g transform="matrix(0.900879,0,0,1.58646,-586.712,-921.732)">
                            <rect x="903" y="655" width="16" height="1" style="fill:rgb(9,9,9);fill-opacity:0.15;"/>
                        </g>
                        <g transform="matrix(0.0600586,0,0,23.7969,171.587,-15491.8)">
                            <rect x="903" y="655" width="16" height="1" style="fill:rgb(242,240,236);fill-opacity:0.06;"/>
                        </g>
                        <g transform="matrix(1.23549,0,0,2.03973,-87.7199,-26.2899)">
                            <path d="M267,59.556L267,70.444C267,71.303 266.303,72 265.444,72L254.556,72C253.697,72 253,71.303 253,70.444L253,59.556C253,58.697 253.697,58 254.556,58L265.444,58C266.303,58 267,58.697 267,59.556ZM266.222,59.556C266.222,59.126 265.874,58.778 265.444,58.778L254.556,58.778C254.126,58.778 253.778,59.126 253.778,59.556L253.778,70.444C253.778,70.874 254.126,71.222 254.556,71.222L265.444,71.222C265.874,71.222 266.222,70.874 266.222,70.444L266.222,59.556Z" style="fill:rgb(9,9,9);"/>
                        </g>
                    </g>
                </g>
                <g id="button-off-c" serif:id="button off c" transform="matrix(1,0,0,1,38.4375,30.1427)">
                    <g transform="matrix(0.960938,0,0,25.3833,-641.906,-16532.5)">
                        <rect x="903" y="655" width="16" height="1" style="fill:rgb(9,9,9);fill-opacity:0.15;"/>
                    </g>
                    <g transform="matrix(0.960938,0,0,1.58646,-641.906,-945.528)">
                        <rect x="903" y="655" width="16" height="1" style="fill:rgb(9,9,9);fill-opacity:0.33;"/>
                    </g>
                    <g transform="matrix(0.900879,0,0,1.58646,-586.712,-921.732)">
                        <rect x="903" y="655" width="16" height="1" style="fill:rgb(9,9,9);fill-opacity:0.33;"/>
                    </g>
                    <g transform="matrix(0.0600586,0,0,23.7969,171.587,-15491.8)">
                        <rect x="903" y="655" width="16" height="1" style="fill:rgb(9,9,9);fill-opacity:0.33;"/>
                    </g>
                    <g transform="matrix(1.23549,0,0,2.03973,-87.7199,-26.2899)">
                        <path d="M267,59.556L267,70.444C267,71.303 266.303,72 265.444,72L254.556,72C253.697,72 253,71.303 253,70.444L253,59.556C253,58.697 253.697,58 254.556,58L265.444,58C266.303,58 267,58.697 267,59.556ZM266.222,59.556C266.222,59.126 265.874,58.778 265.444,58.778L254.556,58.778C254.126,58.778 253.778,59.126 253.778,59.556L253.778,70.444C253.778,70.874 254.126,71.222 254.556,71.222L265.444,71.222C265.874,71.222 266.222,70.874 266.222,70.444L266.222,59.556Z" style="fill:rgb(9,9,9);"/>
                    </g>
                </g>
                <g transform="matrix(1.0483,0,0,1.73068,-804.829,-3632.14)">
                    <path d="M991.6,2172.11C994.109,2172.62 996,2174.84 996,2177.5C996,2180.54 993.536,2183 990.5,2183C987.464,2183 985,2180.54 985,2177.5C985,2174.84 986.891,2172.62 989.4,2172.11L989.4,2173.64L991.6,2173.64L991.6,2172.11ZM990.5,2179.95C991.107,2179.95 991.6,2180.44 991.6,2181.05C991.6,2181.65 991.107,2182.15 990.5,2182.15C989.893,2182.15 989.4,2181.65 989.4,2181.05C989.4,2180.44 989.893,2179.95 990.5,2179.95ZM988.77,2179.23C989.2,2179.66 989.2,2180.36 988.77,2180.78C988.341,2181.21 987.644,2181.21 987.215,2180.78C986.786,2180.36 986.786,2179.66 987.215,2179.23C987.644,2178.8 988.341,2178.8 988.77,2179.23ZM992.23,2179.23C992.659,2178.8 993.356,2178.8 993.785,2179.23C994.214,2179.66 994.214,2180.36 993.785,2180.78C993.356,2181.21 992.659,2181.21 992.23,2180.78C991.8,2180.36 991.8,2179.66 992.23,2179.23ZM988.054,2177.5C988.054,2178.11 987.561,2178.6 986.954,2178.6C986.347,2178.6 985.854,2178.11 985.854,2177.5C985.854,2176.89 986.347,2176.4 986.954,2176.4C987.561,2176.4 988.054,2176.89 988.054,2177.5ZM992.946,2177.5C992.946,2176.89 993.439,2176.4 994.046,2176.4C994.653,2176.4 995.146,2176.89 995.146,2177.5C995.146,2178.11 994.653,2178.6 994.046,2178.6C993.439,2178.6 992.946,2178.11 992.946,2177.5Z" style="fill:rgb(57,57,57);"/>
                </g>
                <g transform="matrix(1.0483,0,0,1.73068,-785.61,-3632.14)">
                    <path d="M991.6,2172.11C994.109,2172.62 996,2174.84 996,2177.5C996,2180.54 993.536,2183 990.5,2183C987.464,2183 985,2180.54 985,2177.5C985,2174.84 986.891,2172.62 989.4,2172.11L989.4,2173.64L991.6,2173.64L991.6,2172.11ZM990.5,2179.95C991.107,2179.95 991.6,2180.44 991.6,2181.05C991.6,2181.65 991.107,2182.15 990.5,2182.15C989.893,2182.15 989.4,2181.65 989.4,2181.05C989.4,2180.44 989.893,2179.95 990.5,2179.95ZM988.77,2179.23C989.2,2179.66 989.2,2180.36 988.77,2180.78C988.341,2181.21 987.644,2181.21 987.215,2180.78C986.786,2180.36 986.786,2179.66 987.215,2179.23C987.644,2178.8 988.341,2178.8 988.77,2179.23ZM992.23,2179.23C992.659,2178.8 993.356,2178.8 993.785,2179.23C994.214,2179.66 994.214,2180.36 993.785,2180.78C993.356,2181.21 992.659,2181.21 992.23,2180.78C991.8,2180.36 991.8,2179.66 992.23,2179.23ZM988.054,2177.5C988.054,2178.11 987.561,2178.6 986.954,2178.6C986.347,2178.6 985.854,2178.11 985.854,2177.5C985.854,2176.89 986.347,2176.4 986.954,2176.4C987.561,2176.4 988.054,2176.89 988.054,2177.5ZM992.946,2177.5C992.946,2176.89 993.439,2176.4 994.046,2176.4C994.653,2176.4 995.146,2176.89 995.146,2177.5C995.146,2178.11 994.653,2178.6 994.046,2178.6C993.439,2178.6 992.946,2178.11 992.946,2177.5Z" style="fill:rgb(57,57,57);"/>
                </g>
                <g transform="matrix(1.0483,0,0,1.73068,-766.391,-3632.14)">
                    <path d="M991.6,2172.11C994.109,2172.62 996,2174.84 996,2177.5C996,2180.54 993.536,2183 990.5,2183C987.464,2183 985,2180.54 985,2177.5C985,2174.84 986.891,2172.62 989.4,2172.11L989.4,2173.64L991.6,2173.64L991.6,2172.11ZM990.5,2179.95C991.107,2179.95 991.6,2180.44 991.6,2181.05C991.6,2181.65 991.107,2182.15 990.5,2182.15C989.893,2182.15 989.4,2181.65 989.4,2181.05C989.4,2180.44 989.893,2179.95 990.5,2179.95ZM988.77,2179.23C989.2,2179.66 989.2,2180.36 988.77,2180.78C988.341,2181.21 987.644,2181.21 987.215,2180.78C986.786,2180.36 986.786,2179.66 987.215,2179.23C987.644,2178.8 988.341,2178.8 988.77,2179.23ZM992.23,2179.23C992.659,2178.8 993.356,2178.8 993.785,2179.23C994.214,2179.66 994.214,2180.36 993.785,2180.78C993.356,2181.21 992.659,2181.21 992.23,2180.78C991.8,2180.36 991.8,2179.66 992.23,2179.23ZM988.054,2177.5C988.054,2178.11 987.561,2178.6 986.954,2178.6C986.347,2178.6 985.854,2178.11 985.854,2177.5C985.854,2176.89 986.347,2176.4 986.954,2176.4C987.561,2176.4 988.054,2176.89 988.054,2177.5ZM992.946,2177.5C992.946,2176.89 993.439,2176.4 994.046,2176.4C994.653,2176.4 995.146,2176.89 995.146,2177.5C995.146,2178.11 994.653,2178.6 994.046,2178.6C993.439,2178.6 992.946,2178.11 992.946,2177.5Z" style="fill:rgb(57,57,57);"/>
                </g>
            </g>
        </g>
    </g>
</svg>
