<?xml version="1.0" encoding="UTF-8" standalone="no"?>
<!DOCTYPE svg PUBLIC "-//W3C//DTD SVG 1.1//EN" "http://www.w3.org/Graphics/SVG/1.1/DTD/svg11.dtd">
<svg width="100%" height="100%" viewBox="0 0 72 24" version="1.1" xmlns="http://www.w3.org/2000/svg" xmlns:xlink="http://www.w3.org/1999/xlink" xml:space="preserve" xmlns:serif="http://www.serif.com/" style="fill-rule:evenodd;clip-rule:evenodd;stroke-linejoin:round;stroke-miterlimit:2;">
    <g transform="matrix(1,0,0,1,-42,-1464)">
        <g transform="matrix(1.13981,0,0,0.894792,0,0)">
            <g id="gen_home" transform="matrix(0.996,0,0,0.76849,-31.1055,1602)">
                <rect x="68.227" y="44.421" width="63.422" height="34.902" style="fill:none;"/>
                <g transform="matrix(0.0450439,0,0,0.0743652,72.9111,52.353)">
                    <path d="M232,71.84L232,184.16C231.955,192.862 224.782,199.997 216.08,199.997C213.047,199.997 210.077,199.131 207.52,197.5L128,146.86L128,184.16C127.955,192.862 120.782,199.997 112.08,199.997C109.047,199.997 106.077,199.131 103.52,197.5L15.33,141.34C10.768,138.445 7.997,133.403 7.997,128C7.997,122.597 10.768,117.555 15.33,114.66L103.52,58.5C106.079,56.864 109.053,55.995 112.09,55.995C120.794,55.995 127.965,63.136 128,71.84L128,109.14L207.52,58.5C210.079,56.864 213.053,55.995 216.09,55.995C224.794,55.995 231.965,63.136 232,71.84Z" style="fill:rgb(81,81,81);fill-rule:nonzero;"/>
                </g>
                <g transform="matrix(0.0450439,0,0,0.0743652,94.0517,52.353)">
                    <path d="M232,71.84L232,184.16C231.955,192.862 224.782,199.997 216.08,199.997C213.047,199.997 210.077,199.131 207.52,197.5L128,146.86L128,184.16C127.955,192.862 120.782,199.997 112.08,199.997C109.047,199.997 106.077,199.131 103.52,197.5L15.33,141.34C10.768,138.445 7.997,133.403 7.997,128C7.997,122.597 10.768,117.555 15.33,114.66L103.52,58.5C106.079,56.864 109.053,55.995 112.09,55.995C120.794,55.995 127.965,63.136 128,71.84L128,109.14L207.52,58.5C210.079,56.864 213.053,55.995 216.09,55.995C224.794,55.995 231.965,63.136 232,71.84Z" style="fill:rgb(116,115,105);fill-rule:nonzero;"/>
                </g>
                <g transform="matrix(0.0450439,0,0,0.0743652,115.192,52.353)">
                    <path d="M232,71.84L232,184.16C231.955,192.862 224.782,199.997 216.08,199.997C213.047,199.997 210.077,199.131 207.52,197.5L128,146.86L128,184.16C127.955,192.862 120.782,199.997 112.08,199.997C109.047,199.997 106.077,199.131 103.52,197.5L15.33,141.34C10.768,138.445 7.997,133.403 7.997,128C7.997,122.597 10.768,117.555 15.33,114.66L103.52,58.5C106.079,56.864 109.053,55.995 112.09,55.995C120.794,55.995 127.965,63.136 128,71.84L128,109.14L207.52,58.5C210.079,56.864 213.053,55.995 216.09,55.995C224.794,55.995 231.965,63.136 232,71.84Z" style="fill:rgb(57,57,57);fill-rule:nonzero;"/>
                </g>
            </g>
        </g>
    </g>
</svg>
