<?xml version="1.0" encoding="UTF-8" standalone="no"?>
<!DOCTYPE svg PUBLIC "-//W3C//DTD SVG 1.1//EN" "http://www.w3.org/Graphics/SVG/1.1/DTD/svg11.dtd">
<svg width="100%" height="100%" viewBox="0 0 72 24" version="1.1" xmlns="http://www.w3.org/2000/svg" xmlns:xlink="http://www.w3.org/1999/xlink" xml:space="preserve" xmlns:serif="http://www.serif.com/" style="fill-rule:evenodd;clip-rule:evenodd;stroke-linejoin:round;stroke-miterlimit:2;">
    <g transform="matrix(1,0,0,1,-42,-1560)">
        <g transform="matrix(1.13981,0,0,0.894792,0,0)">
            <g id="gen_pause" transform="matrix(0.996,0,0,0.76849,19.6204,977.78)">
                <rect x="17.297" y="996.295" width="63.422" height="34.902" style="fill:none;"/>
                <g transform="matrix(0.0450439,0,0,0.0743652,22.1016,1004.23)">
                    <path d="M216,48L216,208C216,216.777 208.777,224 200,224L160,224C151.223,224 144,216.777 144,208L144,48C144,39.223 151.223,32 160,32L200,32C208.777,32 216,39.223 216,48ZM96,32L56,32C47.223,32 40,39.223 40,48L40,208C40,216.777 47.223,224 56,224L96,224C104.777,224 112,216.777 112,208L112,48C112,39.223 104.777,32 96,32Z" style="fill:rgb(81,81,81);fill-rule:nonzero;"/>
                </g>
                <g transform="matrix(0.0450439,0,0,0.0743652,43.2422,1004.23)">
                    <path d="M216,48L216,208C216,216.777 208.777,224 200,224L160,224C151.223,224 144,216.777 144,208L144,48C144,39.223 151.223,32 160,32L200,32C208.777,32 216,39.223 216,48ZM96,32L56,32C47.223,32 40,39.223 40,48L40,208C40,216.777 47.223,224 56,224L96,224C104.777,224 112,216.777 112,208L112,48C112,39.223 104.777,32 96,32Z" style="fill:rgb(116,115,105);fill-rule:nonzero;"/>
                </g>
                <g transform="matrix(0.0450439,0,0,0.0743652,64.3828,1004.23)">
                    <path d="M216,48L216,208C216,216.777 208.777,224 200,224L160,224C151.223,224 144,216.777 144,208L144,48C144,39.223 151.223,32 160,32L200,32C208.777,32 216,39.223 216,48ZM96,32L56,32C47.223,32 40,39.223 40,48L40,208C40,216.777 47.223,224 56,224L96,224C104.777,224 112,216.777 112,208L112,48C112,39.223 104.777,32 96,32Z" style="fill:rgb(57,57,57);fill-rule:nonzero;"/>
                </g>
            </g>
        </g>
    </g>
</svg>
