<?xml version="1.0" encoding="UTF-8" standalone="no"?>
<!DOCTYPE svg PUBLIC "-//W3C//DTD SVG 1.1//EN" "http://www.w3.org/Graphics/SVG/1.1/DTD/svg11.dtd">
<svg width="100%" height="100%" viewBox="0 0 60 20" version="1.1" xmlns="http://www.w3.org/2000/svg" xmlns:xlink="http://www.w3.org/1999/xlink" xml:space="preserve" xmlns:serif="http://www.serif.com/" style="fill-rule:evenodd;clip-rule:evenodd;stroke-linejoin:round;stroke-miterlimit:2;">
    <g transform="matrix(1,0,0,1,-970,-752)">
        <g transform="matrix(1.13981,0,0,0.894792,0,0)">
            <g id="gen_stereo" transform="matrix(0.913,0,0,0.704449,646.596,776.717)">
                <g transform="matrix(0.960938,0,0,1.58646,-641.906,-977.258)">
                    <rect x="903" y="675" width="16" height="16" style="fill:rgb(45,45,45);"/>
                </g>
                <g transform="matrix(0.960938,0,0,1.58646,-622.688,-977.258)">
                    <rect x="903" y="675" width="16" height="16" style="fill:rgb(45,45,45);"/>
                </g>
                <g transform="matrix(0.960938,0,0,1.58646,-603.469,-977.258)">
                    <rect x="903" y="675" width="16" height="16" style="fill:rgb(45,45,45);"/>
                </g>
                <g id="button-off-a" serif:id="button off a">
                    <g transform="matrix(0.960938,0,0,1.58646,-641.906,-945.528)">
                        <rect x="903" y="655" width="16" height="1" style="fill:rgb(242,240,236);fill-opacity:0.19;"/>
                    </g>
                    <g transform="matrix(0.900879,0,0,1.58646,-586.712,-921.732)">
                        <rect x="903" y="655" width="16" height="1" style="fill:rgb(9,9,9);fill-opacity:0.15;"/>
                    </g>
                    <g transform="matrix(0.0600586,0,0,23.7969,171.587,-15491.8)">
                        <rect x="903" y="655" width="16" height="1" style="fill:rgb(242,240,236);fill-opacity:0.06;"/>
                    </g>
                    <g transform="matrix(1.23549,0,0,2.03973,-87.7199,-26.2899)">
                        <path d="M267,59.556L267,70.444C267,71.303 266.303,72 265.444,72L254.556,72C253.697,72 253,71.303 253,70.444L253,59.556C253,58.697 253.697,58 254.556,58L265.444,58C266.303,58 267,58.697 267,59.556ZM266.222,59.556C266.222,59.126 265.874,58.778 265.444,58.778L254.556,58.778C254.126,58.778 253.778,59.126 253.778,59.556L253.778,70.444C253.778,70.874 254.126,71.222 254.556,71.222L265.444,71.222C265.874,71.222 266.222,70.874 266.222,70.444L266.222,59.556Z" style="fill:rgb(9,9,9);"/>
                    </g>
                </g>
                <g id="button-off-b" serif:id="button off b" transform="matrix(1,0,0,1,19.2188,5.68434e-13)">
                    <g transform="matrix(0.960938,0,0,25.3833,-641.906,-16532.5)">
                        <rect x="903" y="655" width="16" height="1" style="fill:rgb(242,240,236);fill-opacity:0.06;"/>
                    </g>
                    <g id="button-off-a1" serif:id="button off a">
                        <g transform="matrix(0.960938,0,0,1.58646,-641.906,-945.528)">
                            <rect x="903" y="655" width="16" height="1" style="fill:rgb(242,240,236);fill-opacity:0.19;"/>
                        </g>
                        <g transform="matrix(0.900879,0,0,1.58646,-586.712,-921.732)">
                            <rect x="903" y="655" width="16" height="1" style="fill:rgb(9,9,9);fill-opacity:0.15;"/>
                        </g>
                        <g transform="matrix(0.0600586,0,0,23.7969,171.587,-15491.8)">
                            <rect x="903" y="655" width="16" height="1" style="fill:rgb(242,240,236);fill-opacity:0.06;"/>
                        </g>
                        <g transform="matrix(1.23549,0,0,2.03973,-87.7199,-26.2899)">
                            <path d="M267,59.556L267,70.444C267,71.303 266.303,72 265.444,72L254.556,72C253.697,72 253,71.303 253,70.444L253,59.556C253,58.697 253.697,58 254.556,58L265.444,58C266.303,58 267,58.697 267,59.556ZM266.222,59.556C266.222,59.126 265.874,58.778 265.444,58.778L254.556,58.778C254.126,58.778 253.778,59.126 253.778,59.556L253.778,70.444C253.778,70.874 254.126,71.222 254.556,71.222L265.444,71.222C265.874,71.222 266.222,70.874 266.222,70.444L266.222,59.556Z" style="fill:rgb(9,9,9);"/>
                        </g>
                    </g>
                </g>
                <g id="button-off-c" serif:id="button off c" transform="matrix(1,0,0,1,38.4375,0)">
                    <g transform="matrix(0.960938,0,0,25.3833,-641.906,-16532.5)">
                        <rect x="903" y="655" width="16" height="1" style="fill:rgb(9,9,9);fill-opacity:0.15;"/>
                    </g>
                    <g transform="matrix(0.960938,0,0,1.58646,-641.906,-945.528)">
                        <rect x="903" y="655" width="16" height="1" style="fill:rgb(9,9,9);fill-opacity:0.33;"/>
                    </g>
                    <g transform="matrix(0.900879,0,0,1.58646,-586.712,-921.732)">
                        <rect x="903" y="655" width="16" height="1" style="fill:rgb(9,9,9);fill-opacity:0.33;"/>
                    </g>
                    <g transform="matrix(0.0600586,0,0,23.7969,171.587,-15491.8)">
                        <rect x="903" y="655" width="16" height="1" style="fill:rgb(9,9,9);fill-opacity:0.33;"/>
                    </g>
                    <g transform="matrix(1.23549,0,0,2.03973,-87.7199,-26.2899)">
                        <path d="M267,59.556L267,70.444C267,71.303 266.303,72 265.444,72L254.556,72C253.697,72 253,71.303 253,70.444L253,59.556C253,58.697 253.697,58 254.556,58L265.444,58C266.303,58 267,58.697 267,59.556ZM266.222,59.556C266.222,59.126 265.874,58.778 265.444,58.778L254.556,58.778C254.126,58.778 253.778,59.126 253.778,59.556L253.778,70.444C253.778,70.874 254.126,71.222 254.556,71.222L265.444,71.222C265.874,71.222 266.222,70.874 266.222,70.444L266.222,59.556Z" style="fill:rgb(9,9,9);"/>
                    </g>
                </g>
                <g transform="matrix(0.818182,0,0,0.818182,14.5451,-506.49)">
                    <g transform="matrix(0.698571,0,0,1.1533,-1115.25,350.915)">
                        <path d="M1976.82,340.317C1979.47,340.317 1981.63,342.475 1981.63,345.132C1981.63,347.789 1979.47,349.946 1976.82,349.946C1974.16,349.946 1972,347.789 1972,345.132C1972,342.475 1974.16,340.317 1976.82,340.317ZM1976.82,341.693C1974.92,341.693 1973.38,343.234 1973.38,345.132C1973.38,347.03 1974.92,348.571 1976.82,348.571C1978.71,348.571 1980.25,347.03 1980.25,345.132C1980.25,343.234 1978.71,341.693 1976.82,341.693Z" style="fill:rgb(211,208,200);"/>
                    </g>
                    <g transform="matrix(0.698571,0,0,1.1533,-1111.4,350.915)">
                        <path d="M1976.82,340.317C1979.47,340.317 1981.63,342.475 1981.63,345.132C1981.63,347.789 1979.47,349.946 1976.82,349.946C1974.16,349.946 1972,347.789 1972,345.132C1972,342.475 1974.16,340.317 1976.82,340.317ZM1976.82,341.693C1974.92,341.693 1973.38,343.234 1973.38,345.132C1973.38,347.03 1974.92,348.571 1976.82,348.571C1978.71,348.571 1980.25,347.03 1980.25,345.132C1980.25,343.234 1978.71,341.693 1976.82,341.693Z" style="fill:rgb(211,208,200);"/>
                    </g>
                </g>
                <g transform="matrix(0.818182,0,0,0.818182,33.7638,-506.49)">
                    <g transform="matrix(0.698571,0,0,1.1533,-1115.25,350.915)">
                        <path d="M1976.82,340.317C1979.47,340.317 1981.63,342.475 1981.63,345.132C1981.63,347.789 1979.47,349.946 1976.82,349.946C1974.16,349.946 1972,347.789 1972,345.132C1972,342.475 1974.16,340.317 1976.82,340.317ZM1976.82,341.693C1974.92,341.693 1973.38,343.234 1973.38,345.132C1973.38,347.03 1974.92,348.571 1976.82,348.571C1978.71,348.571 1980.25,347.03 1980.25,345.132C1980.25,343.234 1978.71,341.693 1976.82,341.693Z" style="fill:rgb(211,208,200);"/>
                    </g>
                    <g transform="matrix(0.698571,0,0,1.1533,-1111.4,350.915)">
                        <path d="M1976.82,340.317C1979.47,340.317 1981.63,342.475 1981.63,345.132C1981.63,347.789 1979.47,349.946 1976.82,349.946C1974.16,349.946 1972,347.789 1972,345.132C1972,342.475 1974.16,340.317 1976.82,340.317ZM1976.82,341.693C1974.92,341.693 1973.38,343.234 1973.38,345.132C1973.38,347.03 1974.92,348.571 1976.82,348.571C1978.71,348.571 1980.25,347.03 1980.25,345.132C1980.25,343.234 1978.71,341.693 1976.82,341.693Z" style="fill:rgb(211,208,200);"/>
                    </g>
                </g>
                <g transform="matrix(0.818182,0,0,0.818182,52.9826,-506.49)">
                    <g transform="matrix(0.698571,0,0,1.1533,-1115.25,350.915)">
                        <path d="M1976.82,340.317C1979.47,340.317 1981.63,342.475 1981.63,345.132C1981.63,347.789 1979.47,349.946 1976.82,349.946C1974.16,349.946 1972,347.789 1972,345.132C1972,342.475 1974.16,340.317 1976.82,340.317ZM1976.82,341.693C1974.92,341.693 1973.38,343.234 1973.38,345.132C1973.38,347.03 1974.92,348.571 1976.82,348.571C1978.71,348.571 1980.25,347.03 1980.25,345.132C1980.25,343.234 1978.71,341.693 1976.82,341.693Z" style="fill:rgb(116,115,105);"/>
                    </g>
                    <g transform="matrix(0.698571,0,0,1.1533,-1111.4,350.915)">
                        <path d="M1976.82,340.317C1979.47,340.317 1981.63,342.475 1981.63,345.132C1981.63,347.789 1979.47,349.946 1976.82,349.946C1974.16,349.946 1972,347.789 1972,345.132C1972,342.475 1974.16,340.317 1976.82,340.317ZM1976.82,341.693C1974.92,341.693 1973.38,343.234 1973.38,345.132C1973.38,347.03 1974.92,348.571 1976.82,348.571C1978.71,348.571 1980.25,347.03 1980.25,345.132C1980.25,343.234 1978.71,341.693 1976.82,341.693Z" style="fill:rgb(116,115,105);"/>
                    </g>
                </g>
            </g>
        </g>
    </g>
</svg>
