<?xml version="1.0" encoding="UTF-8" standalone="no"?>
<!DOCTYPE svg PUBLIC "-//W3C//DTD SVG 1.1//EN" "http://www.w3.org/Graphics/SVG/1.1/DTD/svg11.dtd">
<svg width="100%" height="100%" viewBox="0 0 11 16" version="1.1" xmlns="http://www.w3.org/2000/svg" xmlns:xlink="http://www.w3.org/1999/xlink" xml:space="preserve" xmlns:serif="http://www.serif.com/" style="fill-rule:evenodd;clip-rule:evenodd;stroke-linejoin:round;stroke-miterlimit:2;">
    <g transform="matrix(1,0,0,1,-843,-708)">
        <g transform="matrix(1.13981,0,0,0.894792,0,0)">
            <g id="gen_panbg_horz" transform="matrix(0.836916,0,0,0.645745,354.444,-137.835)">
                <g transform="matrix(0.786222,0,0,1.51435,83.8636,72.4001)">
                    <path d="M492,909.714C492,908.768 491.104,908 490,908L482,908C480.896,908 480,908.768 480,909.714L480,914.286C480,915.232 480.896,916 482,916L490,916C491.104,916 492,915.232 492,914.286L492,909.714Z" style="fill:rgb(242,240,236);"/>
                    <path d="M492,909.714L492,914.286C492,915.232 491.104,916 490,916L482,916C480.896,916 480,915.232 480,914.286L480,909.714C480,908.768 480.896,908 482,908L490,908C491.104,908 492,908.768 492,909.714ZM490.667,909.714C490.667,909.399 490.368,909.143 490,909.143L482,909.143C481.632,909.143 481.333,909.399 481.333,909.714L481.333,914.286C481.333,914.601 481.632,914.857 482,914.857L490,914.857C490.368,914.857 490.667,914.601 490.667,914.286L490.667,909.714Z" style="fill:rgb(211,208,200);"/>
                </g>
                <g transform="matrix(1.5,0,0,2.18182,412.635,1220.71)">
                    <rect x="31.711" y="99.947" width="7.688" height="12.692" style="fill:none;"/>
                    <clipPath id="_clip1">
                        <rect x="31.711" y="99.947" width="7.688" height="12.692"/>
                    </clipPath>
                    <g clip-path="url(#_clip1)">
                        <g transform="matrix(2.79545,0,0,0.793229,-60.5391,49.9734)">
                            <rect x="33" y="63" width="1" height="1" style="fill:rgb(255,0,255);"/>
                        </g>
                        <g transform="matrix(-2.79545,-3.8857e-16,8.55861e-17,-0.793229,131.648,162.612)">
                            <rect x="33" y="63" width="1" height="1" style="fill:rgb(255,0,255);"/>
                        </g>
                        <g transform="matrix(1.71172e-16,5.5526,-0.698864,6.47644e-17,76.4382,-83.289)">
                            <rect x="33" y="63" width="1" height="1" style="fill:rgb(255,0,255);"/>
                        </g>
                        <g transform="matrix(3.85138e-16,-4.75937,0.698864,3.46914e-17,-5.32884,269.698)">
                            <rect x="33" y="63" width="1" height="1" style="fill:rgb(255,0,255);"/>
                        </g>
                    </g>
                </g>
            </g>
        </g>
    </g>
</svg>
