<?xml version="1.0" encoding="UTF-8" standalone="no"?>
<!DOCTYPE svg PUBLIC "-//W3C//DTD SVG 1.1//EN" "http://www.w3.org/Graphics/SVG/1.1/DTD/svg11.dtd">
<svg width="100%" height="100%" viewBox="0 0 72 24" version="1.1" xmlns="http://www.w3.org/2000/svg" xmlns:xlink="http://www.w3.org/1999/xlink" xml:space="preserve" xmlns:serif="http://www.serif.com/" style="fill-rule:evenodd;clip-rule:evenodd;stroke-linejoin:round;stroke-miterlimit:2;">
    <g transform="matrix(1,0,0,1,-42,-1488)">
        <g transform="matrix(1.13981,0,0,0.894792,0,0)">
            <g id="gen_end" transform="matrix(0.996,0,0,0.76849,19.6204,1037.52)">
                <rect x="17.297" y="813.852" width="63.422" height="34.902" style="fill:none;"/>
                <g transform="matrix(0.0450439,0,0,0.0743652,22.2217,821.785)">
                    <path d="M248,128C248.008,133.404 245.236,138.449 240.67,141.34L152.48,197.5C149.921,199.136 146.947,200.005 143.91,200.005C135.206,200.005 128.035,192.864 128,184.16L128,146.86L48.48,197.5C45.921,199.136 42.947,200.005 39.91,200.005C31.206,200.005 24.035,192.864 24,184.16L24,71.84C24.035,63.136 31.206,55.995 39.91,55.995C42.947,55.995 45.921,56.864 48.48,58.5L128,109.14L128,71.84C128.035,63.136 135.206,55.995 143.91,55.995C146.947,55.995 149.921,56.864 152.48,58.5L240.67,114.66C245.236,117.551 248.008,122.596 248,128Z" style="fill:rgb(81,81,81);fill-rule:nonzero;"/>
                </g>
                <g transform="matrix(0.0450439,0,0,0.0743652,43.3623,821.785)">
                    <path d="M248,128C248.008,133.404 245.236,138.449 240.67,141.34L152.48,197.5C149.921,199.136 146.947,200.005 143.91,200.005C135.206,200.005 128.035,192.864 128,184.16L128,146.86L48.48,197.5C45.921,199.136 42.947,200.005 39.91,200.005C31.206,200.005 24.035,192.864 24,184.16L24,71.84C24.035,63.136 31.206,55.995 39.91,55.995C42.947,55.995 45.921,56.864 48.48,58.5L128,109.14L128,71.84C128.035,63.136 135.206,55.995 143.91,55.995C146.947,55.995 149.921,56.864 152.48,58.5L240.67,114.66C245.236,117.551 248.008,122.596 248,128Z" style="fill:rgb(116,115,105);fill-rule:nonzero;"/>
                </g>
                <g transform="matrix(0.0450439,0,0,0.0743652,64.5029,821.785)">
                    <path d="M248,128C248.008,133.404 245.236,138.449 240.67,141.34L152.48,197.5C149.921,199.136 146.947,200.005 143.91,200.005C135.206,200.005 128.035,192.864 128,184.16L128,146.86L48.48,197.5C45.921,199.136 42.947,200.005 39.91,200.005C31.206,200.005 24.035,192.864 24,184.16L24,71.84C24.035,63.136 31.206,55.995 39.91,55.995C42.947,55.995 45.921,56.864 48.48,58.5L128,109.14L128,71.84C128.035,63.136 135.206,55.995 143.91,55.995C146.947,55.995 149.921,56.864 152.48,58.5L240.67,114.66C245.236,117.551 248.008,122.596 248,128Z" style="fill:rgb(57,57,57);fill-rule:nonzero;"/>
                </g>
            </g>
        </g>
    </g>
</svg>
