<?xml version="1.0" encoding="UTF-8" standalone="no"?>
<!DOCTYPE svg PUBLIC "-//W3C//DTD SVG 1.1//EN" "http://www.w3.org/Graphics/SVG/1.1/DTD/svg11.dtd">
<svg width="100%" height="100%" viewBox="0 0 381 22" version="1.1" xmlns="http://www.w3.org/2000/svg" xmlns:xlink="http://www.w3.org/1999/xlink" xml:space="preserve" xmlns:serif="http://www.serif.com/" style="fill-rule:evenodd;clip-rule:evenodd;stroke-linejoin:round;stroke-miterlimit:2;">
    <g transform="matrix(1,0,0,1,-35,-905)">
        <g transform="matrix(1.13981,0,0,0.894792,0,0)">
            <g id="global_read" transform="matrix(0.913,0,0,0.704449,14.9147,-31.2922)">
                <g transform="matrix(1,0,0,1,19.2188,-104.706)">
                    <g transform="matrix(0.960938,0,0,1.58646,-1879.59,984.043)">
                        <path d="M1965.82,388.956L1965.59,388.723L1964.68,388.723L1962,392.054L1962,394.946L1958,394.946L1958,390.946L1960.32,390.946L1963,387.616L1963,384.723L1967,384.723L1967,387.257C1966.32,387.403 1965.82,388.004 1965.82,388.723L1965.82,388.956ZM1968.41,388.723L1969.41,389.723L1972,389.723L1972,392.848C1971.85,392.973 1971.67,393.077 1971.47,393.162L1971.78,393.723L1970.15,393.723L1969.98,393.401L1968.81,393.401L1968.81,393.723L1968,393.723L1968,391.137L1967.32,390.456L1967.32,388.723L1968.41,388.723ZM1968.81,392.195L1969.88,392.195C1970.77,392.195 1971.22,391.827 1971.22,391.091C1971.22,390.723 1971.11,390.442 1970.89,390.247C1970.67,390.051 1970.33,389.954 1969.88,389.954L1968.81,389.954L1968.81,392.195Z" style="fill:rgb(153,204,153);"/>
                    </g>
                    <g transform="matrix(0.960938,0,0,1.58646,-274.823,1051.54)">
                        <path d="M297.313,353.451L297.313,346.175L300.149,346.175C300.976,346.175 301.617,346.391 302.071,346.822C302.525,347.253 302.752,347.827 302.752,348.543C302.752,349.041 302.641,349.467 302.42,349.82C302.199,350.173 301.88,350.438 301.463,350.614L303.011,353.451L301.36,353.451L299.974,350.853L298.802,350.853L298.802,353.451L297.313,353.451ZM298.802,349.647L299.876,349.647C300.768,349.647 301.214,349.279 301.214,348.543C301.214,348.175 301.104,347.894 300.884,347.699C300.665,347.503 300.327,347.406 299.871,347.406L298.802,347.406L298.802,349.647Z" style="fill:rgb(153,204,153);fill-rule:nonzero;"/>
                    </g>
                </g>
                <g transform="matrix(1,0,0,1,141.258,-104.706)">
                    <g transform="matrix(0.960938,0,0,1.58646,-1879.59,984.043)">
                        <path d="M1965.82,388.956L1965.59,388.723L1964.68,388.723L1962,392.054L1962,394.946L1958,394.946L1958,390.946L1960.32,390.946L1963,387.616L1963,384.723L1967,384.723L1967,387.257C1966.32,387.403 1965.82,388.004 1965.82,388.723L1965.82,388.956ZM1968.41,388.723L1969.41,389.723L1972,389.723L1972,392.848C1971.85,392.973 1971.67,393.077 1971.47,393.162L1971.78,393.723L1970.15,393.723L1969.98,393.401L1968.81,393.401L1968.81,393.723L1968,393.723L1968,391.137L1967.32,390.456L1967.32,388.723L1968.41,388.723ZM1968.81,392.195L1969.88,392.195C1970.77,392.195 1971.22,391.827 1971.22,391.091C1971.22,390.723 1971.11,390.442 1970.89,390.247C1970.67,390.051 1970.33,389.954 1969.88,389.954L1968.81,389.954L1968.81,392.195Z" style="fill:rgb(153,204,153);"/>
                    </g>
                    <g transform="matrix(0.960938,0,0,1.58646,-274.823,1051.54)">
                        <path d="M297.313,353.451L297.313,346.175L300.149,346.175C300.976,346.175 301.617,346.391 302.071,346.822C302.525,347.253 302.752,347.827 302.752,348.543C302.752,349.041 302.641,349.467 302.42,349.82C302.199,350.173 301.88,350.438 301.463,350.614L303.011,353.451L301.36,353.451L299.974,350.853L298.802,350.853L298.802,353.451L297.313,353.451ZM298.802,349.647L299.876,349.647C300.768,349.647 301.214,349.279 301.214,348.543C301.214,348.175 301.104,347.894 300.884,347.699C300.665,347.503 300.327,347.406 299.871,347.406L298.802,347.406L298.802,349.647Z" style="fill:rgb(153,204,153);fill-rule:nonzero;"/>
                    </g>
                </g>
                <g transform="matrix(1,0,0,1,263.297,-104.706)">
                    <g transform="matrix(0.960938,0,0,1.58646,-1879.59,984.043)">
                        <path d="M1965.82,388.956L1965.59,388.723L1964.68,388.723L1962,392.054L1962,394.946L1958,394.946L1958,390.946L1960.32,390.946L1963,387.616L1963,384.723L1967,384.723L1967,387.257C1966.32,387.403 1965.82,388.004 1965.82,388.723L1965.82,388.956ZM1968.41,388.723L1969.41,389.723L1972,389.723L1972,392.848C1971.85,392.973 1971.67,393.077 1971.47,393.162L1971.78,393.723L1970.15,393.723L1969.98,393.401L1968.81,393.401L1968.81,393.723L1968,393.723L1968,391.137L1967.32,390.456L1967.32,388.723L1968.41,388.723ZM1968.81,392.195L1969.88,392.195C1970.77,392.195 1971.22,391.827 1971.22,391.091C1971.22,390.723 1971.11,390.442 1970.89,390.247C1970.67,390.051 1970.33,389.954 1969.88,389.954L1968.81,389.954L1968.81,392.195Z" style="fill:rgb(153,204,153);"/>
                    </g>
                    <g transform="matrix(0.960938,0,0,1.58646,-274.823,1051.54)">
                        <path d="M297.313,353.451L297.313,346.175L300.149,346.175C300.976,346.175 301.617,346.391 302.071,346.822C302.525,347.253 302.752,347.827 302.752,348.543C302.752,349.041 302.641,349.467 302.42,349.82C302.199,350.173 301.88,350.438 301.463,350.614L303.011,353.451L301.36,353.451L299.974,350.853L298.802,350.853L298.802,353.451L297.313,353.451ZM298.802,349.647L299.876,349.647C300.768,349.647 301.214,349.279 301.214,348.543C301.214,348.175 301.104,347.894 300.884,347.699C300.665,347.503 300.327,347.406 299.871,347.406L298.802,347.406L298.802,349.647Z" style="fill:rgb(153,204,153);fill-rule:nonzero;"/>
                    </g>
                </g>
                <g transform="matrix(0.960938,0,0,1.58646,-2451.58,1161)">
                    <g transform="matrix(9,0,0,9,2655.39,216.034)">
                    </g>
                    <text x="2591.7px" y="216.034px" style="font-family:'Inter-Regular', 'Inter';font-size:9px;fill:rgb(153,204,153);">Ov<tspan x="2603.46px 2608.71px 2612.24px 2615.76px " y="216.034px 216.034px 216.034px 216.034px ">erri</tspan>de: R<tspan x="2639.49px " y="216.034px ">e</tspan>ad</text>
                </g>
                <g transform="matrix(0.960938,0,0,1.58646,-2329.54,1161)">
                    <g transform="matrix(9,0,0,9,2655.39,216.034)">
                    </g>
                    <text x="2591.7px" y="216.034px" style="font-family:'Inter-Regular', 'Inter';font-size:9px;fill:rgb(153,204,153);">Ov<tspan x="2603.46px 2608.71px 2612.24px 2615.76px " y="216.034px 216.034px 216.034px 216.034px ">erri</tspan>de: R<tspan x="2639.49px " y="216.034px ">e</tspan>ad</text>
                </g>
                <g transform="matrix(0.960938,0,0,1.58646,-2207.5,1161)">
                    <g transform="matrix(9,0,0,9,2655.39,216.034)">
                    </g>
                    <text x="2591.7px" y="216.034px" style="font-family:'Inter-Regular', 'Inter';font-size:9px;fill:rgb(153,204,153);">Ov<tspan x="2603.46px 2608.71px 2612.24px 2615.76px " y="216.034px 216.034px 216.034px 216.034px ">erri</tspan>de: R<tspan x="2639.49px " y="216.034px ">e</tspan>ad</text>
                </g>
            </g>
        </g>
    </g>
</svg>
