<?xml version="1.0" encoding="UTF-8" standalone="no"?>
<!DOCTYPE svg PUBLIC "-//W3C//DTD SVG 1.1//EN" "http://www.w3.org/Graphics/SVG/1.1/DTD/svg11.dtd">
<svg width="100%" height="100%" viewBox="0 0 381 22" version="1.1" xmlns="http://www.w3.org/2000/svg" xmlns:xlink="http://www.w3.org/1999/xlink" xml:space="preserve" xmlns:serif="http://www.serif.com/" style="fill-rule:evenodd;clip-rule:evenodd;stroke-linejoin:round;stroke-miterlimit:2;">
    <g transform="matrix(1,0,0,1,-35,-971)">
        <g transform="matrix(1.13981,0,0,0.894792,0,0)">
            <g id="global_preview" transform="matrix(0.913,0,0,0.704449,14.9147,42.468)">
                <g transform="matrix(0.960938,0,0,1.58646,-2451.58,1161)">
                    <g transform="matrix(9,0,0,9,2693.57,216.034)">
                    </g>
                    <text x="2591.7px" y="216.034px" style="font-family:'Inter-Regular', 'Inter';font-size:9px;fill:rgb(102,153,204);">Ov<tspan x="2603.46px 2608.71px 2612.24px 2615.76px " y="216.034px 216.034px 216.034px 216.034px ">erri</tspan>de: Latch Pr<tspan x="2668.81px 2673.88px " y="216.034px 216.034px ">ev</tspan>ie<tspan x="2686.2px " y="216.034px ">w</tspan></text>
                </g>
                <g transform="matrix(1,0,0,1,19.2188,-209.412)">
                    <g transform="matrix(0.960938,0,0,1.58646,-1879.59,1088.75)">
                        <path d="M1960.25,394.946L1958,394.946L1958,390.946L1960.25,390.946L1960.25,394.946ZM1963,387.223L1963,384.723L1967,384.723L1967,387.279C1966.37,387.456 1965.91,388.036 1965.91,388.723L1965.91,389.044L1965.59,388.723L1964.74,388.723C1964.74,387.895 1964.07,387.223 1963.24,387.223L1963,387.223ZM1961.75,389.169L1962.11,388.723L1963.24,388.723L1963.24,390.509L1962,392.054L1962,394.946L1961.75,394.946L1961.75,389.169ZM1968.41,388.723L1969.41,389.723L1972,389.723L1972,393.075C1971.89,393.163 1971.77,393.241 1971.63,393.311C1971.24,393.517 1970.77,393.621 1970.21,393.621L1968.9,393.621L1968.9,393.723L1968,393.723L1968,391.137L1967.41,390.544L1967.41,388.723L1968.41,388.723ZM1968.9,392.419L1969.97,392.419C1970.42,392.419 1970.76,392.304 1970.98,392.073C1971.2,391.842 1971.31,391.544 1971.31,391.179C1971.31,390.811 1971.2,390.515 1970.98,390.291C1970.76,390.066 1970.42,389.954 1969.97,389.954L1968.9,389.954L1968.9,392.419Z" style="fill:rgb(102,153,204);"/>
                    </g>
                    <g transform="matrix(0.960938,0,0,1.58646,-274.823,1156.25)">
                        <path d="M291.746,353.451L291.746,346.175L293.235,346.175L293.235,352.215L296.375,352.215L296.375,353.451L291.746,353.451Z" style="fill:rgb(102,153,204);fill-rule:nonzero;"/>
                    </g>
                    <g transform="matrix(0.960938,0,0,1.58646,-274.823,1156.25)">
                        <path d="M297.4,353.451L297.4,346.175L300.237,346.175C300.791,346.175 301.261,346.28 301.648,346.49C302.036,346.7 302.331,346.99 302.535,347.359C302.738,347.729 302.84,348.153 302.84,348.631C302.84,349.113 302.737,349.537 302.53,349.903C302.323,350.269 302.023,350.556 301.629,350.763C301.235,350.969 300.76,351.073 300.203,351.073L298.89,351.073L298.89,353.451L297.4,353.451ZM298.89,349.871L299.964,349.871C300.42,349.871 300.757,349.756 300.975,349.525C301.193,349.294 301.302,348.996 301.302,348.631C301.302,348.263 301.193,347.967 300.975,347.743C300.757,347.518 300.418,347.406 299.959,347.406L298.89,347.406L298.89,349.871Z" style="fill:rgb(102,153,204);fill-rule:nonzero;"/>
                    </g>
                </g>
                <g transform="matrix(1,0,0,1,141.258,-209.412)">
                    <g transform="matrix(0.960938,0,0,1.58646,-1879.59,1088.75)">
                        <path d="M1960.25,394.946L1958,394.946L1958,390.946L1960.25,390.946L1960.25,394.946ZM1963,387.223L1963,384.723L1967,384.723L1967,387.279C1966.37,387.456 1965.91,388.036 1965.91,388.723L1965.91,389.044L1965.59,388.723L1964.74,388.723C1964.74,387.895 1964.07,387.223 1963.24,387.223L1963,387.223ZM1961.75,389.169L1962.11,388.723L1963.24,388.723L1963.24,390.509L1962,392.054L1962,394.946L1961.75,394.946L1961.75,389.169ZM1968.41,388.723L1969.41,389.723L1972,389.723L1972,393.075C1971.89,393.163 1971.77,393.241 1971.63,393.311C1971.24,393.517 1970.77,393.621 1970.21,393.621L1968.9,393.621L1968.9,393.723L1968,393.723L1968,391.137L1967.41,390.544L1967.41,388.723L1968.41,388.723ZM1968.9,392.419L1969.97,392.419C1970.42,392.419 1970.76,392.304 1970.98,392.073C1971.2,391.842 1971.31,391.544 1971.31,391.179C1971.31,390.811 1971.2,390.515 1970.98,390.291C1970.76,390.066 1970.42,389.954 1969.97,389.954L1968.9,389.954L1968.9,392.419Z" style="fill:rgb(102,153,204);"/>
                    </g>
                    <g transform="matrix(0.960938,0,0,1.58646,-274.823,1156.25)">
                        <path d="M291.746,353.451L291.746,346.175L293.235,346.175L293.235,352.215L296.375,352.215L296.375,353.451L291.746,353.451Z" style="fill:rgb(102,153,204);fill-rule:nonzero;"/>
                    </g>
                    <g transform="matrix(0.960938,0,0,1.58646,-274.823,1156.25)">
                        <path d="M297.4,353.451L297.4,346.175L300.237,346.175C300.791,346.175 301.261,346.28 301.648,346.49C302.036,346.7 302.331,346.99 302.535,347.359C302.738,347.729 302.84,348.153 302.84,348.631C302.84,349.113 302.737,349.537 302.53,349.903C302.323,350.269 302.023,350.556 301.629,350.763C301.235,350.969 300.76,351.073 300.203,351.073L298.89,351.073L298.89,353.451L297.4,353.451ZM298.89,349.871L299.964,349.871C300.42,349.871 300.757,349.756 300.975,349.525C301.193,349.294 301.302,348.996 301.302,348.631C301.302,348.263 301.193,347.967 300.975,347.743C300.757,347.518 300.418,347.406 299.959,347.406L298.89,347.406L298.89,349.871Z" style="fill:rgb(102,153,204);fill-rule:nonzero;"/>
                    </g>
                </g>
                <g transform="matrix(1,0,0,1,263.297,-209.412)">
                    <g transform="matrix(0.960938,0,0,1.58646,-1879.59,1088.75)">
                        <path d="M1960.25,394.946L1958,394.946L1958,390.946L1960.25,390.946L1960.25,394.946ZM1963,387.223L1963,384.723L1967,384.723L1967,387.279C1966.37,387.456 1965.91,388.036 1965.91,388.723L1965.91,389.044L1965.59,388.723L1964.74,388.723C1964.74,387.895 1964.07,387.223 1963.24,387.223L1963,387.223ZM1961.75,389.169L1962.11,388.723L1963.24,388.723L1963.24,390.509L1962,392.054L1962,394.946L1961.75,394.946L1961.75,389.169ZM1968.41,388.723L1969.41,389.723L1972,389.723L1972,393.075C1971.89,393.163 1971.77,393.241 1971.63,393.311C1971.24,393.517 1970.77,393.621 1970.21,393.621L1968.9,393.621L1968.9,393.723L1968,393.723L1968,391.137L1967.41,390.544L1967.41,388.723L1968.41,388.723ZM1968.9,392.419L1969.97,392.419C1970.42,392.419 1970.76,392.304 1970.98,392.073C1971.2,391.842 1971.31,391.544 1971.31,391.179C1971.31,390.811 1971.2,390.515 1970.98,390.291C1970.76,390.066 1970.42,389.954 1969.97,389.954L1968.9,389.954L1968.9,392.419Z" style="fill:rgb(102,153,204);"/>
                    </g>
                    <g transform="matrix(0.960938,0,0,1.58646,-274.823,1156.25)">
                        <path d="M291.746,353.451L291.746,346.175L293.235,346.175L293.235,352.215L296.375,352.215L296.375,353.451L291.746,353.451Z" style="fill:rgb(102,153,204);fill-rule:nonzero;"/>
                    </g>
                    <g transform="matrix(0.960938,0,0,1.58646,-274.823,1156.25)">
                        <path d="M297.4,353.451L297.4,346.175L300.237,346.175C300.791,346.175 301.261,346.28 301.648,346.49C302.036,346.7 302.331,346.99 302.535,347.359C302.738,347.729 302.84,348.153 302.84,348.631C302.84,349.113 302.737,349.537 302.53,349.903C302.323,350.269 302.023,350.556 301.629,350.763C301.235,350.969 300.76,351.073 300.203,351.073L298.89,351.073L298.89,353.451L297.4,353.451ZM298.89,349.871L299.964,349.871C300.42,349.871 300.757,349.756 300.975,349.525C301.193,349.294 301.302,348.996 301.302,348.631C301.302,348.263 301.193,347.967 300.975,347.743C300.757,347.518 300.418,347.406 299.959,347.406L298.89,347.406L298.89,349.871Z" style="fill:rgb(102,153,204);fill-rule:nonzero;"/>
                    </g>
                </g>
                <g transform="matrix(0.960938,0,0,1.58646,-2329.54,1161)">
                    <g transform="matrix(9,0,0,9,2693.57,216.034)">
                    </g>
                    <text x="2591.7px" y="216.034px" style="font-family:'Inter-Regular', 'Inter';font-size:9px;fill:rgb(102,153,204);">Ov<tspan x="2603.46px 2608.71px 2612.24px 2615.76px " y="216.034px 216.034px 216.034px 216.034px ">erri</tspan>de: Latch Pr<tspan x="2668.81px 2673.88px " y="216.034px 216.034px ">ev</tspan>ie<tspan x="2686.2px " y="216.034px ">w</tspan></text>
                </g>
                <g transform="matrix(0.960938,0,0,1.58646,-2207.5,1161)">
                    <g transform="matrix(9,0,0,9,2693.57,216.034)">
                    </g>
                    <text x="2591.7px" y="216.034px" style="font-family:'Inter-Regular', 'Inter';font-size:9px;fill:rgb(102,153,204);">Ov<tspan x="2603.46px 2608.71px 2612.24px 2615.76px " y="216.034px 216.034px 216.034px 216.034px ">erri</tspan>de: Latch Pr<tspan x="2668.81px 2673.88px " y="216.034px 216.034px ">ev</tspan>ie<tspan x="2686.2px " y="216.034px ">w</tspan></text>
                </g>
            </g>
        </g>
    </g>
</svg>
