<?xml version="1.0" encoding="UTF-8" standalone="no"?>
<!DOCTYPE svg PUBLIC "-//W3C//DTD SVG 1.1//EN" "http://www.w3.org/Graphics/SVG/1.1/DTD/svg11.dtd">
<svg width="100%" height="100%" viewBox="0 0 381 22" version="1.1" xmlns="http://www.w3.org/2000/svg" xmlns:xlink="http://www.w3.org/1999/xlink" xml:space="preserve" xmlns:serif="http://www.serif.com/" style="fill-rule:evenodd;clip-rule:evenodd;stroke-linejoin:round;stroke-miterlimit:2;">
    <g transform="matrix(1,0,0,1,-35,-927)">
        <g transform="matrix(1.13981,0,0,0.894792,0,0)">
            <g id="global_touch" transform="matrix(0.913,0,0,0.704449,14.9147,-6.70547)">
                <g transform="matrix(0.960938,0,0,1.58646,-2451.58,1161)">
                    <g transform="matrix(9,0,0,9,2660.12,216.034)">
                    </g>
                    <text x="2591.7px" y="216.034px" style="font-family:'Inter-Regular', 'Inter';font-size:9px;fill:rgb(255,204,102);">Ov<tspan x="2603.46px 2608.71px 2612.24px 2615.76px " y="216.034px 216.034px 216.034px 216.034px ">erri</tspan>de: T<tspan x="2638.93px " y="216.034px ">o</tspan>uch</text>
                </g>
                <g transform="matrix(1,0,0,1,19.2188,-139.608)">
                    <g transform="matrix(0.960938,0,0,1.58646,-1879.59,1018.94)">
                        <path d="M1965.42,388.723L1964.68,388.723L1962,392.054L1962,394.946L1958,394.946L1958,390.946L1960.32,390.946L1963,387.616L1963,384.723L1967,384.723L1967,387.223L1966.92,387.223C1966.09,387.223 1965.42,387.895 1965.42,388.723ZM1968.41,388.723L1969.41,389.723L1972,389.723L1972,389.958L1970.64,389.958L1970.64,393.723L1969.14,393.723L1969.14,389.958L1966.92,389.958L1966.92,388.723L1968.41,388.723Z" style="fill:rgb(255,204,102);"/>
                    </g>
                    <g transform="matrix(0.960938,0,0,1.58646,-274.823,1086.45)">
                        <path d="M296.912,347.41L296.912,346.175L302.855,346.175L302.855,347.41L300.633,347.41L300.633,353.451L299.139,353.451L299.139,347.41L296.912,347.41Z" style="fill:rgb(255,204,102);fill-rule:nonzero;"/>
                    </g>
                </g>
                <g transform="matrix(1,0,0,1,141.258,-139.608)">
                    <g transform="matrix(0.960938,0,0,1.58646,-1879.59,1018.94)">
                        <path d="M1965.42,388.723L1964.68,388.723L1962,392.054L1962,394.946L1958,394.946L1958,390.946L1960.32,390.946L1963,387.616L1963,384.723L1967,384.723L1967,387.223L1966.92,387.223C1966.09,387.223 1965.42,387.895 1965.42,388.723ZM1968.41,388.723L1969.41,389.723L1972,389.723L1972,389.958L1970.64,389.958L1970.64,393.723L1969.14,393.723L1969.14,389.958L1966.92,389.958L1966.92,388.723L1968.41,388.723Z" style="fill:rgb(255,204,102);"/>
                    </g>
                    <g transform="matrix(0.960938,0,0,1.58646,-274.823,1086.45)">
                        <path d="M296.912,347.41L296.912,346.175L302.855,346.175L302.855,347.41L300.633,347.41L300.633,353.451L299.139,353.451L299.139,347.41L296.912,347.41Z" style="fill:rgb(255,204,102);fill-rule:nonzero;"/>
                    </g>
                </g>
                <g transform="matrix(1,0,0,1,263.297,-139.608)">
                    <g transform="matrix(0.960938,0,0,1.58646,-1879.59,1018.94)">
                        <path d="M1965.42,388.723L1964.68,388.723L1962,392.054L1962,394.946L1958,394.946L1958,390.946L1960.32,390.946L1963,387.616L1963,384.723L1967,384.723L1967,387.223L1966.92,387.223C1966.09,387.223 1965.42,387.895 1965.42,388.723ZM1968.41,388.723L1969.41,389.723L1972,389.723L1972,389.958L1970.64,389.958L1970.64,393.723L1969.14,393.723L1969.14,389.958L1966.92,389.958L1966.92,388.723L1968.41,388.723Z" style="fill:rgb(255,204,102);"/>
                    </g>
                    <g transform="matrix(0.960938,0,0,1.58646,-274.823,1086.45)">
                        <path d="M296.912,347.41L296.912,346.175L302.855,346.175L302.855,347.41L300.633,347.41L300.633,353.451L299.139,353.451L299.139,347.41L296.912,347.41Z" style="fill:rgb(255,204,102);fill-rule:nonzero;"/>
                    </g>
                </g>
                <g transform="matrix(0.960938,0,0,1.58646,-2329.54,1161)">
                    <g transform="matrix(9,0,0,9,2660.12,216.034)">
                    </g>
                    <text x="2591.7px" y="216.034px" style="font-family:'Inter-Regular', 'Inter';font-size:9px;fill:rgb(255,204,102);">Ov<tspan x="2603.46px 2608.71px 2612.24px 2615.76px " y="216.034px 216.034px 216.034px 216.034px ">erri</tspan>de: T<tspan x="2638.93px " y="216.034px ">o</tspan>uch</text>
                </g>
                <g transform="matrix(0.960938,0,0,1.58646,-2207.5,1161)">
                    <g transform="matrix(9,0,0,9,2660.12,216.034)">
                    </g>
                    <text x="2591.7px" y="216.034px" style="font-family:'Inter-Regular', 'Inter';font-size:9px;fill:rgb(255,204,102);">Ov<tspan x="2603.46px 2608.71px 2612.24px 2615.76px " y="216.034px 216.034px 216.034px 216.034px ">erri</tspan>de: T<tspan x="2638.93px " y="216.034px ">o</tspan>uch</text>
                </g>
            </g>
        </g>
    </g>
</svg>
