<?xml version="1.0" encoding="UTF-8" standalone="no"?>
<!DOCTYPE svg PUBLIC "-//W3C//DTD SVG 1.1//EN" "http://www.w3.org/Graphics/SVG/1.1/DTD/svg11.dtd">
<svg width="100%" height="100%" viewBox="0 0 381 22" version="1.1" xmlns="http://www.w3.org/2000/svg" xmlns:xlink="http://www.w3.org/1999/xlink" xml:space="preserve" xmlns:serif="http://www.serif.com/" style="fill-rule:evenodd;clip-rule:evenodd;stroke-linejoin:round;stroke-miterlimit:2;">
    <g transform="matrix(1,0,0,1,-35,-861)">
        <g transform="matrix(1.13981,0,0,0.894792,0,0)">
            <g id="global_bypass" transform="matrix(0.913,0,0,0.704449,14.9147,-80.4657)">
                <g transform="matrix(0.960938,0,0,1.58646,-2451.58,1161)">
                    <g transform="matrix(9,0,0,9,2664.93,216.034)">
                    </g>
                    <text x="2591.7px" y="216.034px" style="font-family:'Inter-Regular', 'Inter';font-size:9px;fill:rgb(210,123,83);">Ov<tspan x="2603.46px 2608.71px 2612.24px 2615.76px " y="216.034px 216.034px 216.034px 216.034px ">erri</tspan>de: Bypass</text>
                </g>
                <g transform="matrix(1,0,0,1,19.2188,-34.9021)">
                    <g transform="matrix(1.28125,0,0,1.50263,-2506.77,1014.63)">
                        <rect x="1958" y="345.946" width="3" height="4.223" style="fill:rgb(249,145,87);"/>
                    </g>
                    <g transform="matrix(1.28125,0,0,1.50263,-2501.96,1004.76)">
                        <rect x="1958" y="345.946" width="3" height="4.223" style="fill:rgb(249,145,87);"/>
                    </g>
                    <g transform="matrix(1.28125,0,0,1.50263,-2497.16,1012.69)">
                        <rect x="1958" y="345.946" width="3" height="4.223" style="fill:rgb(249,145,87);"/>
                    </g>
                    <g transform="matrix(0.960938,0,0,1.58646,-1879.59,985.629)">
                        <path d="M1971.41,346.723L1970,348.137L1963.59,341.723L1965,340.309L1971.41,346.723Z" style="fill:rgb(249,145,87);"/>
                    </g>
                    <g transform="matrix(0.960938,0,0,1.58646,-1879.59,985.629)">
                        <path d="M1960.15,349.352L1958.59,348.1L1964.85,340.317L1966.41,341.57L1960.15,349.352Z" style="fill:rgb(249,145,87);"/>
                    </g>
                    <g transform="matrix(0.960938,0,0,1.58646,-274.823,981.739)">
                        <g transform="matrix(10,0,0,10,303.221,353.451)">
                        </g>
                        <text x="295.838px" y="353.451px" style="font-family:'Inter-Bold', 'Inter';font-weight:700;font-size:10px;fill:rgb(249,145,87);">X</text>
                        <path d="M299.556,345.739L299.818,345.345C300.096,344.927 300.565,344.675 301.067,344.675L302.757,344.675C303.311,344.675 303.82,344.981 304.081,345.47C304.341,345.959 304.311,346.552 304.002,347.012L302.21,349.679L304.21,352.604C304.524,353.063 304.558,353.659 304.298,354.151C304.039,354.643 303.528,354.951 302.972,354.951L301.204,354.951C300.701,354.951 300.232,354.699 299.954,354.28L299.515,353.618L299.048,354.299C298.768,354.707 298.305,354.951 297.811,354.951L296.087,354.951C295.527,354.951 295.014,354.639 294.756,354.142C294.498,353.646 294.538,353.047 294.859,352.589L296.881,349.709L295.075,347.009C294.767,346.549 294.737,345.957 294.998,345.468C295.259,344.98 295.768,344.675 296.321,344.675L298.05,344.675C298.557,344.675 299.029,344.931 299.306,345.356L299.556,345.739ZM296.087,353.451L297.811,353.451L298.856,351.927C299.028,351.67 299.16,351.459 299.251,351.295C299.342,351.13 299.435,350.96 299.529,350.785C299.624,350.964 299.716,351.134 299.805,351.297C299.895,351.46 300.024,351.67 300.193,351.927L301.204,353.451L302.972,353.451L300.398,349.686L302.757,346.175L301.067,346.175L300.257,347.396C300.088,347.656 299.951,347.889 299.847,348.094C299.743,348.299 299.642,348.499 299.544,348.695C299.45,348.496 299.352,348.295 299.251,348.092C299.15,347.888 299.015,347.656 298.846,347.396L298.05,346.175L296.321,346.175L298.699,349.73L296.087,353.451Z" style="fill:rgb(30,30,30);"/>
                    </g>
                </g>
                <g transform="matrix(1,0,0,1,141.258,-34.9021)">
                    <g transform="matrix(1.28125,0,0,1.50263,-2506.77,1014.63)">
                        <rect x="1958" y="345.946" width="3" height="4.223" style="fill:rgb(249,145,87);"/>
                    </g>
                    <g transform="matrix(1.28125,0,0,1.50263,-2501.96,1004.76)">
                        <rect x="1958" y="345.946" width="3" height="4.223" style="fill:rgb(249,145,87);"/>
                    </g>
                    <g transform="matrix(1.28125,0,0,1.50263,-2497.16,1012.69)">
                        <rect x="1958" y="345.946" width="3" height="4.223" style="fill:rgb(249,145,87);"/>
                    </g>
                    <g transform="matrix(0.960938,0,0,1.58646,-1879.59,985.629)">
                        <path d="M1971.41,346.723L1970,348.137L1963.59,341.723L1965,340.309L1971.41,346.723Z" style="fill:rgb(249,145,87);"/>
                    </g>
                    <g transform="matrix(0.960938,0,0,1.58646,-1879.59,985.629)">
                        <path d="M1960.15,349.352L1958.59,348.1L1964.85,340.317L1966.41,341.57L1960.15,349.352Z" style="fill:rgb(249,145,87);"/>
                    </g>
                    <g transform="matrix(0.960938,0,0,1.58646,-274.823,981.739)">
                        <g transform="matrix(10,0,0,10,303.221,353.451)">
                        </g>
                        <text x="295.838px" y="353.451px" style="font-family:'Inter-Bold', 'Inter';font-weight:700;font-size:10px;fill:rgb(249,145,87);">X</text>
                        <path d="M299.556,345.739L299.818,345.345C300.096,344.927 300.565,344.675 301.067,344.675L302.757,344.675C303.311,344.675 303.82,344.981 304.081,345.47C304.341,345.959 304.311,346.552 304.002,347.012L302.21,349.679L304.21,352.604C304.524,353.063 304.558,353.659 304.298,354.151C304.039,354.643 303.528,354.951 302.972,354.951L301.204,354.951C300.701,354.951 300.232,354.699 299.954,354.28L299.515,353.618L299.048,354.299C298.768,354.707 298.305,354.951 297.811,354.951L296.087,354.951C295.527,354.951 295.014,354.639 294.756,354.142C294.498,353.646 294.538,353.047 294.859,352.589L296.881,349.709L295.075,347.009C294.767,346.549 294.737,345.957 294.998,345.468C295.259,344.98 295.768,344.675 296.321,344.675L298.05,344.675C298.557,344.675 299.029,344.931 299.306,345.356L299.556,345.739ZM296.087,353.451L297.811,353.451L298.856,351.927C299.028,351.67 299.16,351.459 299.251,351.295C299.342,351.13 299.435,350.96 299.529,350.785C299.624,350.964 299.716,351.134 299.805,351.297C299.895,351.46 300.024,351.67 300.193,351.927L301.204,353.451L302.972,353.451L300.398,349.686L302.757,346.175L301.067,346.175L300.257,347.396C300.088,347.656 299.951,347.889 299.847,348.094C299.743,348.299 299.642,348.499 299.544,348.695C299.45,348.496 299.352,348.295 299.251,348.092C299.15,347.888 299.015,347.656 298.846,347.396L298.05,346.175L296.321,346.175L298.699,349.73L296.087,353.451Z" style="fill:rgb(30,30,30);"/>
                    </g>
                </g>
                <g transform="matrix(1,0,0,1,263.297,-34.9021)">
                    <g transform="matrix(1.28125,0,0,1.50263,-2506.77,1014.63)">
                        <rect x="1958" y="345.946" width="3" height="4.223" style="fill:rgb(249,145,87);"/>
                    </g>
                    <g transform="matrix(1.28125,0,0,1.50263,-2501.96,1004.76)">
                        <rect x="1958" y="345.946" width="3" height="4.223" style="fill:rgb(249,145,87);"/>
                    </g>
                    <g transform="matrix(1.28125,0,0,1.50263,-2497.16,1012.69)">
                        <rect x="1958" y="345.946" width="3" height="4.223" style="fill:rgb(249,145,87);"/>
                    </g>
                    <g transform="matrix(0.960938,0,0,1.58646,-1879.59,985.629)">
                        <path d="M1971.41,346.723L1970,348.137L1963.59,341.723L1965,340.309L1971.41,346.723Z" style="fill:rgb(249,145,87);"/>
                    </g>
                    <g transform="matrix(0.960938,0,0,1.58646,-1879.59,985.629)">
                        <path d="M1960.15,349.352L1958.59,348.1L1964.85,340.317L1966.41,341.57L1960.15,349.352Z" style="fill:rgb(249,145,87);"/>
                    </g>
                    <g transform="matrix(0.960938,0,0,1.58646,-274.823,981.739)">
                        <g transform="matrix(10,0,0,10,303.221,353.451)">
                        </g>
                        <text x="295.838px" y="353.451px" style="font-family:'Inter-Bold', 'Inter';font-weight:700;font-size:10px;fill:rgb(249,145,87);">X</text>
                        <path d="M299.556,345.739L299.818,345.345C300.096,344.927 300.565,344.675 301.067,344.675L302.757,344.675C303.311,344.675 303.82,344.981 304.081,345.47C304.341,345.959 304.311,346.552 304.002,347.012L302.21,349.679L304.21,352.604C304.524,353.063 304.558,353.659 304.298,354.151C304.039,354.643 303.528,354.951 302.972,354.951L301.204,354.951C300.701,354.951 300.232,354.699 299.954,354.28L299.515,353.618L299.048,354.299C298.768,354.707 298.305,354.951 297.811,354.951L296.087,354.951C295.527,354.951 295.014,354.639 294.756,354.142C294.498,353.646 294.538,353.047 294.859,352.589L296.881,349.709L295.075,347.009C294.767,346.549 294.737,345.957 294.998,345.468C295.259,344.98 295.768,344.675 296.321,344.675L298.05,344.675C298.557,344.675 299.029,344.931 299.306,345.356L299.556,345.739ZM296.087,353.451L297.811,353.451L298.856,351.927C299.028,351.67 299.16,351.459 299.251,351.295C299.342,351.13 299.435,350.96 299.529,350.785C299.624,350.964 299.716,351.134 299.805,351.297C299.895,351.46 300.024,351.67 300.193,351.927L301.204,353.451L302.972,353.451L300.398,349.686L302.757,346.175L301.067,346.175L300.257,347.396C300.088,347.656 299.951,347.889 299.847,348.094C299.743,348.299 299.642,348.499 299.544,348.695C299.45,348.496 299.352,348.295 299.251,348.092C299.15,347.888 299.015,347.656 298.846,347.396L298.05,346.175L296.321,346.175L298.699,349.73L296.087,353.451Z" style="fill:rgb(30,30,30);"/>
                    </g>
                </g>
                <g transform="matrix(0.960938,0,0,1.58646,-2329.54,1161)">
                    <g transform="matrix(9,0,0,9,2664.93,216.034)">
                    </g>
                    <text x="2591.7px" y="216.034px" style="font-family:'Inter-Regular', 'Inter';font-size:9px;fill:rgb(210,123,83);">Ov<tspan x="2603.46px 2608.71px 2612.24px 2615.76px " y="216.034px 216.034px 216.034px 216.034px ">erri</tspan>de: Bypass</text>
                </g>
                <g transform="matrix(0.960938,0,0,1.58646,-2207.5,1161)">
                    <g transform="matrix(9,0,0,9,2664.93,216.034)">
                    </g>
                    <text x="2591.7px" y="216.034px" style="font-family:'Inter-Regular', 'Inter';font-size:9px;fill:rgb(210,123,83);">Ov<tspan x="2603.46px 2608.71px 2612.24px 2615.76px " y="216.034px 216.034px 216.034px 216.034px ">erri</tspan>de: Bypass</text>
                </g>
            </g>
        </g>
    </g>
</svg>
