<?xml version="1.0" encoding="UTF-8" standalone="no"?>
<!DOCTYPE svg PUBLIC "-//W3C//DTD SVG 1.1//EN" "http://www.w3.org/Graphics/SVG/1.1/DTD/svg11.dtd">
<svg width="100%" height="100%" viewBox="0 0 381 22" version="1.1" xmlns="http://www.w3.org/2000/svg" xmlns:xlink="http://www.w3.org/1999/xlink" xml:space="preserve" xmlns:serif="http://www.serif.com/" style="fill-rule:evenodd;clip-rule:evenodd;stroke-linejoin:round;stroke-miterlimit:2;">
    <g transform="matrix(1,0,0,1,-35,-993)">
        <g transform="matrix(1.13981,0,0,0.894792,0,0)">
            <g id="global_write" transform="matrix(0.913,0,0,0.704449,14.9147,67.0547)">
                <g transform="matrix(0.960938,0,0,1.58646,-2451.58,1161)">
                    <g transform="matrix(9,0,0,9,2656.2,216.034)">
                    </g>
                    <text x="2591.7px" y="216.034px" style="font-family:'Inter-Regular', 'Inter';font-size:9px;fill:rgb(242,119,122);">Ov<tspan x="2603.46px 2608.71px 2612.24px 2615.76px " y="216.034px 216.034px 216.034px 216.034px ">erri</tspan>de: W<tspan x="2642.39px 2645.92px " y="216.034px 216.034px ">ri</tspan>te</text>
                </g>
                <g transform="matrix(1,0,0,1,19.2188,-244.314)">
                    <g transform="matrix(0.960938,0,0,1.58646,-1879.59,1123.65)">
                        <path d="M1962.32,391.652L1962,392.054L1962,394.946L1958,394.946L1958,390.946L1960.32,390.946L1961.68,389.258L1962.32,391.652ZM1963,387.226L1963,384.723L1967,384.723L1967,387.247C1966.58,387.322 1966.21,387.574 1965.99,387.932C1965.72,387.5 1965.25,387.223 1964.72,387.223L1963.09,387.223C1963.06,387.223 1963.03,387.224 1963,387.226ZM1968.41,388.723L1968.94,389.252L1969.7,392.302C1969.78,392.634 1969.85,392.989 1969.92,393.367C1969.94,393.486 1969.96,393.605 1969.99,393.723L1968.74,393.723L1968.36,392.278C1968.3,392.014 1968.24,391.737 1968.19,391.445C1968.13,391.154 1968.08,390.852 1968.03,390.54C1968,390.723 1967.98,390.905 1967.95,391.084L1966.93,390.068L1967.27,388.723L1968.41,388.723ZM1964.68,388.723L1963.49,390.203L1963.09,388.723L1964.68,388.723ZM1971.64,393.723L1970.25,393.723C1970.26,393.605 1970.28,393.486 1970.3,393.367C1970.37,392.989 1970.44,392.634 1970.51,392.302L1971.12,389.723L1972,389.723L1972,392.392L1971.64,393.723Z" style="fill:rgb(242,119,122);"/>
                    </g>
                    <g transform="matrix(0.960938,0,0,1.58646,-274.823,1191.15)">
                        <path d="M295.037,353.451L293.084,346.175L294.71,346.175L295.555,349.754C295.63,350.09 295.699,350.448 295.762,350.828C295.826,351.209 295.887,351.587 295.945,351.961C296.01,351.587 296.077,351.209 296.146,350.828C296.214,350.448 296.289,350.09 296.37,349.754L297.259,346.175L298.807,346.175L299.69,349.754C299.772,350.086 299.847,350.441 299.915,350.819C299.983,351.196 300.05,351.571 300.115,351.942C300.174,351.571 300.235,351.196 300.298,350.819C300.362,350.441 300.431,350.086 300.506,349.754L301.351,346.175L302.981,346.175L301.023,353.451L299.324,353.451L298.357,349.73C298.292,349.466 298.234,349.189 298.182,348.897C298.13,348.606 298.078,348.304 298.025,347.992C297.98,348.294 297.933,348.591 297.884,348.883C297.835,349.174 297.775,349.456 297.703,349.73L296.741,353.451L295.037,353.451Z" style="fill:rgb(242,119,122);fill-rule:nonzero;"/>
                    </g>
                </g>
                <g transform="matrix(1,0,0,1,141.258,-244.314)">
                    <g transform="matrix(0.960938,0,0,1.58646,-1879.59,1123.65)">
                        <path d="M1962.32,391.652L1962,392.054L1962,394.946L1958,394.946L1958,390.946L1960.32,390.946L1961.68,389.258L1962.32,391.652ZM1963,387.226L1963,384.723L1967,384.723L1967,387.247C1966.58,387.322 1966.21,387.574 1965.99,387.932C1965.72,387.5 1965.25,387.223 1964.72,387.223L1963.09,387.223C1963.06,387.223 1963.03,387.224 1963,387.226ZM1968.41,388.723L1968.94,389.252L1969.7,392.302C1969.78,392.634 1969.85,392.989 1969.92,393.367C1969.94,393.486 1969.96,393.605 1969.99,393.723L1968.74,393.723L1968.36,392.278C1968.3,392.014 1968.24,391.737 1968.19,391.445C1968.13,391.154 1968.08,390.852 1968.03,390.54C1968,390.723 1967.98,390.905 1967.95,391.084L1966.93,390.068L1967.27,388.723L1968.41,388.723ZM1964.68,388.723L1963.49,390.203L1963.09,388.723L1964.68,388.723ZM1971.64,393.723L1970.25,393.723C1970.26,393.605 1970.28,393.486 1970.3,393.367C1970.37,392.989 1970.44,392.634 1970.51,392.302L1971.12,389.723L1972,389.723L1972,392.392L1971.64,393.723Z" style="fill:rgb(242,119,122);"/>
                    </g>
                    <g transform="matrix(0.960938,0,0,1.58646,-274.823,1191.15)">
                        <path d="M295.037,353.451L293.084,346.175L294.71,346.175L295.555,349.754C295.63,350.09 295.699,350.448 295.762,350.828C295.826,351.209 295.887,351.587 295.945,351.961C296.01,351.587 296.077,351.209 296.146,350.828C296.214,350.448 296.289,350.09 296.37,349.754L297.259,346.175L298.807,346.175L299.69,349.754C299.772,350.086 299.847,350.441 299.915,350.819C299.983,351.196 300.05,351.571 300.115,351.942C300.174,351.571 300.235,351.196 300.298,350.819C300.362,350.441 300.431,350.086 300.506,349.754L301.351,346.175L302.981,346.175L301.023,353.451L299.324,353.451L298.357,349.73C298.292,349.466 298.234,349.189 298.182,348.897C298.13,348.606 298.078,348.304 298.025,347.992C297.98,348.294 297.933,348.591 297.884,348.883C297.835,349.174 297.775,349.456 297.703,349.73L296.741,353.451L295.037,353.451Z" style="fill:rgb(242,119,122);fill-rule:nonzero;"/>
                    </g>
                </g>
                <g transform="matrix(1,0,0,1,263.297,-244.314)">
                    <g transform="matrix(0.960938,0,0,1.58646,-1879.59,1123.65)">
                        <path d="M1962.32,391.652L1962,392.054L1962,394.946L1958,394.946L1958,390.946L1960.32,390.946L1961.68,389.258L1962.32,391.652ZM1963,387.226L1963,384.723L1967,384.723L1967,387.247C1966.58,387.322 1966.21,387.574 1965.99,387.932C1965.72,387.5 1965.25,387.223 1964.72,387.223L1963.09,387.223C1963.06,387.223 1963.03,387.224 1963,387.226ZM1968.41,388.723L1968.94,389.252L1969.7,392.302C1969.78,392.634 1969.85,392.989 1969.92,393.367C1969.94,393.486 1969.96,393.605 1969.99,393.723L1968.74,393.723L1968.36,392.278C1968.3,392.014 1968.24,391.737 1968.19,391.445C1968.13,391.154 1968.08,390.852 1968.03,390.54C1968,390.723 1967.98,390.905 1967.95,391.084L1966.93,390.068L1967.27,388.723L1968.41,388.723ZM1964.68,388.723L1963.49,390.203L1963.09,388.723L1964.68,388.723ZM1971.64,393.723L1970.25,393.723C1970.26,393.605 1970.28,393.486 1970.3,393.367C1970.37,392.989 1970.44,392.634 1970.51,392.302L1971.12,389.723L1972,389.723L1972,392.392L1971.64,393.723Z" style="fill:rgb(242,119,122);"/>
                    </g>
                    <g transform="matrix(0.960938,0,0,1.58646,-274.823,1191.15)">
                        <path d="M295.037,353.451L293.084,346.175L294.71,346.175L295.555,349.754C295.63,350.09 295.699,350.448 295.762,350.828C295.826,351.209 295.887,351.587 295.945,351.961C296.01,351.587 296.077,351.209 296.146,350.828C296.214,350.448 296.289,350.09 296.37,349.754L297.259,346.175L298.807,346.175L299.69,349.754C299.772,350.086 299.847,350.441 299.915,350.819C299.983,351.196 300.05,351.571 300.115,351.942C300.174,351.571 300.235,351.196 300.298,350.819C300.362,350.441 300.431,350.086 300.506,349.754L301.351,346.175L302.981,346.175L301.023,353.451L299.324,353.451L298.357,349.73C298.292,349.466 298.234,349.189 298.182,348.897C298.13,348.606 298.078,348.304 298.025,347.992C297.98,348.294 297.933,348.591 297.884,348.883C297.835,349.174 297.775,349.456 297.703,349.73L296.741,353.451L295.037,353.451Z" style="fill:rgb(242,119,122);fill-rule:nonzero;"/>
                    </g>
                </g>
                <g transform="matrix(0.960938,0,0,1.58646,-2329.54,1161)">
                    <g transform="matrix(9,0,0,9,2656.2,216.034)">
                    </g>
                    <text x="2591.7px" y="216.034px" style="font-family:'Inter-Regular', 'Inter';font-size:9px;fill:rgb(242,119,122);">Ov<tspan x="2603.46px 2608.71px 2612.24px 2615.76px " y="216.034px 216.034px 216.034px 216.034px ">erri</tspan>de: W<tspan x="2642.39px 2645.92px " y="216.034px 216.034px ">ri</tspan>te</text>
                </g>
                <g transform="matrix(0.960938,0,0,1.58646,-2207.5,1161)">
                    <g transform="matrix(9,0,0,9,2656.2,216.034)">
                    </g>
                    <text x="2591.7px" y="216.034px" style="font-family:'Inter-Regular', 'Inter';font-size:9px;fill:rgb(242,119,122);">Ov<tspan x="2603.46px 2608.71px 2612.24px 2615.76px " y="216.034px 216.034px 216.034px 216.034px ">erri</tspan>de: W<tspan x="2642.39px 2645.92px " y="216.034px 216.034px ">ri</tspan>te</text>
                </g>
            </g>
        </g>
    </g>
</svg>
