<?xml version="1.0" encoding="UTF-8" standalone="no"?>
<!DOCTYPE svg PUBLIC "-//W3C//DTD SVG 1.1//EN" "http://www.w3.org/Graphics/SVG/1.1/DTD/svg11.dtd">
<svg width="100%" height="100%" viewBox="0 0 381 22" version="1.1" xmlns="http://www.w3.org/2000/svg" xmlns:xlink="http://www.w3.org/1999/xlink" xml:space="preserve" xmlns:serif="http://www.serif.com/" style="fill-rule:evenodd;clip-rule:evenodd;stroke-linejoin:round;stroke-miterlimit:2;">
    <g transform="matrix(1,0,0,1,-35,-839)">
        <g transform="matrix(1.13981,0,0,0.894792,0,0)">
            <g id="global_off" transform="matrix(0.913,0,0,0.704449,14.9147,-105.052)">
                <g transform="matrix(0.960938,0,0,1.58646,-1860.38,879.336)">
                    <g transform="matrix(1.33333,0,0,0.947162,-652.667,63.2793)">
                        <rect x="1958" y="345.946" width="3" height="4.223" style="fill:rgb(116,115,105);"/>
                    </g>
                    <g transform="matrix(1.33333,0,0,0.947162,-647.667,57.0561)">
                        <rect x="1958" y="345.946" width="3" height="4.223" style="fill:rgb(116,115,105);"/>
                    </g>
                    <g transform="matrix(1.33333,0,0,0.947162,-642.667,62.0561)">
                        <rect x="1958" y="345.946" width="3" height="4.223" style="fill:rgb(116,115,105);"/>
                    </g>
                    <g transform="matrix(1,0,0,1,0,45)">
                        <path d="M1971.41,346.723L1970,348.137L1963.59,341.723L1965,340.309L1971.41,346.723Z" style="fill:rgb(116,115,105);"/>
                    </g>
                    <g transform="matrix(1,0,0,1,0,45)">
                        <path d="M1960.15,349.352L1958.59,348.1L1964.85,340.317L1966.41,341.57L1960.15,349.352Z" style="fill:rgb(116,115,105);"/>
                    </g>
                </g>
                <g transform="matrix(0.960938,0,0,1.58646,-1738.34,879.336)">
                    <g transform="matrix(1.33333,0,0,0.947162,-652.667,63.2793)">
                        <rect x="1958" y="345.946" width="3" height="4.223" style="fill:rgb(116,115,105);"/>
                    </g>
                    <g transform="matrix(1.33333,0,0,0.947162,-647.667,57.0561)">
                        <rect x="1958" y="345.946" width="3" height="4.223" style="fill:rgb(116,115,105);"/>
                    </g>
                    <g transform="matrix(1.33333,0,0,0.947162,-642.667,62.0561)">
                        <rect x="1958" y="345.946" width="3" height="4.223" style="fill:rgb(116,115,105);"/>
                    </g>
                    <g transform="matrix(1,0,0,1,0,45)">
                        <path d="M1971.41,346.723L1970,348.137L1963.59,341.723L1965,340.309L1971.41,346.723Z" style="fill:rgb(116,115,105);"/>
                    </g>
                    <g transform="matrix(1,0,0,1,0,45)">
                        <path d="M1960.15,349.352L1958.59,348.1L1964.85,340.317L1966.41,341.57L1960.15,349.352Z" style="fill:rgb(116,115,105);"/>
                    </g>
                </g>
                <g transform="matrix(0.960938,0,0,1.58646,-1616.3,879.336)">
                    <g transform="matrix(1.33333,0,0,0.947162,-652.667,63.2793)">
                        <rect x="1958" y="345.946" width="3" height="4.223" style="fill:rgb(116,115,105);"/>
                    </g>
                    <g transform="matrix(1.33333,0,0,0.947162,-647.667,57.0561)">
                        <rect x="1958" y="345.946" width="3" height="4.223" style="fill:rgb(116,115,105);"/>
                    </g>
                    <g transform="matrix(1.33333,0,0,0.947162,-642.667,62.0561)">
                        <rect x="1958" y="345.946" width="3" height="4.223" style="fill:rgb(116,115,105);"/>
                    </g>
                    <g transform="matrix(1,0,0,1,0,45)">
                        <path d="M1971.41,346.723L1970,348.137L1963.59,341.723L1965,340.309L1971.41,346.723Z" style="fill:rgb(116,115,105);"/>
                    </g>
                    <g transform="matrix(1,0,0,1,0,45)">
                        <path d="M1960.15,349.352L1958.59,348.1L1964.85,340.317L1966.41,341.57L1960.15,349.352Z" style="fill:rgb(116,115,105);"/>
                    </g>
                </g>
                <g transform="matrix(0.960938,0,0,1.58646,-2451.58,1161)">
                    <g transform="matrix(9,0,0,9,2647.02,216.034)">
                    </g>
                    <text x="2591.7px" y="216.034px" style="font-family:'Inter-Regular', 'Inter';font-size:9px;fill:rgb(160,159,147);">Ov<tspan x="2603.46px 2608.71px 2612.24px 2615.76px " y="216.034px 216.034px 216.034px 216.034px ">erri</tspan>de: Of<tspan x="2643.69px " y="216.034px ">f</tspan></text>
                </g>
                <g transform="matrix(0.960938,0,0,1.58646,-2329.54,1161)">
                    <g transform="matrix(9,0,0,9,2647.02,216.034)">
                    </g>
                    <text x="2591.7px" y="216.034px" style="font-family:'Inter-Regular', 'Inter';font-size:9px;fill:rgb(160,159,147);">Ov<tspan x="2603.46px 2608.71px 2612.24px 2615.76px " y="216.034px 216.034px 216.034px 216.034px ">erri</tspan>de: Of<tspan x="2643.69px " y="216.034px ">f</tspan></text>
                </g>
                <g transform="matrix(0.960938,0,0,1.58646,-2207.5,1161)">
                    <g transform="matrix(9,0,0,9,2647.02,216.034)">
                    </g>
                    <text x="2591.7px" y="216.034px" style="font-family:'Inter-Regular', 'Inter';font-size:9px;fill:rgb(160,159,147);">Ov<tspan x="2603.46px 2608.71px 2612.24px 2615.76px " y="216.034px 216.034px 216.034px 216.034px ">erri</tspan>de: Of<tspan x="2643.69px " y="216.034px ">f</tspan></text>
                </g>
            </g>
        </g>
    </g>
</svg>
