<?xml version="1.0" encoding="UTF-8" standalone="no"?>
<!DOCTYPE svg PUBLIC "-//W3C//DTD SVG 1.1//EN" "http://www.w3.org/Graphics/SVG/1.1/DTD/svg11.dtd">
<svg width="100%" height="100%" viewBox="0 0 6 6" version="1.1" xmlns="http://www.w3.org/2000/svg" xmlns:xlink="http://www.w3.org/1999/xlink" xml:space="preserve" xmlns:serif="http://www.serif.com/" style="fill-rule:evenodd;clip-rule:evenodd;stroke-linejoin:round;stroke-miterlimit:2;">
    <g transform="matrix(1,0,0,1,-40,-97)">
        <g transform="matrix(1.13981,0,0,0.894792,0,0)">
            <g id="item_bg" transform="matrix(0.22825,0,0,0.176112,18.424,97.7881)">
                <g id="overlay" transform="matrix(3.84375,0,0,6.34583,-11.5313,-257.006)">
                    <rect x="23" y="51" width="4" height="4" style="fill:rgb(211,208,200);fill-opacity:0.33;"/>
                </g>
                <g transform="matrix(3.84375,0,0,6.34583,-69.1875,-561.606)">
                    <rect x="41" y="99" width="1" height="4" style="fill:rgb(45,45,45);"/>
                </g>
                <g transform="matrix(3.84375,0,0,6.34583,-80.7188,-561.606)">
                    <rect x="41" y="99" width="1" height="4" style="fill:rgb(45,45,45);"/>
                </g>
                <g transform="matrix(3,0,0,3,-22.1016,-239.555)">
                    <rect x="31.711" y="99.947" width="7.688" height="12.692" style="fill:none;"/>
                    <clipPath id="_clip1">
                        <rect x="31.711" y="99.947" width="7.688" height="12.692"/>
                    </clipPath>
                    <g clip-path="url(#_clip1)">
                        <g transform="matrix(1.28125,0,0,2.11528,-10.5703,-33.3156)">
                            <rect x="33" y="63" width="1" height="1" style="fill:rgb(255,255,0);"/>
                        </g>
                        <g transform="matrix(-2.5625,-5.18093e-16,1.56908e-16,-2.11528,122.68,245.901)">
                            <rect x="33" y="63" width="1" height="1" style="fill:rgb(255,0,255);"/>
                        </g>
                        <g transform="matrix(-1.28125,-2.59047e-16,1.56908e-16,-2.11528,81.6797,243.786)">
                            <rect x="33" y="63" width="1" height="1" style="fill:rgb(255,0,255);"/>
                        </g>
                        <g transform="matrix(-2.5625,-5.18093e-16,1.56908e-16,-2.11528,123.961,245.901)">
                            <rect x="33" y="63" width="1" height="1" style="fill:rgb(255,255,0);"/>
                        </g>
                        <g transform="matrix(-1.56908e-16,2.11528,-1.28125,1.35692e-16,114.992,30.1427)">
                            <rect x="33" y="63" width="1" height="1" style="fill:rgb(255,0,255);"/>
                        </g>
                        <g transform="matrix(-1.56908e-16,2.11528,-1.28125,1.35692e-16,113.711,32.258)">
                            <rect x="33" y="63" width="1" height="1" style="fill:rgb(255,0,255);"/>
                        </g>
                    </g>
                </g>
            </g>
        </g>
    </g>
</svg>
