<?xml version="1.0" encoding="UTF-8" standalone="no"?>
<!DOCTYPE svg PUBLIC "-//W3C//DTD SVG 1.1//EN" "http://www.w3.org/Graphics/SVG/1.1/DTD/svg11.dtd">
<svg width="100%" height="100%" viewBox="0 0 42 14" version="1.1" xmlns="http://www.w3.org/2000/svg" xmlns:xlink="http://www.w3.org/1999/xlink" xml:space="preserve" xmlns:serif="http://www.serif.com/" style="fill-rule:evenodd;clip-rule:evenodd;stroke-linejoin:round;stroke-miterlimit:2;">
    <g transform="matrix(1,0,0,1,-827,-1040)">
        <g transform="matrix(1.13981,0,0,0.894792,0,0)">
            <g id="item_env_on" transform="matrix(0.798875,0,0,0.616393,664.143,1121.21)">
                <g transform="matrix(3.29464,0,0,1.81309,-2647.79,-1768.22)">
                    <rect x="827" y="1012" width="14" height="13" style="fill:rgb(102,204,204);"/>
                </g>
                <g transform="matrix(1.14286,0,0,1.14286,-182.304,-42.1544)">
                    <g transform="matrix(1.44141,0,0,2.37969,-1089.22,-1889.47)">
                        <rect x="917" y="836" width="2" height="2" style="fill:rgb(45,45,45);"/>
                    </g>
                    <g transform="matrix(1.44141,0,0,2.37969,-1093.07,-1883.12)">
                        <rect x="917" y="836" width="2" height="2" style="fill:rgb(45,45,45);"/>
                    </g>
                    <g transform="matrix(0.960938,0,0,1.58646,-647.191,-1223.95)">
                        <path d="M913,841.061L911.939,840L917,834.939L918.061,836L913,841.061Z" style="fill:rgb(45,45,45);"/>
                    </g>
                    <g transform="matrix(0.960938,0,0,1.58646,-647.191,-1223.95)">
                        <path d="M915.939,836L917,834.939L921.061,839L920,840.061L915.939,836Z" style="fill:rgb(45,45,45);"/>
                    </g>
                    <g transform="matrix(1.44141,0,0,2.37969,-1086.34,-1884.71)">
                        <rect x="917" y="836" width="2" height="2" style="fill:rgb(45,45,45);"/>
                    </g>
                </g>
                <g transform="matrix(1.14286,0,0,1.14286,-166.929,-42.1544)">
                    <g transform="matrix(1.44141,0,0,2.37969,-1089.22,-1889.47)">
                        <rect x="917" y="836" width="2" height="2" style="fill:rgb(45,45,45);"/>
                    </g>
                    <g transform="matrix(1.44141,0,0,2.37969,-1093.07,-1883.12)">
                        <rect x="917" y="836" width="2" height="2" style="fill:rgb(45,45,45);"/>
                    </g>
                    <g transform="matrix(0.960938,0,0,1.58646,-647.191,-1223.95)">
                        <path d="M913,841.061L911.939,840L917,834.939L918.061,836L913,841.061Z" style="fill:rgb(45,45,45);"/>
                    </g>
                    <g transform="matrix(0.960938,0,0,1.58646,-647.191,-1223.95)">
                        <path d="M915.939,836L917,834.939L921.061,839L920,840.061L915.939,836Z" style="fill:rgb(45,45,45);"/>
                    </g>
                    <g transform="matrix(1.44141,0,0,2.37969,-1086.34,-1884.71)">
                        <rect x="917" y="836" width="2" height="2" style="fill:rgb(45,45,45);"/>
                    </g>
                </g>
                <g transform="matrix(1.14286,0,0,1.14286,-151.554,-42.1544)">
                    <g transform="matrix(1.44141,0,0,2.37969,-1089.22,-1889.47)">
                        <rect x="917" y="836" width="2" height="2" style="fill:rgb(45,45,45);"/>
                    </g>
                    <g transform="matrix(1.44141,0,0,2.37969,-1093.07,-1883.12)">
                        <rect x="917" y="836" width="2" height="2" style="fill:rgb(45,45,45);"/>
                    </g>
                    <g transform="matrix(0.960938,0,0,1.58646,-647.191,-1223.95)">
                        <path d="M913,841.061L911.939,840L917,834.939L918.061,836L913,841.061Z" style="fill:rgb(45,45,45);"/>
                    </g>
                    <g transform="matrix(0.960938,0,0,1.58646,-647.191,-1223.95)">
                        <path d="M915.939,836L917,834.939L921.061,839L920,840.061L915.939,836Z" style="fill:rgb(45,45,45);"/>
                    </g>
                    <g transform="matrix(1.44141,0,0,2.37969,-1086.34,-1884.71)">
                        <rect x="917" y="836" width="2" height="2" style="fill:rgb(45,45,45);"/>
                    </g>
                </g>
                <g>
                    <g transform="matrix(0.0784439,0,0,1.81309,16.9439,-1855.25)">
                        <rect x="946" y="1060" width="14" height="13" style="fill:rgb(45,45,45);"/>
                    </g>
                    <g transform="matrix(0.0784439,0,0,1.81309,2.66709,-1855.25)">
                        <rect x="946" y="1060" width="14" height="13" style="fill:rgb(45,45,45);"/>
                    </g>
                    <g transform="matrix(0.941327,0,0,0.139469,-812.522,-59.4486)">
                        <rect x="946" y="1060" width="14" height="13" style="fill:rgb(45,45,45);"/>
                    </g>
                    <g transform="matrix(0.941327,0,0,0.139469,-812.522,-81.2057)">
                        <rect x="946" y="1060" width="14" height="13" style="fill:rgb(45,45,45);"/>
                    </g>
                </g>
                <g transform="matrix(1,0,0,1,15.375,0)">
                    <g transform="matrix(0.0784439,0,0,1.81309,16.9439,-1855.25)">
                        <rect x="946" y="1060" width="14" height="13" style="fill:rgb(45,45,45);"/>
                    </g>
                    <g transform="matrix(0.0784439,0,0,1.81309,2.66709,-1855.25)">
                        <rect x="946" y="1060" width="14" height="13" style="fill:rgb(45,45,45);"/>
                    </g>
                    <g transform="matrix(0.941327,0,0,0.139469,-812.522,-59.4486)">
                        <rect x="946" y="1060" width="14" height="13" style="fill:rgb(45,45,45);"/>
                    </g>
                    <g transform="matrix(0.941327,0,0,0.139469,-812.522,-81.2057)">
                        <rect x="946" y="1060" width="14" height="13" style="fill:rgb(45,45,45);"/>
                    </g>
                </g>
                <g transform="matrix(1,0,0,1,30.75,0)">
                    <g transform="matrix(0.0784439,0,0,1.81309,16.9439,-1855.25)">
                        <rect x="946" y="1060" width="14" height="13" style="fill:rgb(45,45,45);"/>
                    </g>
                    <g transform="matrix(0.0784439,0,0,1.81309,2.66709,-1855.25)">
                        <rect x="946" y="1060" width="14" height="13" style="fill:rgb(45,45,45);"/>
                    </g>
                    <g transform="matrix(0.941327,0,0,0.139469,-812.522,-59.4486)">
                        <rect x="946" y="1060" width="14" height="13" style="fill:rgb(45,45,45);"/>
                    </g>
                    <g transform="matrix(0.941327,0,0,0.139469,-812.522,-81.2057)">
                        <rect x="946" y="1060" width="14" height="13" style="fill:rgb(45,45,45);"/>
                    </g>
                </g>
            </g>
        </g>
    </g>
</svg>
