<?xml version="1.0" encoding="UTF-8" standalone="no"?>
<!DOCTYPE svg PUBLIC "-//W3C//DTD SVG 1.1//EN" "http://www.w3.org/Graphics/SVG/1.1/DTD/svg11.dtd">
<svg width="100%" height="100%" viewBox="0 0 42 14" version="1.1" xmlns="http://www.w3.org/2000/svg" xmlns:xlink="http://www.w3.org/1999/xlink" xml:space="preserve" xmlns:serif="http://www.serif.com/" style="fill-rule:evenodd;clip-rule:evenodd;stroke-linejoin:round;stroke-miterlimit:2;">
    <g transform="matrix(1,0,0,1,-869,-1082)">
        <g transform="matrix(1.13981,0,0,0.894792,0,0)">
            <g id="item_pooled" transform="matrix(0.798875,0,0,0.616393,700.991,1168.15)">
                <g transform="matrix(3.29464,0,0,1.81309,-2647.79,-1768.22)">
                    <rect x="827" y="1012" width="14" height="13" style="fill:rgb(211,208,200);"/>
                </g>
                <g transform="matrix(0.0494414,-7.72058e-18,-7.72214e-18,0.0816087,78.2376,67.9644)">
                    <path d="M136.37,187.53C138.629,189.781 139.899,192.841 139.899,196.03C139.899,199.219 138.629,202.279 136.37,204.53L130.43,210.47C119.179,221.721 103.902,228.049 87.99,228.049C55.064,228.049 27.971,200.956 27.971,168.03C27.971,152.118 34.299,136.841 45.55,125.59L69.67,101.48C91.994,79.101 128.37,78.005 152,99C154.569,101.284 156.042,104.562 156.042,108C156.042,114.606 150.606,120.042 144,120.042C141.052,120.042 138.204,118.959 136,117C121.83,104.416 100.026,105.065 86.63,118.47L62.53,142.55C55.78,149.3 51.984,158.464 51.984,168.01C51.984,187.762 68.238,204.016 87.99,204.016C97.536,204.016 106.7,200.22 113.45,193.47L119.39,187.53C121.64,185.278 124.696,184.011 127.88,184.011C131.064,184.011 134.12,185.278 136.37,187.53ZM210.45,45.53C187.151,22.286 148.869,22.286 125.57,45.53L119.63,51.47C117.377,53.723 116.109,56.783 116.109,59.97C116.109,66.564 121.536,71.991 128.13,71.991C131.317,71.991 134.377,70.723 136.63,68.47L142.57,62.53C149.32,55.78 158.484,51.984 168.03,51.984C187.782,51.984 204.036,68.238 204.036,87.99C204.036,97.536 200.24,106.7 193.49,113.45L169.38,137.57C155.972,150.97 134.161,151.601 120,139C117.796,137.041 114.948,135.958 112,135.958C105.394,135.958 99.958,141.394 99.958,148C99.958,151.438 101.431,154.716 104,157C127.613,177.99 163.966,176.916 186.3,154.57L210.42,130.46C233.692,107.166 233.705,68.86 210.45,45.55L210.45,45.53Z" style="fill:rgb(45,45,45);fill-rule:nonzero;"/>
                </g>
                <g transform="matrix(0.0494414,-7.72058e-18,-7.72214e-18,0.0816087,93.6126,67.9644)">
                    <path d="M136.37,187.53C138.629,189.781 139.899,192.841 139.899,196.03C139.899,199.219 138.629,202.279 136.37,204.53L130.43,210.47C119.179,221.721 103.902,228.049 87.99,228.049C55.064,228.049 27.971,200.956 27.971,168.03C27.971,152.118 34.299,136.841 45.55,125.59L69.67,101.48C91.994,79.101 128.37,78.005 152,99C154.569,101.284 156.042,104.562 156.042,108C156.042,114.606 150.606,120.042 144,120.042C141.052,120.042 138.204,118.959 136,117C121.83,104.416 100.026,105.065 86.63,118.47L62.53,142.55C55.78,149.3 51.984,158.464 51.984,168.01C51.984,187.762 68.238,204.016 87.99,204.016C97.536,204.016 106.7,200.22 113.45,193.47L119.39,187.53C121.64,185.278 124.696,184.011 127.88,184.011C131.064,184.011 134.12,185.278 136.37,187.53ZM210.45,45.53C187.151,22.286 148.869,22.286 125.57,45.53L119.63,51.47C117.377,53.723 116.109,56.783 116.109,59.97C116.109,66.564 121.536,71.991 128.13,71.991C131.317,71.991 134.377,70.723 136.63,68.47L142.57,62.53C149.32,55.78 158.484,51.984 168.03,51.984C187.782,51.984 204.036,68.238 204.036,87.99C204.036,97.536 200.24,106.7 193.49,113.45L169.38,137.57C155.972,150.97 134.161,151.601 120,139C117.796,137.041 114.948,135.958 112,135.958C105.394,135.958 99.958,141.394 99.958,148C99.958,151.438 101.431,154.716 104,157C127.613,177.99 163.966,176.916 186.3,154.57L210.42,130.46C233.692,107.166 233.705,68.86 210.45,45.55L210.45,45.53Z" style="fill:rgb(45,45,45);fill-rule:nonzero;"/>
                </g>
                <g transform="matrix(0.0494414,-7.72058e-18,-7.72214e-18,0.0816087,108.988,67.9644)">
                    <path d="M136.37,187.53C138.629,189.781 139.899,192.841 139.899,196.03C139.899,199.219 138.629,202.279 136.37,204.53L130.43,210.47C119.179,221.721 103.902,228.049 87.99,228.049C55.064,228.049 27.971,200.956 27.971,168.03C27.971,152.118 34.299,136.841 45.55,125.59L69.67,101.48C91.994,79.101 128.37,78.005 152,99C154.569,101.284 156.042,104.562 156.042,108C156.042,114.606 150.606,120.042 144,120.042C141.052,120.042 138.204,118.959 136,117C121.83,104.416 100.026,105.065 86.63,118.47L62.53,142.55C55.78,149.3 51.984,158.464 51.984,168.01C51.984,187.762 68.238,204.016 87.99,204.016C97.536,204.016 106.7,200.22 113.45,193.47L119.39,187.53C121.64,185.278 124.696,184.011 127.88,184.011C131.064,184.011 134.12,185.278 136.37,187.53ZM210.45,45.53C187.151,22.286 148.869,22.286 125.57,45.53L119.63,51.47C117.377,53.723 116.109,56.783 116.109,59.97C116.109,66.564 121.536,71.991 128.13,71.991C131.317,71.991 134.377,70.723 136.63,68.47L142.57,62.53C149.32,55.78 158.484,51.984 168.03,51.984C187.782,51.984 204.036,68.238 204.036,87.99C204.036,97.536 200.24,106.7 193.49,113.45L169.38,137.57C155.972,150.97 134.161,151.601 120,139C117.796,137.041 114.948,135.958 112,135.958C105.394,135.958 99.958,141.394 99.958,148C99.958,151.438 101.431,154.716 104,157C127.613,177.99 163.966,176.916 186.3,154.57L210.42,130.46C233.692,107.166 233.705,68.86 210.45,45.55L210.45,45.53Z" style="fill:rgb(45,45,45);fill-rule:nonzero;"/>
                </g>
                <g>
                    <g transform="matrix(0.0784439,0,0,1.81309,16.9439,-1855.25)">
                        <rect x="946" y="1060" width="14" height="13" style="fill:rgb(45,45,45);"/>
                    </g>
                    <g transform="matrix(0.0784439,0,0,1.81309,2.66709,-1855.25)">
                        <rect x="946" y="1060" width="14" height="13" style="fill:rgb(45,45,45);"/>
                    </g>
                    <g transform="matrix(0.941327,0,0,0.139469,-812.522,-59.4486)">
                        <rect x="946" y="1060" width="14" height="13" style="fill:rgb(45,45,45);"/>
                    </g>
                    <g transform="matrix(0.941327,0,0,0.139469,-812.522,-81.2057)">
                        <rect x="946" y="1060" width="14" height="13" style="fill:rgb(45,45,45);"/>
                    </g>
                </g>
                <g transform="matrix(1,0,0,1,15.375,0)">
                    <g transform="matrix(0.0784439,0,0,1.81309,16.9439,-1855.25)">
                        <rect x="946" y="1060" width="14" height="13" style="fill:rgb(45,45,45);"/>
                    </g>
                    <g transform="matrix(0.0784439,0,0,1.81309,2.66709,-1855.25)">
                        <rect x="946" y="1060" width="14" height="13" style="fill:rgb(45,45,45);"/>
                    </g>
                    <g transform="matrix(0.941327,0,0,0.139469,-812.522,-59.4486)">
                        <rect x="946" y="1060" width="14" height="13" style="fill:rgb(45,45,45);"/>
                    </g>
                    <g transform="matrix(0.941327,0,0,0.139469,-812.522,-81.2057)">
                        <rect x="946" y="1060" width="14" height="13" style="fill:rgb(45,45,45);"/>
                    </g>
                </g>
                <g transform="matrix(1,0,0,1,30.75,0)">
                    <g transform="matrix(0.0784439,0,0,1.81309,16.9439,-1855.25)">
                        <rect x="946" y="1060" width="14" height="13" style="fill:rgb(45,45,45);"/>
                    </g>
                    <g transform="matrix(0.0784439,0,0,1.81309,2.66709,-1855.25)">
                        <rect x="946" y="1060" width="14" height="13" style="fill:rgb(45,45,45);"/>
                    </g>
                    <g transform="matrix(0.941327,0,0,0.139469,-812.522,-59.4486)">
                        <rect x="946" y="1060" width="14" height="13" style="fill:rgb(45,45,45);"/>
                    </g>
                    <g transform="matrix(0.941327,0,0,0.139469,-812.522,-81.2057)">
                        <rect x="946" y="1060" width="14" height="13" style="fill:rgb(45,45,45);"/>
                    </g>
                </g>
            </g>
        </g>
    </g>
</svg>
