<?xml version="1.0" encoding="UTF-8" standalone="no"?>
<!DOCTYPE svg PUBLIC "-//W3C//DTD SVG 1.1//EN" "http://www.w3.org/Graphics/SVG/1.1/DTD/svg11.dtd">
<svg width="100%" height="100%" viewBox="0 0 12 10" version="1.1" xmlns="http://www.w3.org/2000/svg" xmlns:xlink="http://www.w3.org/1999/xlink" xml:space="preserve" xmlns:serif="http://www.serif.com/" style="fill-rule:evenodd;clip-rule:evenodd;stroke-linejoin:round;stroke-miterlimit:2;">
    <g transform="matrix(1,0,0,1,-49,-96)">
        <g transform="matrix(1.13981,0,0,0.894792,0,0)">
            <g id="item_bg_sel" transform="matrix(0.913,0,0,0.704449,-27.1974,60.3492)">
                <g id="overlay" transform="matrix(0.960938,0,0,1.58646,57.6563,-9.51874)">
                    <rect x="23" y="51" width="4" height="4" style="fill:rgb(211,208,200);fill-opacity:0.31;"/>
                </g>
                <g transform="matrix(1.5,0,0,1.25,29.3086,-58.3023)">
                    <rect x="31.711" y="99.947" width="7.688" height="12.692" style="fill:none;"/>
                    <clipPath id="_clip1">
                        <rect x="31.711" y="99.947" width="7.688" height="12.692"/>
                    </clipPath>
                    <g clip-path="url(#_clip1)">
                        <g transform="matrix(3.20313,0,0,1.26917,-73.9922,19.9894)">
                            <rect x="33" y="63" width="1" height="1" style="fill:rgb(255,0,255);"/>
                        </g>
                        <g transform="matrix(-3.20313,-7.7714e-16,7.84539e-17,-1.26917,145.102,192.596)">
                            <rect x="33" y="63" width="1" height="1" style="fill:rgb(255,0,255);"/>
                        </g>
                        <g transform="matrix(3.9227e-17,5.07666,-0.640625,9.25191e-17,72.7109,-67.5831)">
                            <rect x="33" y="63" width="1" height="1" style="fill:rgb(255,0,255);"/>
                        </g>
                        <g transform="matrix(-7.84539e-17,1.26917,-0.640625,8.14153e-17,72.7109,58.0643)">
                            <rect x="33" y="63" width="1" height="1" style="fill:rgb(255,255,0);"/>
                        </g>
                        <g transform="matrix(2.74589e-16,-5.07666,0.640625,6.29088e-17,-1.60156,280.168)">
                            <rect x="33" y="63" width="1" height="1" style="fill:rgb(255,0,255);"/>
                        </g>
                        <g transform="matrix(-1.28125,-3.10856e-16,7.84539e-17,-1.26917,81.6797,192.596)">
                            <rect x="33" y="63" width="1" height="1" style="fill:rgb(255,255,0);"/>
                        </g>
                    </g>
                </g>
                <g transform="matrix(1,0,0,1,0.960938,0)">
                    <g transform="matrix(2.5625,0,0,2.37969,-4.16406,-48.3869)">
                        <rect x="32" y="49" width="3" height="2" style="fill:white;"/>
                    </g>
                    <g transform="matrix(1.56908e-16,4.23055,-1.44141,1.45714e-16,156.152,-67.16)">
                        <rect x="32" y="49" width="3" height="2" style="fill:white;"/>
                    </g>
                    <g transform="matrix(2.5625,0,0,2.37969,-4.16406,-40.4547)">
                        <rect x="32" y="49" width="3" height="2" style="fill:white;"/>
                    </g>
                    <g transform="matrix(1.56908e-16,4.23055,-1.44141,1.45714e-16,151.348,-67.16)">
                        <rect x="32" y="49" width="3" height="2" style="fill:white;"/>
                    </g>
                </g>
                <g transform="matrix(0.960938,0,0,3.17291,47.0859,-245.901)">
                    <rect x="41" y="99" width="1" height="4" style="fill:rgb(45,45,45);"/>
                </g>
                <g transform="matrix(0.960938,0,0,3.17291,38.4375,-245.901)">
                    <rect x="41" y="99" width="1" height="4" style="fill:rgb(45,45,45);"/>
                </g>
            </g>
        </g>
    </g>
</svg>
