<?xml version="1.0" encoding="UTF-8" standalone="no"?>
<!DOCTYPE svg PUBLIC "-//W3C//DTD SVG 1.1//EN" "http://www.w3.org/Graphics/SVG/1.1/DTD/svg11.dtd">
<svg width="100%" height="100%" viewBox="0 0 42 14" version="1.1" xmlns="http://www.w3.org/2000/svg" xmlns:xlink="http://www.w3.org/1999/xlink" xml:space="preserve" xmlns:serif="http://www.serif.com/" style="fill-rule:evenodd;clip-rule:evenodd;stroke-linejoin:round;stroke-miterlimit:2;">
    <g transform="matrix(1,0,0,1,-869,-1012)">
        <g transform="matrix(1.13981,0,0,0.894792,0,0)">
            <g id="item_lock_off" transform="matrix(0.798875,0,0,0.616393,700.991,1089.92)">
                <g transform="matrix(3.29464,0,0,1.81309,-2647.79,-1768.22)">
                    <rect x="827" y="1012" width="14" height="13" style="fill:rgb(211,208,200);"/>
                </g>
                <g>
                    <g transform="matrix(1.46429,0,0,2.26637,-1136.65,-2229.65)">
                        <rect x="831" y="1018" width="6" height="4" style="fill:rgb(45,45,45);"/>
                    </g>
                    <g transform="matrix(1.31786,0,0,2.41746,-1015.19,-2381.05)">
                        <path d="M837,1015.72L837,1018.28C837,1019.23 836.145,1020 835.091,1020L833.909,1020C832.855,1020 832,1019.23 832,1018.28L832,1015.72C832,1014.77 832.855,1014 833.909,1014L835.091,1014C836.145,1014 837,1014.77 837,1015.72ZM836.167,1015.72C836.167,1015.18 835.685,1014.75 835.091,1014.75L833.909,1014.75C833.315,1014.75 832.833,1015.18 832.833,1015.72L832.833,1018.28C832.833,1018.82 833.315,1019.25 833.909,1019.25L835.091,1019.25C835.685,1019.25 836.167,1018.82 836.167,1018.28L836.167,1015.72Z" style="fill:rgb(45,45,45);"/>
                    </g>
                </g>
                <g transform="matrix(1,0,0,1,15.375,0)">
                    <g transform="matrix(1.46429,0,0,2.26637,-1136.65,-2229.65)">
                        <rect x="831" y="1018" width="6" height="4" style="fill:rgb(45,45,45);"/>
                    </g>
                    <g transform="matrix(1.31786,0,0,2.41746,-1015.19,-2381.05)">
                        <path d="M837,1015.72L837,1018.28C837,1019.23 836.145,1020 835.091,1020L833.909,1020C832.855,1020 832,1019.23 832,1018.28L832,1015.72C832,1014.77 832.855,1014 833.909,1014L835.091,1014C836.145,1014 837,1014.77 837,1015.72ZM836.167,1015.72C836.167,1015.18 835.685,1014.75 835.091,1014.75L833.909,1014.75C833.315,1014.75 832.833,1015.18 832.833,1015.72L832.833,1018.28C832.833,1018.82 833.315,1019.25 833.909,1019.25L835.091,1019.25C835.685,1019.25 836.167,1018.82 836.167,1018.28L836.167,1015.72Z" style="fill:rgb(45,45,45);"/>
                    </g>
                </g>
                <g transform="matrix(1,0,0,1,30.75,0)">
                    <g transform="matrix(1.46429,0,0,2.26637,-1136.65,-2229.65)">
                        <rect x="831" y="1018" width="6" height="4" style="fill:rgb(45,45,45);"/>
                    </g>
                    <g transform="matrix(1.31786,0,0,2.41746,-1015.19,-2381.05)">
                        <path d="M837,1015.72L837,1018.28C837,1019.23 836.145,1020 835.091,1020L833.909,1020C832.855,1020 832,1019.23 832,1018.28L832,1015.72C832,1014.77 832.855,1014 833.909,1014L835.091,1014C836.145,1014 837,1014.77 837,1015.72ZM836.167,1015.72C836.167,1015.18 835.685,1014.75 835.091,1014.75L833.909,1014.75C833.315,1014.75 832.833,1015.18 832.833,1015.72L832.833,1018.28C832.833,1018.82 833.315,1019.25 833.909,1019.25L835.091,1019.25C835.685,1019.25 836.167,1018.82 836.167,1018.28L836.167,1015.72Z" style="fill:rgb(45,45,45);"/>
                    </g>
                </g>
                <g>
                    <g transform="matrix(0.0784439,0,0,1.81309,16.9439,-1855.25)">
                        <rect x="946" y="1060" width="14" height="13" style="fill:rgb(45,45,45);"/>
                    </g>
                    <g transform="matrix(0.0784439,0,0,1.81309,2.66709,-1855.25)">
                        <rect x="946" y="1060" width="14" height="13" style="fill:rgb(45,45,45);"/>
                    </g>
                    <g transform="matrix(0.941327,0,0,0.139469,-812.522,-59.4486)">
                        <rect x="946" y="1060" width="14" height="13" style="fill:rgb(45,45,45);"/>
                    </g>
                    <g transform="matrix(0.941327,0,0,0.139469,-812.522,-81.2057)">
                        <rect x="946" y="1060" width="14" height="13" style="fill:rgb(45,45,45);"/>
                    </g>
                </g>
                <g transform="matrix(1,0,0,1,15.375,0)">
                    <g transform="matrix(0.0784439,0,0,1.81309,16.9439,-1855.25)">
                        <rect x="946" y="1060" width="14" height="13" style="fill:rgb(45,45,45);"/>
                    </g>
                    <g transform="matrix(0.0784439,0,0,1.81309,2.66709,-1855.25)">
                        <rect x="946" y="1060" width="14" height="13" style="fill:rgb(45,45,45);"/>
                    </g>
                    <g transform="matrix(0.941327,0,0,0.139469,-812.522,-59.4486)">
                        <rect x="946" y="1060" width="14" height="13" style="fill:rgb(45,45,45);"/>
                    </g>
                    <g transform="matrix(0.941327,0,0,0.139469,-812.522,-81.2057)">
                        <rect x="946" y="1060" width="14" height="13" style="fill:rgb(45,45,45);"/>
                    </g>
                </g>
                <g transform="matrix(1,0,0,1,30.75,0)">
                    <g transform="matrix(0.0784439,0,0,1.81309,16.9439,-1855.25)">
                        <rect x="946" y="1060" width="14" height="13" style="fill:rgb(45,45,45);"/>
                    </g>
                    <g transform="matrix(0.0784439,0,0,1.81309,2.66709,-1855.25)">
                        <rect x="946" y="1060" width="14" height="13" style="fill:rgb(45,45,45);"/>
                    </g>
                    <g transform="matrix(0.941327,0,0,0.139469,-812.522,-59.4486)">
                        <rect x="946" y="1060" width="14" height="13" style="fill:rgb(45,45,45);"/>
                    </g>
                    <g transform="matrix(0.941327,0,0,0.139469,-812.522,-81.2057)">
                        <rect x="946" y="1060" width="14" height="13" style="fill:rgb(45,45,45);"/>
                    </g>
                </g>
            </g>
        </g>
    </g>
</svg>
