<?xml version="1.0" encoding="UTF-8" standalone="no"?>
<!DOCTYPE svg PUBLIC "-//W3C//DTD SVG 1.1//EN" "http://www.w3.org/Graphics/SVG/1.1/DTD/svg11.dtd">
<svg width="100%" height="100%" viewBox="0 0 42 14" version="1.1" xmlns="http://www.w3.org/2000/svg" xmlns:xlink="http://www.w3.org/1999/xlink" xml:space="preserve" xmlns:serif="http://www.serif.com/" style="fill-rule:evenodd;clip-rule:evenodd;stroke-linejoin:round;stroke-miterlimit:2;">
    <g transform="matrix(1,0,0,1,-827,-1096)">
        <g transform="matrix(1.13981,0,0,0.894792,0,0)">
            <g id="item_props_on" transform="matrix(0.798875,0,0,0.616393,664.143,1183.8)">
                <g transform="matrix(3.29464,0,0,1.81309,-2647.79,-1768.22)">
                    <rect x="827" y="1012" width="14" height="13" style="fill:rgb(210,123,83);"/>
                </g>
                <g transform="matrix(1.29821,0,0,1.66619,-2118.97,-463.299)">
                    <g transform="matrix(0.777404,0,0,1,377.543,0)">
                        <g transform="matrix(10,0,0,10,1699.42,328.932)">
                        </g>
                        <text x="1696.09px" y="328.932px" style="font-family:'Arial-Black', 'Arial', sans-serif;font-weight:900;font-size:10px;fill:rgb(45,45,45);">i</text>
                    </g>
                </g>
                <g transform="matrix(1.29821,0,0,1.66619,-2103.59,-463.299)">
                    <g transform="matrix(0.777404,0,0,1,377.543,0)">
                        <g transform="matrix(10,0,0,10,1699.42,328.932)">
                        </g>
                        <text x="1696.09px" y="328.932px" style="font-family:'Arial-Black', 'Arial', sans-serif;font-weight:900;font-size:10px;fill:rgb(45,45,45);">i</text>
                    </g>
                </g>
                <g transform="matrix(1.29821,0,0,1.66619,-2088.22,-463.299)">
                    <g transform="matrix(0.777404,0,0,1,377.543,0)">
                        <g transform="matrix(10,0,0,10,1699.42,328.932)">
                        </g>
                        <text x="1696.09px" y="328.932px" style="font-family:'Arial-Black', 'Arial', sans-serif;font-weight:900;font-size:10px;fill:rgb(45,45,45);">i</text>
                    </g>
                </g>
                <g>
                    <g transform="matrix(0.0784439,0,0,1.81309,16.9439,-1855.25)">
                        <rect x="946" y="1060" width="14" height="13" style="fill:rgb(45,45,45);"/>
                    </g>
                    <g transform="matrix(0.0784439,0,0,1.81309,2.66709,-1855.25)">
                        <rect x="946" y="1060" width="14" height="13" style="fill:rgb(45,45,45);"/>
                    </g>
                    <g transform="matrix(0.941327,0,0,0.139469,-812.522,-59.4486)">
                        <rect x="946" y="1060" width="14" height="13" style="fill:rgb(45,45,45);"/>
                    </g>
                    <g transform="matrix(0.941327,0,0,0.139469,-812.522,-81.2057)">
                        <rect x="946" y="1060" width="14" height="13" style="fill:rgb(45,45,45);"/>
                    </g>
                </g>
                <g transform="matrix(1,0,0,1,15.375,0)">
                    <g transform="matrix(0.0784439,0,0,1.81309,16.9439,-1855.25)">
                        <rect x="946" y="1060" width="14" height="13" style="fill:rgb(45,45,45);"/>
                    </g>
                    <g transform="matrix(0.0784439,0,0,1.81309,2.66709,-1855.25)">
                        <rect x="946" y="1060" width="14" height="13" style="fill:rgb(45,45,45);"/>
                    </g>
                    <g transform="matrix(0.941327,0,0,0.139469,-812.522,-59.4486)">
                        <rect x="946" y="1060" width="14" height="13" style="fill:rgb(45,45,45);"/>
                    </g>
                    <g transform="matrix(0.941327,0,0,0.139469,-812.522,-81.2057)">
                        <rect x="946" y="1060" width="14" height="13" style="fill:rgb(45,45,45);"/>
                    </g>
                </g>
                <g transform="matrix(1,0,0,1,30.75,0)">
                    <g transform="matrix(0.0784439,0,0,1.81309,16.9439,-1855.25)">
                        <rect x="946" y="1060" width="14" height="13" style="fill:rgb(45,45,45);"/>
                    </g>
                    <g transform="matrix(0.0784439,0,0,1.81309,2.66709,-1855.25)">
                        <rect x="946" y="1060" width="14" height="13" style="fill:rgb(45,45,45);"/>
                    </g>
                    <g transform="matrix(0.941327,0,0,0.139469,-812.522,-59.4486)">
                        <rect x="946" y="1060" width="14" height="13" style="fill:rgb(45,45,45);"/>
                    </g>
                    <g transform="matrix(0.941327,0,0,0.139469,-812.522,-81.2057)">
                        <rect x="946" y="1060" width="14" height="13" style="fill:rgb(45,45,45);"/>
                    </g>
                </g>
            </g>
        </g>
    </g>
</svg>
