<?xml version="1.0" encoding="UTF-8" standalone="no"?>
<!DOCTYPE svg PUBLIC "-//W3C//DTD SVG 1.1//EN" "http://www.w3.org/Graphics/SVG/1.1/DTD/svg11.dtd">
<svg width="100%" height="100%" viewBox="0 0 12 35" version="1.1" xmlns="http://www.w3.org/2000/svg" xmlns:xlink="http://www.w3.org/1999/xlink" xml:space="preserve" xmlns:serif="http://www.serif.com/" style="fill-rule:evenodd;clip-rule:evenodd;stroke-linejoin:round;stroke-miterlimit:2;">
    <g transform="matrix(1,0,0,1,-490,-589)">
        <g transform="matrix(1.13981,0,0,0.894792,0,0)">
            <g id="mcp_fxparm_empty" transform="matrix(2.74464,0,0,4.2353,-10532.8,-11359.8)">
                <g id="pink-frame" serif:id="pink frame" transform="matrix(0.5,0,0,1.45833,1995.03,-1267.09)">
                    <rect x="3998.37" y="2814.64" width="7.672" height="6.333" style="fill:none;"/>
                    <clipPath id="_clip1">
                        <rect x="3998.37" y="2814.64" width="7.672" height="6.333"/>
                    </clipPath>
                    <g clip-path="url(#_clip1)">
                        <g transform="matrix(0.639308,0,0,0.0603137,2614.27,2693.41)">
                            <rect x="2165" y="2010" width="1" height="3" style="fill:rgb(255,0,255);"/>
                        </g>
                        <g transform="matrix(0.639308,0,0,0.663451,2621.3,1485.45)">
                            <rect x="2165" y="2010" width="1" height="3" style="fill:rgb(255,0,255);"/>
                        </g>
                        <g transform="matrix(0.639308,0,0,0.0603137,2614.27,2693.41)">
                            <rect x="2165" y="2010" width="1" height="3" style="fill:rgb(255,0,255);"/>
                        </g>
                        <g transform="matrix(5.11447,0,0,0.0603137,-7071.89,2699.56)">
                            <rect x="2165" y="2010" width="1" height="3" style="fill:rgb(255,0,255);"/>
                        </g>
                    </g>
                </g>
                <g id="mcp-fx-bg" serif:id="mcp fx bg" transform="matrix(1,0,0,1,-3.5162,0.263873)">
                    <g id="render-bounds" serif:id="render bounds">
                    </g>
                    <g transform="matrix(0.355171,0,0,2.9026,3228.4,-3080.8)">
                        <rect x="2167" y="2041" width="9" height="1" style="fill:rgb(30,30,30);"/>
                    </g>
                    <g transform="matrix(0.355171,0,0,2.9026,3228.4,-3083.7)">
                        <rect x="2167" y="2041" width="9" height="1" style="fill:rgb(57,57,57);"/>
                    </g>
                </g>
                <g transform="matrix(0.332648,0,0,0.166328,3952.66,2741.55)">
                    <g transform="matrix(0.960938,0,0,1.58646,2.73115e-14,-1.58646)">
                        <rect x="134" y="394" width="5" height="1" style="fill:rgb(116,115,105);"/>
                    </g>
                    <g transform="matrix(5.88405e-17,1.58646,-0.960938,9.71425e-17,510.258,407.719)">
                        <rect x="134" y="394" width="5" height="1" style="fill:rgb(116,115,105);"/>
                    </g>
                </g>
                <g transform="matrix(0.332648,0,0,0.166328,3952.66,2738.65)">
                    <g transform="matrix(0.960938,0,0,1.58646,2.73115e-14,-1.58646)">
                        <rect x="134" y="394" width="5" height="1" style="fill:rgb(211,208,200);"/>
                    </g>
                    <g transform="matrix(5.88405e-17,1.58646,-0.960938,9.71425e-17,510.258,407.719)">
                        <rect x="134" y="394" width="5" height="1" style="fill:rgb(211,208,200);"/>
                    </g>
                </g>
            </g>
        </g>
    </g>
</svg>
