<?xml version="1.0" encoding="UTF-8" standalone="no"?>
<!DOCTYPE svg PUBLIC "-//W3C//DTD SVG 1.1//EN" "http://www.w3.org/Graphics/SVG/1.1/DTD/svg11.dtd">
<svg width="100%" height="100%" viewBox="0 0 18 16" version="1.1" xmlns="http://www.w3.org/2000/svg" xmlns:xlink="http://www.w3.org/1999/xlink" xml:space="preserve" xmlns:serif="http://www.serif.com/" style="fill-rule:evenodd;clip-rule:evenodd;stroke-linejoin:round;stroke-miterlimit:2;">
    <g transform="matrix(1,0,0,1,-324,-666)">
        <g transform="matrix(1.13981,0,0,0.894792,0,0)">
            <g id="mcp_panbg" transform="matrix(0.114125,0,0,0.0880562,274.606,731.735)">
                <g transform="matrix(4.73077,0,0,3.62619,-9220.27,-5376.28)">
                    <rect x="1975" y="1550" width="13" height="7" style="fill-opacity:0.15;"/>
                </g>
                <g transform="matrix(18,0,0,16,-486.234,-1456.37)">
                    <rect x="31.711" y="99.947" width="7.688" height="12.692" style="fill:none;"/>
                    <clipPath id="_clip1">
                        <rect x="31.711" y="99.947" width="7.688" height="12.692"/>
                    </clipPath>
                    <g clip-path="url(#_clip1)">
                        <g transform="matrix(3.41667,0,0,0.793229,-81.0391,49.9734)">
                            <rect x="33" y="63" width="1" height="1" style="fill:rgb(255,0,255);"/>
                        </g>
                        <g transform="matrix(-3.84375,-8.74282e-16,5.23026e-17,-0.793229,166.242,162.612)">
                            <rect x="33" y="63" width="1" height="1" style="fill:rgb(255,0,255);"/>
                        </g>
                        <g transform="matrix(-9.45146e-16,11.1052,-0.427083,2.37067e-15,59.0443,-266.525)">
                            <rect x="33" y="63" width="1" height="1" style="fill:rgb(255,0,255);"/>
                        </g>
                        <g transform="matrix(1.04605e-16,-0.793229,0.427083,4.62579e-17,12.0651,138.815)">
                            <rect x="33" y="63" width="1" height="1" style="fill:rgb(255,0,255);"/>
                        </g>
                    </g>
                </g>
            </g>
        </g>
    </g>
</svg>
