<?xml version="1.0" encoding="UTF-8" standalone="no"?>
<!DOCTYPE svg PUBLIC "-//W3C//DTD SVG 1.1//EN" "http://www.w3.org/Graphics/SVG/1.1/DTD/svg11.dtd">
<svg width="100%" height="100%" viewBox="0 0 33 11" version="1.1" xmlns="http://www.w3.org/2000/svg" xmlns:xlink="http://www.w3.org/1999/xlink" xml:space="preserve" xmlns:serif="http://www.serif.com/" style="fill-rule:evenodd;clip-rule:evenodd;stroke-linejoin:round;stroke-miterlimit:2;">
    <g transform="matrix(1,0,0,1,-299,-792)">
        <g transform="matrix(1.13981,0,0,0.894792,0,0)">
            <g id="mcp_folder_last" transform="matrix(0.877335,0,0,1.11758,144.76,-2695.6)">
                <g id="is-end" serif:id="is end" transform="matrix(1.80977e-16,-2.95558,2.49232,1.52611e-16,-2560.8,15014.1)">
                    <g opacity="0.38">
                        <g transform="matrix(0.338343,0,0,0.200616,3824.65,747.617)">
                            <rect x="497" y="1671" width="7" height="2" style="fill:rgb(242,240,236);"/>
                        </g>
                        <g transform="matrix(0.435012,0,0,0.200616,3776.26,748.821)">
                            <rect x="497" y="1671" width="7" height="2" style="fill:rgb(242,240,236);"/>
                        </g>
                    </g>
                </g>
                <g id="is-end1" serif:id="is end" transform="matrix(1.80977e-16,-2.95558,2.49232,1.52611e-16,-2549.8,15014.1)">
                    <g opacity="0.38">
                        <g transform="matrix(0.338343,0,0,0.200616,3824.65,747.617)">
                            <rect x="497" y="1671" width="7" height="2" style="fill:rgb(242,240,236);"/>
                        </g>
                        <g transform="matrix(0.435012,0,0,0.200616,3776.26,748.821)">
                            <rect x="497" y="1671" width="7" height="2" style="fill:rgb(242,240,236);"/>
                        </g>
                    </g>
                </g>
                <g id="is-end2" serif:id="is end" transform="matrix(1.80977e-16,-2.95558,2.49232,1.52611e-16,-2538.8,15014.1)">
                    <g opacity="0.38">
                        <g transform="matrix(0.338343,0,0,0.200616,3824.65,747.617)">
                            <rect x="497" y="1671" width="7" height="2" style="fill:rgb(242,240,236);"/>
                        </g>
                        <g transform="matrix(0.435012,0,0,0.200616,3776.26,748.821)">
                            <rect x="497" y="1671" width="7" height="2" style="fill:rgb(242,240,236);"/>
                        </g>
                    </g>
                </g>
            </g>
        </g>
    </g>
</svg>
