<?xml version="1.0" encoding="UTF-8" standalone="no"?>
<!DOCTYPE svg PUBLIC "-//W3C//DTD SVG 1.1//EN" "http://www.w3.org/Graphics/SVG/1.1/DTD/svg11.dtd">
<svg width="100%" height="100%" viewBox="0 0 20 6" version="1.1" xmlns="http://www.w3.org/2000/svg" xmlns:xlink="http://www.w3.org/1999/xlink" xml:space="preserve" xmlns:serif="http://www.serif.com/" style="fill-rule:evenodd;clip-rule:evenodd;stroke-linejoin:round;stroke-miterlimit:2;">
    <g transform="matrix(1,0,0,1,-765,-581)">
        <g transform="matrix(1.13981,0,0,0.894792,0,0)">
            <g id="mcp_fxparm_bg" transform="matrix(3.02193,0,0,2.35005,-7516.13,-7379.26)">
                <g>
                    <g transform="matrix(1.74194,0,0,0.475556,-2476.16,1420.91)">
                        <rect x="2977" y="4196" width="1" height="1" style="fill:rgb(255,0,255);"/>
                    </g>
                    <g transform="matrix(0.290323,0,0,0.475556,1845,1420.91)">
                        <rect x="2977" y="4196" width="1" height="1" style="fill:rgb(255,255,0);"/>
                    </g>
                </g>
                <g transform="matrix(1,0,0,1,1.16129,0)">
                    <g transform="matrix(0.290323,0,0,0.951111,1849.35,-572.615)">
                        <rect x="2977" y="4196" width="1" height="1" style="fill:rgb(255,255,0);"/>
                    </g>
                    <g transform="matrix(3.55543e-17,0.951111,-0.290323,2.91194e-17,3932.13,585.839)">
                        <rect x="2977" y="4196" width="1" height="1" style="fill:rgb(255,0,255);"/>
                    </g>
                    <g transform="matrix(1.45161,0,0,0.475556,-1609.26,1423.29)">
                        <rect x="2977" y="4196" width="1" height="1" style="fill:rgb(255,0,255);"/>
                    </g>
                </g>
                <g transform="matrix(2.03226,0,0,0.475556,-3338.71,1422.82)">
                    <rect x="2977" y="4196" width="1" height="1" style="fill:rgb(57,57,57);"/>
                </g>
            </g>
        </g>
    </g>
</svg>
