<?xml version="1.0" encoding="UTF-8" standalone="no"?>
<!DOCTYPE svg PUBLIC "-//W3C//DTD SVG 1.1//EN" "http://www.w3.org/Graphics/SVG/1.1/DTD/svg11.dtd">
<svg width="100%" height="100%" viewBox="0 0 33 11" version="1.1" xmlns="http://www.w3.org/2000/svg" xmlns:xlink="http://www.w3.org/1999/xlink" xml:space="preserve" xmlns:serif="http://www.serif.com/" style="fill-rule:evenodd;clip-rule:evenodd;stroke-linejoin:round;stroke-miterlimit:2;">
    <g transform="matrix(1,0,0,1,-299,-781)">
        <g transform="matrix(1.13981,0,0,0.894792,0,0)">
            <g id="mcp_fcomp_off" transform="matrix(0.877335,0,0,1.11758,144.76,-2707.89)">
                <g opacity="0.38">
                    <g transform="matrix(1.125,0,0,1.125,-22.5,-404)">
                        <path d="M148,3208L148,3216L140,3216L140,3208L148,3208ZM147.111,3208.89L140.889,3208.89L140.889,3215.11L147.111,3215.11L147.111,3208.89Z" style="fill:rgb(242,240,236);"/>
                    </g>
                    <g transform="matrix(1.25,0,0,1,-40.5,-2)">
                        <rect x="142" y="3211" width="4" height="1" style="fill:rgb(242,240,236);"/>
                    </g>
                </g>
                <g transform="matrix(1,0,0,1,11,0)">
                    <g opacity="0.38">
                        <g transform="matrix(1.125,0,0,1.125,-22.5,-404)">
                            <path d="M148,3208L148,3216L140,3216L140,3208L148,3208ZM147.111,3208.89L140.889,3208.89L140.889,3215.11L147.111,3215.11L147.111,3208.89Z" style="fill:rgb(242,240,236);"/>
                        </g>
                        <g transform="matrix(1.25,0,0,1,-40.5,-2)">
                            <rect x="142" y="3211" width="4" height="1" style="fill:rgb(242,240,236);"/>
                        </g>
                    </g>
                </g>
                <g transform="matrix(1,0,0,1,22,0)">
                    <g opacity="0.38">
                        <g transform="matrix(1.125,0,0,1.125,-22.5,-404)">
                            <path d="M148,3208L148,3216L140,3216L140,3208L148,3208ZM147.111,3208.89L140.889,3208.89L140.889,3215.11L147.111,3215.11L147.111,3208.89Z" style="fill:rgb(242,240,236);"/>
                        </g>
                        <g transform="matrix(1.25,0,0,1,-40.5,-2)">
                            <rect x="142" y="3211" width="4" height="1" style="fill:rgb(242,240,236);"/>
                        </g>
                    </g>
                </g>
            </g>
        </g>
    </g>
</svg>
