<?xml version="1.0" encoding="UTF-8" standalone="no"?>
<!DOCTYPE svg PUBLIC "-//W3C//DTD SVG 1.1//EN" "http://www.w3.org/Graphics/SVG/1.1/DTD/svg11.dtd">
<svg width="100%" height="100%" viewBox="0 0 33 11" version="1.1" xmlns="http://www.w3.org/2000/svg" xmlns:xlink="http://www.w3.org/1999/xlink" xml:space="preserve" xmlns:serif="http://www.serif.com/" style="fill-rule:evenodd;clip-rule:evenodd;stroke-linejoin:round;stroke-miterlimit:2;">
    <g transform="matrix(1,0,0,1,-299,-803)">
        <g transform="matrix(1.13981,0,0,0.894792,0,0)">
            <g id="mcp_folder_on" transform="matrix(0.877335,0,0,1.11758,144.76,-2683.31)">
                <g id="is-folder" serif:id="is folder" transform="matrix(0.45,0,0,0.45,134.1,3204.2)">
                    <path d="M12.83,6L19,6C20.646,6 22,7.354 22,9L22,17C22,18.646 20.646,20 19,20L5,20C3.354,20 2,18.646 2,17L2,7C2,5.354 3.354,4 5,4L10,4C11.306,4 12.417,4.835 12.83,6Z" style="fill:rgb(242,240,236);fill-opacity:0.38;fill-rule:nonzero;"/>
                </g>
                <g id="is-folder1" serif:id="is folder" transform="matrix(0.45,0,0,0.45,145.1,3204.2)">
                    <path d="M12.83,6L19,6C20.646,6 22,7.354 22,9L22,17C22,18.646 20.646,20 19,20L5,20C3.354,20 2,18.646 2,17L2,7C2,5.354 3.354,4 5,4L10,4C11.306,4 12.417,4.835 12.83,6Z" style="fill:rgb(242,240,236);fill-opacity:0.38;fill-rule:nonzero;"/>
                </g>
                <g id="is-folder2" serif:id="is folder" transform="matrix(0.45,0,0,0.45,156.1,3204.2)">
                    <path d="M12.83,6L19,6C20.646,6 22,7.354 22,9L22,17C22,18.646 20.646,20 19,20L5,20C3.354,20 2,18.646 2,17L2,7C2,5.354 3.354,4 5,4L10,4C11.306,4 12.417,4.835 12.83,6Z" style="fill:rgb(242,240,236);fill-opacity:0.38;fill-rule:nonzero;"/>
                </g>
            </g>
        </g>
    </g>
</svg>
