<?xml version="1.0" encoding="UTF-8" standalone="no"?>
<!DOCTYPE svg PUBLIC "-//W3C//DTD SVG 1.1//EN" "http://www.w3.org/Graphics/SVG/1.1/DTD/svg11.dtd">
<svg width="100%" height="100%" viewBox="0 0 64 8" version="1.1" xmlns="http://www.w3.org/2000/svg" xmlns:xlink="http://www.w3.org/1999/xlink" xml:space="preserve" xmlns:serif="http://www.serif.com/" style="fill-rule:evenodd;clip-rule:evenodd;stroke-linejoin:round;stroke-miterlimit:2;">
    <g transform="matrix(1,0,0,1,-1086,-1)">
        <g transform="matrix(1.13981,0,0,0.894792,0,0)">
            <g id="meter_strip_v" transform="matrix(5.60202e-17,1.1654,-1.10828,8.64457e-17,5557.53,-4642.96)">
                <g id="meter_strip_h">
                    <g id="meter_strip_v1" serif:id="meter_strip_v">
                        <g transform="matrix(0.479481,0,0,2.66649,2954.06,-5572.52)">
                            <rect x="2152" y="3629" width="2" height="19" style="fill:rgb(153,204,153);"/>
                        </g>
                        <g transform="matrix(0.479481,0,0,2.66649,2957.9,-5572.52)">
                            <rect x="2152" y="3629" width="2" height="19" style="fill:rgb(153,204,153);"/>
                        </g>
                        <g transform="matrix(0.479481,0,0,2.66649,2955.98,-5572.52)">
                            <rect x="2152" y="3629" width="2" height="19" style="fill:rgb(153,204,153);"/>
                        </g>
                        <g transform="matrix(0.479481,0,0,2.66649,2959.82,-5572.52)">
                            <rect x="2152" y="3629" width="2" height="19" style="fill:rgb(153,204,153);"/>
                        </g>
                    </g>
                </g>
            </g>
        </g>
    </g>
</svg>
