<?xml version="1.0" encoding="UTF-8" standalone="no"?>
<!DOCTYPE svg PUBLIC "-//W3C//DTD SVG 1.1//EN" "http://www.w3.org/Graphics/SVG/1.1/DTD/svg11.dtd">
<svg width="100%" height="100%" viewBox="0 0 5 12" version="1.1" xmlns="http://www.w3.org/2000/svg" xmlns:xlink="http://www.w3.org/1999/xlink" xml:space="preserve" xmlns:serif="http://www.serif.com/" style="fill-rule:evenodd;clip-rule:evenodd;stroke-linejoin:round;stroke-miterlimit:2;">
    <g transform="matrix(1,0,0,1,-878,-71)">
        <g transform="matrix(1.13981,0,0,0.894792,0,0)">
            <g id="meter_clip_v" transform="matrix(0.121385,0,0,1.29708,237.135,-5458.33)">
                <g id="pink-frame" serif:id="pink frame" transform="matrix(4.71063,0,0,1.63262,-14442.5,-325.92)">
                    <rect x="3998.37" y="2814.64" width="7.672" height="6.333" style="fill:none;"/>
                    <clipPath id="_clip1">
                        <rect x="3998.37" y="2814.64" width="7.672" height="6.333"/>
                    </clipPath>
                    <g clip-path="url(#_clip1)">
                        <g transform="matrix(1.53434,0,0,0.35183,676.527,2107.47)">
                            <rect x="2165" y="2010" width="1" height="3" style="fill:rgb(255,0,255);"/>
                        </g>
                        <g transform="matrix(1.53434,0,0,0.70366,682.664,1404.51)">
                            <rect x="2165" y="2010" width="1" height="3" style="fill:rgb(255,0,255);"/>
                        </g>
                        <g transform="matrix(3.06868,0,0,0.175915,-2645.32,2461.05)">
                            <rect x="2165" y="2010" width="1" height="3" style="fill:rgb(255,0,255);"/>
                        </g>
                        <g transform="matrix(3.06868,0,0,0.175915,-2640.72,2466.86)">
                            <rect x="2165" y="2010" width="1" height="3" style="fill:rgb(255,0,255);"/>
                        </g>
                    </g>
                </g>
                <g transform="matrix(7.2277,0,0,0.861609,-11262.9,1115.84)">
                    <rect x="2167" y="3666" width="3" height="3" style="fill:rgb(242,119,122);"/>
                </g>
            </g>
        </g>
    </g>
</svg>
