<?xml version="1.0" encoding="UTF-8" standalone="no"?>
<!DOCTYPE svg PUBLIC "-//W3C//DTD SVG 1.1//EN" "http://www.w3.org/Graphics/SVG/1.1/DTD/svg11.dtd">
<svg width="100%" height="100%" viewBox="0 0 17 18" version="1.1" xmlns="http://www.w3.org/2000/svg" xmlns:xlink="http://www.w3.org/1999/xlink" xml:space="preserve" xmlns:serif="http://www.serif.com/" style="fill-rule:evenodd;clip-rule:evenodd;stroke-linejoin:round;stroke-miterlimit:2;">
    <g transform="matrix(1,0,0,1,-272,-1194)">
        <g transform="matrix(1.13981,0,0,0.894792,0,0)">
            <g id="midi_inline_scrollbar" transform="matrix(1,0,0,1.3702,0,0)">
                <g transform="matrix(0.950447,0,0,0.815633,-20.9829,0)">
                    <path d="M287,1196L287,1210L275,1210L275,1196L287,1196ZM286.077,1197L275.923,1197L275.923,1209L286.077,1209L286.077,1197Z" style="fill:rgb(30,30,30);"/>
                </g>
                <g transform="matrix(0.804224,0,0,0.699114,20.1056,140.172)">
                    <rect x="275" y="1196" width="12" height="14" style="fill:rgb(57,57,57);"/>
                    <path d="M287,1196L287,1210L275,1210L275,1196L287,1196ZM285.909,1197.17C285.909,1197.17 276.091,1197.17 276.091,1197.17C276.091,1197.17 276.091,1208.83 276.091,1208.83C276.091,1208.83 285.909,1208.83 285.909,1208.83L285.909,1197.17Z" style="fill:rgb(81,81,81);"/>
                </g>
                <g transform="matrix(1.94012,0,0,1.15678,177.112,858.25)">
                    <rect x="31.711" y="99.947" width="7.688" height="12.692" style="fill:none;"/>
                    <clipPath id="_clip1">
                        <rect x="31.711" y="99.947" width="7.688" height="12.692"/>
                    </clipPath>
                    <g clip-path="url(#_clip1)">
                        <g transform="matrix(1.80882,0,0,0.705092,-27.9802,55.526)">
                            <rect x="33" y="63" width="1" height="1" style="fill:rgb(255,0,255);"/>
                        </g>
                        <g transform="matrix(-1.80882,-3.45395e-16,5.53792e-17,-0.705092,99.0896,157.059)">
                            <rect x="33" y="63" width="1" height="1" style="fill:rgb(255,0,255);"/>
                        </g>
                        <g transform="matrix(2.76896e-17,2.82037,-0.452206,5.13995e-17,60.6521,6.87465)">
                            <rect x="33" y="63" width="1" height="1" style="fill:rgb(255,0,255);"/>
                        </g>
                        <g transform="matrix(1.93827e-16,-2.82037,0.452206,3.49494e-17,10.4573,205.711)">
                            <rect x="33" y="63" width="1" height="1" style="fill:rgb(255,0,255);"/>
                        </g>
                    </g>
                </g>
            </g>
        </g>
    </g>
</svg>
