<?xml version="1.0" encoding="UTF-8" standalone="no"?>
<!DOCTYPE svg PUBLIC "-//W3C//DTD SVG 1.1//EN" "http://www.w3.org/Graphics/SVG/1.1/DTD/svg11.dtd">
<svg width="100%" height="100%" viewBox="0 0 42 14" version="1.1" xmlns="http://www.w3.org/2000/svg" xmlns:xlink="http://www.w3.org/1999/xlink" xml:space="preserve" xmlns:serif="http://www.serif.com/" style="fill-rule:evenodd;clip-rule:evenodd;stroke-linejoin:round;stroke-miterlimit:2;">
    <g transform="matrix(1,0,0,1,-262,-1226)">
        <g transform="matrix(1.13981,0,0,0.894792,0,0)">
            <g id="midi_inline_ccwithitems_on" transform="matrix(1,0,0,1.3702,0,0)">
                <g transform="matrix(0.921202,0,0,0.96393,-12.4143,-182.776)">
                    <rect x="263" y="1227" width="40" height="11" style="fill:rgb(204,153,204);"/>
                </g>
                <g>
                    <g transform="matrix(0.944823,0,0,0.815633,-60.1987,0)">
                        <path d="M320,1226L320,1239L307,1239L307,1226L320,1226ZM319.071,1227L307.929,1227L307.929,1238L319.071,1238L319.071,1227Z" style="fill:rgb(45,45,45);"/>
                    </g>
                    <g transform="matrix(0.944823,0,0,0.815633,-47.916,0)">
                        <path d="M320,1226L320,1239L307,1239L307,1226L320,1226ZM319.071,1227L307.929,1227L307.929,1238L319.071,1238L319.071,1227Z" style="fill:rgb(45,45,45);"/>
                    </g>
                    <g transform="matrix(0.944823,0,0,0.815633,-35.6333,0)">
                        <path d="M320,1226L320,1239L307,1239L307,1226L320,1226ZM319.071,1227L307.929,1227L307.929,1238L319.071,1238L319.071,1227Z" style="fill:rgb(45,45,45);"/>
                    </g>
                </g>
                <g transform="matrix(0.913,0,0,0.514122,22.8107,950.212)">
                    <g transform="matrix(1.44141,0,0,2.37969,-1089.22,-1889.47)">
                        <rect x="917" y="836" width="2" height="2" style="fill:rgb(45,45,45);"/>
                    </g>
                    <g transform="matrix(1.44141,0,0,2.37969,-1093.07,-1883.12)">
                        <rect x="917" y="836" width="2" height="2" style="fill:rgb(45,45,45);"/>
                    </g>
                    <g transform="matrix(0.960938,0,0,1.58646,-647.191,-1223.95)">
                        <path d="M913,841.061L911.939,840L917,834.939L918.061,836L913,841.061Z" style="fill:rgb(45,45,45);"/>
                    </g>
                    <g transform="matrix(0.960938,0,0,1.58646,-647.191,-1223.95)">
                        <path d="M915.939,836L917,834.939L921.061,839L920,840.061L915.939,836Z" style="fill:rgb(45,45,45);"/>
                    </g>
                    <g transform="matrix(1.44141,0,0,2.37969,-1086.34,-1884.71)">
                        <rect x="917" y="836" width="2" height="2" style="fill:rgb(45,45,45);"/>
                    </g>
                </g>
                <g transform="matrix(0.913,0,0,0.514122,35.0934,950.212)">
                    <g transform="matrix(1.44141,0,0,2.37969,-1089.22,-1889.47)">
                        <rect x="917" y="836" width="2" height="2" style="fill:rgb(45,45,45);"/>
                    </g>
                    <g transform="matrix(1.44141,0,0,2.37969,-1093.07,-1883.12)">
                        <rect x="917" y="836" width="2" height="2" style="fill:rgb(45,45,45);"/>
                    </g>
                    <g transform="matrix(0.960938,0,0,1.58646,-647.191,-1223.95)">
                        <path d="M913,841.061L911.939,840L917,834.939L918.061,836L913,841.061Z" style="fill:rgb(45,45,45);"/>
                    </g>
                    <g transform="matrix(0.960938,0,0,1.58646,-647.191,-1223.95)">
                        <path d="M915.939,836L917,834.939L921.061,839L920,840.061L915.939,836Z" style="fill:rgb(45,45,45);"/>
                    </g>
                    <g transform="matrix(1.44141,0,0,2.37969,-1086.34,-1884.71)">
                        <rect x="917" y="836" width="2" height="2" style="fill:rgb(45,45,45);"/>
                    </g>
                </g>
                <g transform="matrix(0.913,0,0,0.514122,47.3761,950.212)">
                    <g transform="matrix(1.44141,0,0,2.37969,-1089.22,-1889.47)">
                        <rect x="917" y="836" width="2" height="2" style="fill:rgb(45,45,45);"/>
                    </g>
                    <g transform="matrix(1.44141,0,0,2.37969,-1093.07,-1883.12)">
                        <rect x="917" y="836" width="2" height="2" style="fill:rgb(45,45,45);"/>
                    </g>
                    <g transform="matrix(0.960938,0,0,1.58646,-647.191,-1223.95)">
                        <path d="M913,841.061L911.939,840L917,834.939L918.061,836L913,841.061Z" style="fill:rgb(45,45,45);"/>
                    </g>
                    <g transform="matrix(0.960938,0,0,1.58646,-647.191,-1223.95)">
                        <path d="M915.939,836L917,834.939L921.061,839L920,840.061L915.939,836Z" style="fill:rgb(45,45,45);"/>
                    </g>
                    <g transform="matrix(1.44141,0,0,2.37969,-1086.34,-1884.71)">
                        <rect x="917" y="836" width="2" height="2" style="fill:rgb(45,45,45);"/>
                    </g>
                </g>
                <g>
                    <g transform="matrix(5.37213e-17,0.815633,-1.16978,6.65908e-17,1683.9,787.086)">
                        <path d="M271.5,1234L273,1237L270,1237L271.5,1234Z" style="fill:rgb(45,45,45);"/>
                    </g>
                    <g transform="matrix(0.877335,0,0,0.815633,1.42109e-14,0)">
                        <rect x="264" y="1236" width="7" height="1" style="fill:rgb(45,45,45);"/>
                    </g>
                </g>
                <g transform="matrix(1,0,0,1,12.2827,0)">
                    <g transform="matrix(5.37213e-17,0.815633,-1.16978,6.65908e-17,1683.9,787.086)">
                        <path d="M271.5,1234L273,1237L270,1237L271.5,1234Z" style="fill:rgb(45,45,45);"/>
                    </g>
                    <g transform="matrix(0.877335,0,0,0.815633,1.42109e-14,0)">
                        <rect x="264" y="1236" width="7" height="1" style="fill:rgb(45,45,45);"/>
                    </g>
                </g>
                <g transform="matrix(1,0,0,1,24.5654,0)">
                    <g transform="matrix(5.37213e-17,0.815633,-1.16978,6.65908e-17,1683.9,787.086)">
                        <path d="M271.5,1234L273,1237L270,1237L271.5,1234Z" style="fill:rgb(45,45,45);"/>
                    </g>
                    <g transform="matrix(0.877335,0,0,0.815633,1.42109e-14,0)">
                        <rect x="264" y="1236" width="7" height="1" style="fill:rgb(45,45,45);"/>
                    </g>
                </g>
            </g>
        </g>
    </g>
</svg>
