<?xml version="1.0" encoding="UTF-8" standalone="no"?>
<!DOCTYPE svg PUBLIC "-//W3C//DTD SVG 1.1//EN" "http://www.w3.org/Graphics/SVG/1.1/DTD/svg11.dtd">
<svg width="100%" height="100%" viewBox="0 0 42 14" version="1.1" xmlns="http://www.w3.org/2000/svg" xmlns:xlink="http://www.w3.org/1999/xlink" xml:space="preserve" xmlns:serif="http://www.serif.com/" style="fill-rule:evenodd;clip-rule:evenodd;stroke-linecap:square;stroke-miterlimit:1.5;">
    <g transform="matrix(1,0,0,1,-262,-1380)">
        <g transform="matrix(1.13981,0,0,0.894792,0,0)">
            <g id="midi_inline_close" transform="matrix(1,0,0,1.3702,0,172.107)">
                <g transform="matrix(0.921202,0,0,0.96393,-12.4143,-182.776)">
                    <rect x="263" y="1227" width="40" height="11" style="fill:rgb(211,208,200);"/>
                </g>
                <g>
                    <g transform="matrix(0.944823,0,0,0.815633,-60.1987,0)">
                        <path d="M320,1226L320,1239L307,1239L307,1226L320,1226ZM319.071,1227L307.929,1227L307.929,1238L319.071,1238L319.071,1227Z" style="fill:rgb(45,45,45);"/>
                    </g>
                    <g transform="matrix(0.944823,0,0,0.815633,-47.916,0)">
                        <path d="M320,1226L320,1239L307,1239L307,1226L320,1226ZM319.071,1227L307.929,1227L307.929,1238L319.071,1238L319.071,1227Z" style="fill:rgb(45,45,45);"/>
                    </g>
                    <g transform="matrix(0.944823,0,0,0.815633,-35.6333,0)">
                        <path d="M320,1226L320,1239L307,1239L307,1226L320,1226ZM319.071,1227L307.929,1227L307.929,1238L319.071,1238L319.071,1227Z" style="fill:rgb(45,45,45);"/>
                    </g>
                </g>
                <g transform="matrix(0.857143,0,0,0.857143,33.7147,143.551)">
                    <g transform="matrix(0.814669,-0.0582595,-0.0626668,0.757373,104.09,-28.8385)">
                        <path d="M265,1382L272,1389" style="fill:none;stroke:rgb(45,45,45);stroke-width:2.04px;"/>
                    </g>
                    <g transform="matrix(0.0626668,0.757373,-0.814669,-0.0582595,1347.9,882.224)">
                        <path d="M265,1382L272,1389" style="fill:none;stroke:rgb(45,45,45);stroke-width:2.04px;"/>
                    </g>
                </g>
                <g transform="matrix(0.857143,0,0,0.857143,45.9974,143.551)">
                    <g transform="matrix(0.814669,-0.0582595,-0.0626668,0.757373,104.09,-28.8385)">
                        <path d="M265,1382L272,1389" style="fill:none;stroke:rgb(45,45,45);stroke-width:2.04px;"/>
                    </g>
                    <g transform="matrix(0.0626668,0.757373,-0.814669,-0.0582595,1347.9,882.224)">
                        <path d="M265,1382L272,1389" style="fill:none;stroke:rgb(45,45,45);stroke-width:2.04px;"/>
                    </g>
                </g>
                <g transform="matrix(0.857143,0,0,0.857143,58.2801,143.551)">
                    <g transform="matrix(0.814669,-0.0582595,-0.0626668,0.757373,104.09,-28.8385)">
                        <path d="M265,1382L272,1389" style="fill:none;stroke:rgb(45,45,45);stroke-width:2.04px;"/>
                    </g>
                    <g transform="matrix(0.0626668,0.757373,-0.814669,-0.0582595,1347.9,882.224)">
                        <path d="M265,1382L272,1389" style="fill:none;stroke:rgb(45,45,45);stroke-width:2.04px;"/>
                    </g>
                </g>
            </g>
        </g>
    </g>
</svg>
