<?xml version="1.0" encoding="UTF-8" standalone="no"?>
<!DOCTYPE svg PUBLIC "-//W3C//DTD SVG 1.1//EN" "http://www.w3.org/Graphics/SVG/1.1/DTD/svg11.dtd">
<svg width="100%" height="100%" viewBox="0 0 157 130" version="1.1" xmlns="http://www.w3.org/2000/svg" xmlns:xlink="http://www.w3.org/1999/xlink" xml:space="preserve" xmlns:serif="http://www.serif.com/" style="fill-rule:evenodd;clip-rule:evenodd;stroke-linejoin:round;stroke-miterlimit:2;">
    <g transform="matrix(1,0,0,1,-833,-278)">
        <g transform="matrix(1.13981,0,0,0.894792,0,0)">
            <g id="midi_note_colormap" transform="matrix(1.29147,0,0,1.11758,-3927.85,-1432.74)">
                <g transform="matrix(86.9544,0,0,2.03125,-310638,-1740.78)">
                    <rect x="3614" y="1625" width="1" height="64" style="fill:url(#_Linear1);"/>
                </g>
                <g>
                    <g transform="matrix(0.679331,0,0,2.03125,1152.16,-1740.78)">
                        <rect x="3614" y="1625" width="1" height="64" style="fill:rgb(242,119,122);"/>
                    </g>
                    <g transform="matrix(0.679331,0,0,2.03125,1152.84,-1740.78)">
                        <rect x="3614" y="1625" width="1" height="64" style="fill:rgb(249,145,87);"/>
                    </g>
                    <g transform="matrix(0.679331,0,0,2.03125,1153.52,-1740.78)">
                        <rect x="3614" y="1625" width="1" height="64" style="fill:rgb(255,204,102);"/>
                    </g>
                    <g transform="matrix(0.679331,0,0,2.03125,1154.88,-1740.78)">
                        <rect x="3614" y="1625" width="1" height="64" style="fill:rgb(153,204,153);"/>
                    </g>
                    <g transform="matrix(0.679331,0,0,2.03125,1154.2,-1740.78)">
                        <rect x="3614" y="1625" width="1" height="64" style="fill:rgb(188,220,137);"/>
                    </g>
                    <g transform="matrix(0.679331,0,0,2.03125,1155.56,-1740.78)">
                        <rect x="3614" y="1625" width="1" height="64" style="fill:rgb(102,204,204);"/>
                    </g>
                    <g transform="matrix(0.679331,0,0,2.03125,1156.24,-1740.78)">
                        <rect x="3614" y="1625" width="1" height="64" style="fill:rgb(102,178,204);"/>
                    </g>
                    <g transform="matrix(0.679331,0,0,2.03125,1156.92,-1740.78)">
                        <rect x="3614" y="1625" width="1" height="64" style="fill:rgb(102,153,204);"/>
                    </g>
                    <g transform="matrix(0.679331,0,0,2.03125,1157.6,-1740.78)">
                        <rect x="3614" y="1625" width="1" height="64" style="fill:rgb(140,145,217);"/>
                    </g>
                    <g transform="matrix(0.679331,0,0,2.03125,1158.28,-1740.78)">
                        <rect x="3614" y="1625" width="1" height="64" style="fill:rgb(174,140,217);"/>
                    </g>
                    <g transform="matrix(0.679331,0,0,2.03125,1158.96,-1740.78)">
                        <rect x="3614" y="1625" width="1" height="64" style="fill:rgb(204,153,204);"/>
                    </g>
                    <g transform="matrix(0.679331,0,0,2.03125,1159.64,-1740.78)">
                        <rect x="3614" y="1625" width="1" height="64" style="fill:rgb(220,137,168);"/>
                    </g>
                </g>
                <g transform="matrix(0.113222,0,0,1.27723,3277.68,-433.752)">
                    <rect x="3751" y="1561" width="6" height="101" style="fill:rgb(81,81,81);"/>
                </g>
                <g>
                    <g transform="matrix(0.113222,0,0,1.27723,3278.36,-433.752)">
                        <rect x="3751" y="1561" width="6" height="101" style="fill:rgb(242,119,122);"/>
                    </g>
                    <g transform="matrix(0.113222,0,0,1.27723,3279.04,-433.752)">
                        <rect x="3751" y="1561" width="6" height="101" style="fill:rgb(242,119,122);"/>
                    </g>
                    <g transform="matrix(0.113222,0,0,1.27723,3279.72,-433.752)">
                        <rect x="3751" y="1561" width="6" height="101" style="fill:rgb(249,145,87);"/>
                    </g>
                    <g transform="matrix(0.113222,0,0,1.27723,3280.39,-433.752)">
                        <rect x="3751" y="1561" width="6" height="101" style="fill:rgb(249,145,87);"/>
                    </g>
                    <g transform="matrix(0.113222,0,0,1.27723,3281.07,-433.752)">
                        <rect x="3751" y="1561" width="6" height="101" style="fill:rgb(255,204,102);"/>
                    </g>
                    <g transform="matrix(0.113222,0,0,1.27723,3281.75,-433.752)">
                        <rect x="3751" y="1561" width="6" height="101" style="fill:rgb(255,204,102);"/>
                    </g>
                    <g transform="matrix(0.113222,0,0,1.27723,3282.43,-433.752)">
                        <rect x="3751" y="1561" width="6" height="101" style="fill:rgb(153,204,153);"/>
                    </g>
                    <g transform="matrix(0.113222,0,0,1.27723,3283.11,-433.752)">
                        <rect x="3751" y="1561" width="6" height="101" style="fill:rgb(153,204,153);"/>
                    </g>
                    <g transform="matrix(0.113222,0,0,1.27723,3283.79,-433.752)">
                        <rect x="3751" y="1561" width="6" height="101" style="fill:rgb(102,204,204);"/>
                    </g>
                    <g transform="matrix(0.113222,0,0,1.27723,3284.47,-433.752)">
                        <rect x="3751" y="1561" width="6" height="101" style="fill:rgb(102,204,204);"/>
                    </g>
                    <g transform="matrix(0.113222,0,0,1.27723,3285.15,-433.752)">
                        <rect x="3751" y="1561" width="6" height="101" style="fill:rgb(102,153,204);"/>
                    </g>
                    <g transform="matrix(0.113222,0,0,1.27723,3285.83,-433.752)">
                        <rect x="3751" y="1561" width="6" height="101" style="fill:rgb(102,153,204);"/>
                    </g>
                    <g transform="matrix(0.113222,0,0,1.27723,3286.51,-433.752)">
                        <rect x="3751" y="1561" width="6" height="101" style="fill:rgb(204,153,204);"/>
                    </g>
                    <g transform="matrix(0.113222,0,0,1.27723,3287.19,-433.752)">
                        <rect x="3751" y="1561" width="6" height="101" style="fill:rgb(204,153,204);"/>
                    </g>
                    <g transform="matrix(0.113222,0,0,1.27723,3287.87,-433.752)">
                        <rect x="3751" y="1561" width="6" height="101" style="fill:rgb(210,123,83);"/>
                    </g>
                    <g transform="matrix(0.113222,0,0,1.27723,3288.55,-433.752)">
                        <rect x="3751" y="1561" width="6" height="101" style="fill:rgb(210,123,83);"/>
                    </g>
                </g>
                <g>
                    <g transform="matrix(0.113222,0,0,1.27723,3288.55,-433.752)">
                        <rect x="3751" y="1561" width="6" height="101" style="fill:rgb(242,119,122);fill-opacity:0.5;"/>
                    </g>
                    <g transform="matrix(0.113222,0,0,1.27723,3279.04,-433.752)">
                        <rect x="3751" y="1561" width="6" height="101" style="fill:rgb(249,145,87);fill-opacity:0.5;"/>
                    </g>
                    <g transform="matrix(0.113222,0,0,1.27723,3280.39,-433.752)">
                        <rect x="3751" y="1561" width="6" height="101" style="fill:rgb(255,204,102);fill-opacity:0.5;"/>
                    </g>
                    <g transform="matrix(0.113222,0,0,1.27723,3281.75,-433.752)">
                        <rect x="3751" y="1561" width="6" height="101" style="fill:rgb(153,204,153);fill-opacity:0.5;"/>
                    </g>
                    <g transform="matrix(0.113222,0,0,1.27723,3283.11,-433.752)">
                        <rect x="3751" y="1561" width="6" height="101" style="fill:rgb(102,204,204);fill-opacity:0.5;"/>
                    </g>
                    <g transform="matrix(0.113222,0,0,1.27723,3284.47,-433.752)">
                        <rect x="3751" y="1561" width="6" height="101" style="fill:rgb(102,153,204);fill-opacity:0.5;"/>
                    </g>
                    <g transform="matrix(0.113222,0,0,1.27723,3285.83,-433.752)">
                        <rect x="3751" y="1561" width="6" height="101" style="fill:rgb(204,153,204);fill-opacity:0.5;"/>
                    </g>
                    <g transform="matrix(0.113222,0,0,1.27723,3287.19,-433.752)">
                        <rect x="3751" y="1561" width="6" height="101" style="fill:rgb(210,123,83);fill-opacity:0.5;"/>
                    </g>
                </g>
                <g>
                    <g id="Selected-border" serif:id="Selected border" transform="matrix(1.08832,0,0,0.0833333,-360.736,1547.58)">
                        <rect x="3646" y="1697" width="98" height="12" style="fill:rgb(242,240,236);"/>
                    </g>
                    <g id="Unselected-border" serif:id="Unselected border" transform="matrix(1.08832,0,0,0.0833333,-360.736,1482.58)">
                        <rect x="3646" y="1697" width="98" height="12" style="fill:rgb(30,30,30);"/>
                    </g>
                    <g transform="matrix(0.679331,0,0,0.984615,1152.16,25)">
                        <rect x="3614" y="1625" width="157" height="65" style="fill:rgb(242,240,236);fill-opacity:0.38;"/>
                    </g>
                </g>
            </g>
        </g>
    </g>
    <defs>
        <linearGradient id="_Linear1" x1="0" y1="0" x2="1" y2="0" gradientUnits="userSpaceOnUse" gradientTransform="matrix(1,0,-0,128,3614,1657)"><stop offset="0" style="stop-color:rgb(153,204,153);stop-opacity:1"/><stop offset="0.28" style="stop-color:rgb(217,229,108);stop-opacity:1"/><stop offset="0.57" style="stop-color:rgb(255,204,102);stop-opacity:1"/><stop offset="0.78" style="stop-color:rgb(238,175,108);stop-opacity:1"/><stop offset="1" style="stop-color:rgb(242,119,122);stop-opacity:1"/></linearGradient>
    </defs>
</svg>
