<?xml version="1.0" encoding="UTF-8" standalone="no"?>
<!DOCTYPE svg PUBLIC "-//W3C//DTD SVG 1.1//EN" "http://www.w3.org/Graphics/SVG/1.1/DTD/svg11.dtd">
<svg width="100%" height="100%" viewBox="0 0 159 19" version="1.1" xmlns="http://www.w3.org/2000/svg" xmlns:xlink="http://www.w3.org/1999/xlink" xml:space="preserve" xmlns:serif="http://www.serif.com/" style="fill-rule:evenodd;clip-rule:evenodd;stroke-linejoin:round;stroke-miterlimit:2;">
    <g transform="matrix(1,0,0,1,-552,-807)">
        <g transform="matrix(1.13981,0,0,0.894792,0,0)">
            <g id="mixer_menu" transform="matrix(1,0,0,0.726426,-7.01868,-3.35274)">
                <g transform="matrix(3.19601,0,0,1.86813,-269.906,1139.34)">
                    <rect x="253" y="58" width="14" height="14" style="fill:rgb(242,240,236);fill-opacity:0.06;"/>
                </g>
                <g transform="matrix(0.877335,0,0,1.53846,-1223.01,-1338.46)">
                    <g transform="matrix(1,0,0,1,262.03,1364.34)">
                        <g transform="matrix(10,0,0,10,1722.78,328.932)">
                        </g>
                        <text x="1696.09px" y="328.932px" style="font-family:'Inter-Regular', 'Inter';font-size:10px;fill:rgb(116,115,105);">Menu</text>
                    </g>
                    <g>
                        <g transform="matrix(0.526316,0,0,0.5,1090.42,1103.5)">
                            <rect x="1713" y="1179" width="19" height="2" style="fill:rgb(116,115,105);"/>
                        </g>
                        <g transform="matrix(0.526316,0,0,0.5,1090.42,1099.5)">
                            <rect x="1713" y="1179" width="19" height="2" style="fill:rgb(116,115,105);"/>
                        </g>
                        <g transform="matrix(0.526316,0,0,0.5,1090.42,1095.5)">
                            <rect x="1713" y="1179" width="19" height="2" style="fill:rgb(116,115,105);"/>
                        </g>
                    </g>
                </g>
                <g transform="matrix(0.877335,0,0,1.53846,-1176.51,-1338.46)">
                    <g transform="matrix(1,0,0,1,262.03,1364.34)">
                        <g transform="matrix(10,0,0,10,1722.78,328.932)">
                        </g>
                        <text x="1696.09px" y="328.932px" style="font-family:'Inter-Regular', 'Inter';font-size:10px;fill:rgb(116,115,105);">Menu</text>
                    </g>
                    <g>
                        <g transform="matrix(0.526316,0,0,0.5,1090.42,1103.5)">
                            <rect x="1713" y="1179" width="19" height="2" style="fill:rgb(116,115,105);"/>
                        </g>
                        <g transform="matrix(0.526316,0,0,0.5,1090.42,1099.5)">
                            <rect x="1713" y="1179" width="19" height="2" style="fill:rgb(116,115,105);"/>
                        </g>
                        <g transform="matrix(0.526316,0,0,0.5,1090.42,1095.5)">
                            <rect x="1713" y="1179" width="19" height="2" style="fill:rgb(116,115,105);"/>
                        </g>
                    </g>
                </g>
                <g transform="matrix(0.877335,0,0,1.53846,-1130.01,-1338.46)">
                    <g transform="matrix(1,0,0,1,262.03,1364.34)">
                        <g transform="matrix(10,0,0,10,1722.78,328.932)">
                        </g>
                        <text x="1696.09px" y="328.932px" style="font-family:'Inter-Regular', 'Inter';font-size:10px;fill:rgb(30,30,30);">Menu</text>
                    </g>
                    <g>
                        <g transform="matrix(0.526316,0,0,0.5,1090.42,1103.5)">
                            <rect x="1713" y="1179" width="19" height="2" style="fill:rgb(30,30,30);"/>
                        </g>
                        <g transform="matrix(0.526316,0,0,0.5,1090.42,1099.5)">
                            <rect x="1713" y="1179" width="19" height="2" style="fill:rgb(30,30,30);"/>
                        </g>
                        <g transform="matrix(0.526316,0,0,0.5,1090.42,1095.5)">
                            <rect x="1713" y="1179" width="19" height="2" style="fill:rgb(30,30,30);"/>
                        </g>
                    </g>
                </g>
            </g>
        </g>
    </g>
</svg>
