<?xml version="1.0" encoding="UTF-8" standalone="no"?>
<!DOCTYPE svg PUBLIC "-//W3C//DTD SVG 1.1//EN" "http://www.w3.org/Graphics/SVG/1.1/DTD/svg11.dtd">
<svg width="100%" height="100%" viewBox="0 0 51 16" version="1.1" xmlns="http://www.w3.org/2000/svg" xmlns:xlink="http://www.w3.org/1999/xlink" xml:space="preserve" xmlns:serif="http://www.serif.com/" style="fill-rule:evenodd;clip-rule:evenodd;stroke-linejoin:round;stroke-miterlimit:2;">
    <g transform="matrix(1,0,0,1,-1116,-895)">
        <g transform="matrix(1.13981,0,0,0.894792,0,0)">
            <g id="monitor_fx_byp_byp" transform="matrix(1,0,0,1.3702,0,17.8813)">
                <g transform="matrix(0.236741,0,0,0.870008,762.962,-31.2659)">
                    <rect x="913" y="860" width="63" height="15" style="fill:rgb(242,119,122);"/>
                </g>
                <g transform="matrix(0.236741,0,0,0.870008,777.876,-31.2659)">
                    <rect x="913" y="860" width="63" height="15" style="fill:rgb(242,119,122);"/>
                </g>
                <g transform="matrix(0.236741,0,0,0.870008,792.791,-31.2659)">
                    <rect x="913" y="860" width="63" height="15" style="fill:rgb(242,119,122);"/>
                </g>
                <g id="power-button" serif:id="power button" transform="matrix(0.877335,0,0,0.815633,-752.754,422.063)">
                    <g transform="matrix(0.5,0,0,0.8,990.5,110.8)">
                        <rect x="1981" y="319" width="2" height="5" style="fill:rgb(45,45,45);"/>
                    </g>
                    <g transform="matrix(1,0,0,1,0,45)">
                        <path d="M1983,321.404C1984.18,321.966 1985,323.171 1985,324.566C1985,326.498 1983.43,328.066 1981.5,328.066C1979.57,328.066 1978,326.498 1978,324.566C1978,323.171 1978.82,321.966 1980,321.404L1980,322.567C1979.39,323.023 1979,323.749 1979,324.566C1979,325.946 1980.12,327.066 1981.5,327.066C1982.88,327.066 1984,325.946 1984,324.566C1984,323.749 1983.61,323.023 1983,322.567L1983,321.404Z" style="fill:rgb(45,45,45);"/>
                    </g>
                </g>
                <g id="power-button1" serif:id="power button" transform="matrix(0.877335,0,0,0.815633,-737.839,422.063)">
                    <g transform="matrix(0.5,0,0,0.8,990.5,110.8)">
                        <rect x="1981" y="319" width="2" height="5" style="fill:rgb(45,45,45);"/>
                    </g>
                    <g transform="matrix(1,0,0,1,0,45)">
                        <path d="M1983,321.404C1984.18,321.966 1985,323.171 1985,324.566C1985,326.498 1983.43,328.066 1981.5,328.066C1979.57,328.066 1978,326.498 1978,324.566C1978,323.171 1978.82,321.966 1980,321.404L1980,322.567C1979.39,323.023 1979,323.749 1979,324.566C1979,325.946 1980.12,327.066 1981.5,327.066C1982.88,327.066 1984,325.946 1984,324.566C1984,323.749 1983.61,323.023 1983,322.567L1983,321.404Z" style="fill:rgb(45,45,45);"/>
                    </g>
                </g>
                <g id="power-button2" serif:id="power button" transform="matrix(0.877335,0,0,0.815633,-722.924,422.063)">
                    <g transform="matrix(0.5,0,0,0.8,990.5,110.8)">
                        <rect x="1981" y="319" width="2" height="5" style="fill:rgb(45,45,45);"/>
                    </g>
                    <g transform="matrix(1,0,0,1,0,45)">
                        <path d="M1983,321.404C1984.18,321.966 1985,323.171 1985,324.566C1985,326.498 1983.43,328.066 1981.5,328.066C1979.57,328.066 1978,326.498 1978,324.566C1978,323.171 1978.82,321.966 1980,321.404L1980,322.567C1979.39,323.023 1979,323.749 1979,324.566C1979,325.946 1980.12,327.066 1981.5,327.066C1982.88,327.066 1984,325.946 1984,324.566C1984,323.749 1983.61,323.023 1983,322.567L1983,321.404Z" style="fill:rgb(45,45,45);"/>
                    </g>
                </g>
            </g>
        </g>
    </g>
</svg>
