<?xml version="1.0" encoding="UTF-8" standalone="no"?>
<!DOCTYPE svg PUBLIC "-//W3C//DTD SVG 1.1//EN" "http://www.w3.org/Graphics/SVG/1.1/DTD/svg11.dtd">
<svg width="100%" height="100%" viewBox="0 0 201 16" version="1.1" xmlns="http://www.w3.org/2000/svg" xmlns:xlink="http://www.w3.org/1999/xlink" xml:space="preserve" xmlns:serif="http://www.serif.com/" style="fill-rule:evenodd;clip-rule:evenodd;stroke-linejoin:round;stroke-miterlimit:2;">
    <g transform="matrix(1,0,0,1,-911,-879)">
        <g transform="matrix(1.13981,0,0,0.894792,0,0)">
            <g id="monitor_fx_on" transform="matrix(7.18182,0,0,2.43591,-4939.08,-724.315)">
                <g transform="matrix(0.129917,0,0,0.48938,680.394,279.762)">
                    <rect x="913" y="860" width="63" height="15" style="fill:rgb(153,204,153);"/>
                </g>
                <g transform="matrix(0.129917,0,0,0.48938,688.579,279.762)">
                    <rect x="913" y="860" width="63" height="15" style="fill:rgb(153,204,153);"/>
                </g>
                <g transform="matrix(0.129917,0,0,0.48938,696.764,279.762)">
                    <rect x="913" y="860" width="63" height="15" style="fill:rgb(153,204,153);"/>
                </g>
                <g transform="matrix(0.122161,0,0,0.458794,687.389,307.415)">
                    <g transform="matrix(9,0,0,9,977.839,868.335)">
                    </g>
                    <text x="919.098px" y="868.335px" style="font-family:'Inter-Medium', 'Inter';font-weight:500;font-size:9px;fill:rgb(45,45,45);">M<tspan x="927.537px 934.661px 941.693px 944.371px 950.199px 957.323px 963.38px 966.004px 971.533px " y="868.335px 868.335px 868.335px 868.335px 868.335px 868.335px 868.335px 868.335px 868.335px ">ONITOR FX</tspan></text>
                </g>
                <g transform="matrix(0.122161,0,0,0.458794,695.574,307.415)">
                    <g transform="matrix(9,0,0,9,977.839,868.335)">
                    </g>
                    <text x="919.098px" y="868.335px" style="font-family:'Inter-Medium', 'Inter';font-weight:500;font-size:9px;fill:rgb(45,45,45);">M<tspan x="927.537px 934.661px 941.693px 944.371px 950.199px 957.323px 963.38px 966.004px 971.533px " y="868.335px 868.335px 868.335px 868.335px 868.335px 868.335px 868.335px 868.335px 868.335px ">ONITOR FX</tspan></text>
                </g>
                <g transform="matrix(0.122161,0,0,0.458794,703.758,307.415)">
                    <g transform="matrix(9,0,0,9,977.839,868.335)">
                    </g>
                    <text x="919.098px" y="868.335px" style="font-family:'Inter-Medium', 'Inter';font-weight:500;font-size:9px;fill:rgb(45,45,45);">M<tspan x="927.537px 934.661px 941.693px 944.371px 950.199px 957.323px 963.38px 966.004px 971.533px " y="868.335px 868.335px 868.335px 868.335px 868.335px 868.335px 868.335px 868.335px 868.335px ">ONITOR FX</tspan></text>
                </g>
            </g>
        </g>
    </g>
</svg>
