<?xml version="1.0" encoding="UTF-8" standalone="no"?>
<!DOCTYPE svg PUBLIC "-//W3C//DTD SVG 1.1//EN" "http://www.w3.org/Graphics/SVG/1.1/DTD/svg11.dtd">
<svg width="100%" height="100%" viewBox="0 0 48 16" version="1.1" xmlns="http://www.w3.org/2000/svg" xmlns:xlink="http://www.w3.org/1999/xlink" xml:space="preserve" xmlns:serif="http://www.serif.com/" style="fill-rule:evenodd;clip-rule:evenodd;stroke-linejoin:round;stroke-miterlimit:2;">
    <g transform="matrix(1,0,0,1,-43,-1345)">
        <g transform="matrix(1.13981,0,0,0.894792,0,0)">
            <g id="table_locked_off" transform="matrix(0.121385,0,0,1.29708,-481.402,-2943.78)">
                <g transform="matrix(5.77664,0,0,0.688629,-50614.1,2921.47)">
                    <path d="M9506.71,747.839L9506,752.081L9510.24,751.374L9516.25,745.364L9512.72,741.828L9506.71,747.839ZM9513.43,741.121L9516.96,744.656L9518.09,743.525C9518.64,742.979 9518.64,742.092 9518.09,741.546L9516.54,739.99C9515.99,739.444 9515.1,739.444 9514.56,739.99L9513.43,741.121Z" style="fill:rgb(255,204,102);"/>
                </g>
                <g transform="matrix(5.77664,0,0,0.688629,-50498.5,2921.47)">
                    <path d="M9506.71,747.839L9506,752.081L9510.24,751.374L9516.25,745.364L9512.72,741.828L9506.71,747.839ZM9513.43,741.121L9516.96,744.656L9518.09,743.525C9518.64,742.979 9518.64,742.092 9518.09,741.546L9516.54,739.99C9515.99,739.444 9515.1,739.444 9514.56,739.99L9513.43,741.121Z" style="fill:rgb(255,204,102);"/>
                </g>
                <g transform="matrix(5.77664,0,0,0.688629,-50382.8,2921.47)">
                    <path d="M9506.71,747.839L9506,752.081L9510.24,751.374L9516.25,745.364L9512.72,741.828L9506.71,747.839ZM9513.43,741.121L9516.96,744.656L9518.09,743.525C9518.64,742.979 9518.64,742.092 9518.09,741.546L9516.54,739.99C9515.99,739.444 9515.1,739.444 9514.56,739.99L9513.43,741.121Z" style="fill:rgb(255,204,102);"/>
                </g>
            </g>
        </g>
    </g>
</svg>
