<?xml version="1.0" encoding="UTF-8" standalone="no"?>
<!DOCTYPE svg PUBLIC "-//W3C//DTD SVG 1.1//EN" "http://www.w3.org/Graphics/SVG/1.1/DTD/svg11.dtd">
<svg width="100%" height="100%" viewBox="0 0 48 16" version="1.1" xmlns="http://www.w3.org/2000/svg" xmlns:xlink="http://www.w3.org/1999/xlink" xml:space="preserve" xmlns:serif="http://www.serif.com/" style="fill-rule:evenodd;clip-rule:evenodd;stroke-linejoin:round;stroke-miterlimit:2;">
    <g transform="matrix(1,0,0,1,-43,-1393)">
        <g transform="matrix(1.13981,0,0,0.894792,0,0)">
            <g id="table_target_on" transform="matrix(0.121385,0,0,1.29708,-481.402,-2890.14)">
                <g transform="matrix(7.2277,0,0,0.861609,-25255.7,1915.42)">
                    <path d="M4095.53,1761.67L4094.4,1760.54L4089.6,1765.34L4089.03,1768.73L4092.43,1768.17L4092.85,1767.74L4092.64,1767.74C4092.1,1767.74 4091.67,1767.31 4091.67,1766.77L4091.67,1764.86C4091.67,1764.33 4092.1,1763.9 4092.64,1763.9C4092.64,1763.9 4093.9,1763.9 4093.9,1763.9L4093.9,1762.64C4093.9,1762.1 4094.33,1761.67 4094.86,1761.67L4095.53,1761.67ZM4096.66,1761.67L4096.77,1761.67C4097.31,1761.67 4097.74,1762.1 4097.74,1762.64L4097.74,1762.75L4097.79,1762.8L4098.7,1761.9C4099.14,1761.46 4099.14,1760.75 4098.7,1760.31L4097.45,1759.07C4097.02,1758.63 4096.31,1758.63 4095.87,1759.07L4094.97,1759.97L4096.66,1761.67Z" style="fill:rgb(255,204,102);"/>
                </g>
                <g transform="matrix(7.2277,0,0,0.861609,-25140.3,1915.42)">
                    <path d="M4095.53,1761.67L4094.4,1760.54L4089.6,1765.34L4089.03,1768.73L4092.43,1768.17L4092.85,1767.74L4092.64,1767.74C4092.1,1767.74 4091.67,1767.31 4091.67,1766.77L4091.67,1764.86C4091.67,1764.33 4092.1,1763.9 4092.64,1763.9C4092.64,1763.9 4093.9,1763.9 4093.9,1763.9L4093.9,1762.64C4093.9,1762.1 4094.33,1761.67 4094.86,1761.67L4095.53,1761.67ZM4096.66,1761.67L4096.77,1761.67C4097.31,1761.67 4097.74,1762.1 4097.74,1762.64L4097.74,1762.75L4097.79,1762.8L4098.7,1761.9C4099.14,1761.46 4099.14,1760.75 4098.7,1760.31L4097.45,1759.07C4097.02,1758.63 4096.31,1758.63 4095.87,1759.07L4094.97,1759.97L4096.66,1761.67Z" style="fill:rgb(255,204,102);"/>
                </g>
                <g transform="matrix(7.2277,0,0,0.861609,-25024.7,1915.42)">
                    <path d="M4095.53,1761.67L4094.4,1760.54L4089.6,1765.34L4089.03,1768.73L4092.43,1768.17L4092.85,1767.74L4092.64,1767.74C4092.1,1767.74 4091.67,1767.31 4091.67,1766.77L4091.67,1764.86C4091.67,1764.33 4092.1,1763.9 4092.64,1763.9C4092.64,1763.9 4093.9,1763.9 4093.9,1763.9L4093.9,1762.64C4093.9,1762.1 4094.33,1761.67 4094.86,1761.67L4095.53,1761.67ZM4096.66,1761.67L4096.77,1761.67C4097.31,1761.67 4097.74,1762.1 4097.74,1762.64L4097.74,1762.75L4097.79,1762.8L4098.7,1761.9C4099.14,1761.46 4099.14,1760.75 4098.7,1760.31L4097.45,1759.07C4097.02,1758.63 4096.31,1758.63 4095.87,1759.07L4094.97,1759.97L4096.66,1761.67Z" style="fill:rgb(255,204,102);"/>
                </g>
                <g transform="matrix(9.19855,0,0,1.09655,-33334.2,1499.8)">
                    <path d="M4097.25,1765.75L4097.25,1764L4095.75,1764L4095.75,1765.75L4094,1765.75L4094,1767.25L4095.75,1767.25L4095.75,1769L4097.25,1769L4097.25,1767.25L4099,1767.25L4099,1765.75L4097.25,1765.75Z" style="fill:rgb(153,204,153);"/>
                </g>
                <g transform="matrix(9.19855,0,0,1.09655,-33218.8,1499.8)">
                    <path d="M4097.25,1765.75L4097.25,1764L4095.75,1764L4095.75,1765.75L4094,1765.75L4094,1767.25L4095.75,1767.25L4095.75,1769L4097.25,1769L4097.25,1767.25L4099,1767.25L4099,1765.75L4097.25,1765.75Z" style="fill:rgb(153,204,153);"/>
                </g>
                <g transform="matrix(9.19855,0,0,1.09655,-33103.1,1499.8)">
                    <path d="M4097.25,1765.75L4097.25,1764L4095.75,1764L4095.75,1765.75L4094,1765.75L4094,1767.25L4095.75,1767.25L4095.75,1769L4097.25,1769L4097.25,1767.25L4099,1767.25L4099,1765.75L4097.25,1765.75Z" style="fill:rgb(153,204,153);"/>
                </g>
            </g>
        </g>
    </g>
</svg>
