<?xml version="1.0" encoding="UTF-8" standalone="no"?>
<!DOCTYPE svg PUBLIC "-//W3C//DTD SVG 1.1//EN" "http://www.w3.org/Graphics/SVG/1.1/DTD/svg11.dtd">
<svg width="100%" height="100%" viewBox="0 0 48 16" version="1.1" xmlns="http://www.w3.org/2000/svg" xmlns:xlink="http://www.w3.org/1999/xlink" xml:space="preserve" xmlns:serif="http://www.serif.com/" style="fill-rule:evenodd;clip-rule:evenodd;stroke-linejoin:round;stroke-miterlimit:2;">
    <g transform="matrix(1,0,0,1,-43,-1425)">
        <g transform="matrix(1.13981,0,0,0.894792,0,0)">
            <g id="table_target_invalid" transform="matrix(0.121385,0,0,1.29708,-481.402,-2854.37)">
                <g opacity="0.19">
                    <g transform="matrix(7.2277,0,0,0.861609,-25255.7,1901.63)">
                        <path d="M4092.46,1779.91L4091.72,1779.17L4089.56,1781.33L4088.99,1784.74L4092.4,1784.17L4092.82,1783.74L4092.64,1783.74C4092.1,1783.74 4091.67,1783.31 4091.67,1782.77L4091.67,1780.86C4091.67,1780.39 4092.01,1780 4092.46,1779.91ZM4096.68,1777.67L4096.77,1777.67C4097.31,1777.67 4097.74,1778.1 4097.74,1778.64L4097.74,1778.73L4097.79,1778.78L4098.69,1777.87C4099.13,1777.43 4099.13,1776.72 4098.69,1776.28L4097.45,1775.03C4097.01,1774.59 4096.3,1774.59 4095.86,1775.03L4094.95,1775.94L4096.68,1777.67ZM4095.54,1777.67L4094.38,1776.51L4093.65,1777.24L4094.27,1777.87C4094.44,1777.74 4094.64,1777.67 4094.86,1777.67L4095.54,1777.67Z" style="fill:rgb(242,240,236);"/>
                    </g>
                    <g transform="matrix(5.80101,0,0,0.691534,-50846.1,2919.29)">
                        <path d="M9518.57,751.215L9506.87,739.508L9506.16,740.215L9517.87,751.922L9518.57,751.215Z" style="fill:rgb(242,240,236);"/>
                    </g>
                    <g transform="matrix(7.2277,0,0,0.861609,-25255.7,1901.63)">
                        <path d="M4093.4,1780.86L4092.64,1780.86L4092.64,1782.77L4094.86,1782.77L4094.86,1785L4096.77,1785L4096.77,1784.24L4093.4,1780.86ZM4099,1780.86L4099,1782.59L4097.27,1780.86L4099,1780.86ZM4096.77,1780.36L4095.05,1778.64L4096.77,1778.64L4096.77,1780.36Z" style="fill:rgb(242,240,236);"/>
                    </g>
                </g>
                <g transform="matrix(1,0,0,1,115.643,-2.25597e-13)">
                    <g opacity="0.19">
                        <g transform="matrix(7.2277,0,0,0.861609,-25255.7,1901.63)">
                            <path d="M4092.46,1779.91L4091.72,1779.17L4089.56,1781.33L4088.99,1784.74L4092.4,1784.17L4092.82,1783.74L4092.64,1783.74C4092.1,1783.74 4091.67,1783.31 4091.67,1782.77L4091.67,1780.86C4091.67,1780.39 4092.01,1780 4092.46,1779.91ZM4096.68,1777.67L4096.77,1777.67C4097.31,1777.67 4097.74,1778.1 4097.74,1778.64L4097.74,1778.73L4097.79,1778.78L4098.69,1777.87C4099.13,1777.43 4099.13,1776.72 4098.69,1776.28L4097.45,1775.03C4097.01,1774.59 4096.3,1774.59 4095.86,1775.03L4094.95,1775.94L4096.68,1777.67ZM4095.54,1777.67L4094.38,1776.51L4093.65,1777.24L4094.27,1777.87C4094.44,1777.74 4094.64,1777.67 4094.86,1777.67L4095.54,1777.67Z" style="fill:rgb(242,240,236);"/>
                        </g>
                        <g transform="matrix(5.80101,0,0,0.691534,-50846.1,2919.29)">
                            <path d="M9518.57,751.215L9506.87,739.508L9506.16,740.215L9517.87,751.922L9518.57,751.215Z" style="fill:rgb(242,240,236);"/>
                        </g>
                        <g transform="matrix(7.2277,0,0,0.861609,-25255.7,1901.63)">
                            <path d="M4093.4,1780.86L4092.64,1780.86L4092.64,1782.77L4094.86,1782.77L4094.86,1785L4096.77,1785L4096.77,1784.24L4093.4,1780.86ZM4099,1780.86L4099,1782.59L4097.27,1780.86L4099,1780.86ZM4096.77,1780.36L4095.05,1778.64L4096.77,1778.64L4096.77,1780.36Z" style="fill:rgb(242,240,236);"/>
                        </g>
                    </g>
                </g>
                <g transform="matrix(1,0,0,1,231.287,-2.25597e-13)">
                    <g opacity="0.19">
                        <g transform="matrix(7.2277,0,0,0.861609,-25255.7,1901.63)">
                            <path d="M4092.46,1779.91L4091.72,1779.17L4089.56,1781.33L4088.99,1784.74L4092.4,1784.17L4092.82,1783.74L4092.64,1783.74C4092.1,1783.74 4091.67,1783.31 4091.67,1782.77L4091.67,1780.86C4091.67,1780.39 4092.01,1780 4092.46,1779.91ZM4096.68,1777.67L4096.77,1777.67C4097.31,1777.67 4097.74,1778.1 4097.74,1778.64L4097.74,1778.73L4097.79,1778.78L4098.69,1777.87C4099.13,1777.43 4099.13,1776.72 4098.69,1776.28L4097.45,1775.03C4097.01,1774.59 4096.3,1774.59 4095.86,1775.03L4094.95,1775.94L4096.68,1777.67ZM4095.54,1777.67L4094.38,1776.51L4093.65,1777.24L4094.27,1777.87C4094.44,1777.74 4094.64,1777.67 4094.86,1777.67L4095.54,1777.67Z" style="fill:rgb(242,240,236);"/>
                        </g>
                        <g transform="matrix(5.80101,0,0,0.691534,-50846.1,2919.29)">
                            <path d="M9518.57,751.215L9506.87,739.508L9506.16,740.215L9517.87,751.922L9518.57,751.215Z" style="fill:rgb(242,240,236);"/>
                        </g>
                        <g transform="matrix(7.2277,0,0,0.861609,-25255.7,1901.63)">
                            <path d="M4093.4,1780.86L4092.64,1780.86L4092.64,1782.77L4094.86,1782.77L4094.86,1785L4096.77,1785L4096.77,1784.24L4093.4,1780.86ZM4099,1780.86L4099,1782.59L4097.27,1780.86L4099,1780.86ZM4096.77,1780.36L4095.05,1778.64L4096.77,1778.64L4096.77,1780.36Z" style="fill:rgb(242,240,236);"/>
                        </g>
                    </g>
                </g>
            </g>
        </g>
    </g>
</svg>
