<?xml version="1.0" encoding="UTF-8" standalone="no"?>
<!DOCTYPE svg PUBLIC "-//W3C//DTD SVG 1.1//EN" "http://www.w3.org/Graphics/SVG/1.1/DTD/svg11.dtd">
<svg width="100%" height="100%" viewBox="0 0 48 16" version="1.1" xmlns="http://www.w3.org/2000/svg" xmlns:xlink="http://www.w3.org/1999/xlink" xml:space="preserve" xmlns:serif="http://www.serif.com/" style="fill-rule:evenodd;clip-rule:evenodd;stroke-linejoin:round;stroke-miterlimit:2;">
    <g transform="matrix(1,0,0,1,-43,-1297)">
        <g transform="matrix(1.13981,0,0,0.894792,0,0)">
            <g id="table_visible_off" transform="matrix(0.121385,0,0,1.29708,-481.402,-2997.42)">
                <g id="render-bounds" serif:id="render bounds" transform="matrix(34.693,0,0,0.372588,-69550,2036.79)">
                    <g transform="matrix(0.208333,-0,-0,2.3125,2128,3735)">
                    </g>
                </g>
                <g transform="matrix(7.2277,0,0,0.861609,3965.91,2310.9)">
                    <path d="M88.916,1304.87L88.916,1305C87.695,1307.2 85.44,1308.55 83,1308.55C80.56,1308.55 78.305,1307.2 77.084,1305L77.084,1304.87L78.17,1304.87C79.246,1306.54 81.052,1307.55 83,1307.55C84.948,1307.55 86.753,1306.54 87.83,1304.87L88.916,1304.87Z" style="fill:rgb(242,240,236);fill-opacity:0.19;"/>
                </g>
                <g transform="matrix(7.2277,0,0,0.861609,3849.66,2310.9)">
                    <path d="M88.916,1304.87L88.916,1305C87.695,1307.2 85.44,1308.55 83,1308.55C80.56,1308.55 78.305,1307.2 77.084,1305L77.084,1304.87L78.17,1304.87C79.246,1306.54 81.052,1307.55 83,1307.55C84.948,1307.55 86.753,1306.54 87.83,1304.87L88.916,1304.87Z" style="fill:rgb(242,240,236);fill-opacity:0.19;"/>
                </g>
                <g transform="matrix(7.2277,0,0,0.861609,3733.4,2310.9)">
                    <path d="M88.916,1304.87L88.916,1305C87.695,1307.2 85.44,1308.55 83,1308.55C80.56,1308.55 78.305,1307.2 77.084,1305L77.084,1304.87L78.17,1304.87C79.246,1306.54 81.052,1307.55 83,1307.55C84.948,1307.55 86.753,1306.54 87.83,1304.87L88.916,1304.87Z" style="fill:rgb(242,240,236);fill-opacity:0.19;"/>
                </g>
            </g>
        </g>
    </g>
</svg>
