<?xml version="1.0" encoding="UTF-8" standalone="no"?>
<!DOCTYPE svg PUBLIC "-//W3C//DTD SVG 1.1//EN" "http://www.w3.org/Graphics/SVG/1.1/DTD/svg11.dtd">
<svg width="100%" height="100%" viewBox="0 0 48 16" version="1.1" xmlns="http://www.w3.org/2000/svg" xmlns:xlink="http://www.w3.org/1999/xlink" xml:space="preserve" xmlns:serif="http://www.serif.com/" style="fill-rule:evenodd;clip-rule:evenodd;stroke-linejoin:round;stroke-miterlimit:2;">
    <g transform="matrix(1,0,0,1,-43,-1329)">
        <g transform="matrix(1.13981,0,0,0.894792,0,0)">
            <g id="table_visible_on" transform="matrix(0.121385,0,0,1.29708,-481.402,-2961.66)">
                <g>
                    <g transform="matrix(3.40489,0,0,0.395086,-8326.55,2639.1)">
                        <path d="M3731.06,2015.25C3728.47,2020.05 3723.68,2023 3718.5,2023C3713.32,2023 3708.53,2020.05 3705.94,2015.25C3708.53,2010.45 3713.32,2007.5 3718.5,2007.5C3723.68,2007.5 3728.47,2010.45 3731.06,2015.25ZM3728.57,2015.25C3726.26,2011.79 3722.52,2009.68 3718.5,2009.68C3714.48,2009.68 3710.74,2011.79 3708.43,2015.25C3710.74,2018.72 3714.48,2020.82 3718.5,2020.82C3722.52,2020.82 3726.26,2018.72 3728.57,2015.25Z" style="fill:rgb(211,208,200);"/>
                    </g>
                    <g transform="matrix(7.03563,0,0,0.838713,-21159.1,1752.77)">
                        <circle cx="3623.5" cy="2005.5" r="2.5" style="fill:rgb(211,208,200);"/>
                    </g>
                </g>
                <g transform="matrix(1,0,0,1,115.643,4.54747e-13)">
                    <g transform="matrix(3.40489,0,0,0.395086,-8326.55,2639.1)">
                        <path d="M3731.06,2015.25C3728.47,2020.05 3723.68,2023 3718.5,2023C3713.32,2023 3708.53,2020.05 3705.94,2015.25C3708.53,2010.45 3713.32,2007.5 3718.5,2007.5C3723.68,2007.5 3728.47,2010.45 3731.06,2015.25ZM3728.57,2015.25C3726.26,2011.79 3722.52,2009.68 3718.5,2009.68C3714.48,2009.68 3710.74,2011.79 3708.43,2015.25C3710.74,2018.72 3714.48,2020.82 3718.5,2020.82C3722.52,2020.82 3726.26,2018.72 3728.57,2015.25Z" style="fill:rgb(211,208,200);"/>
                    </g>
                    <g transform="matrix(7.03563,0,0,0.838713,-21159.1,1752.77)">
                        <circle cx="3623.5" cy="2005.5" r="2.5" style="fill:rgb(211,208,200);"/>
                    </g>
                </g>
                <g transform="matrix(1,0,0,1,231.287,4.54747e-13)">
                    <g transform="matrix(3.40489,0,0,0.395086,-8326.55,2639.1)">
                        <path d="M3731.06,2015.25C3728.47,2020.05 3723.68,2023 3718.5,2023C3713.32,2023 3708.53,2020.05 3705.94,2015.25C3708.53,2010.45 3713.32,2007.5 3718.5,2007.5C3723.68,2007.5 3728.47,2010.45 3731.06,2015.25ZM3728.57,2015.25C3726.26,2011.79 3722.52,2009.68 3718.5,2009.68C3714.48,2009.68 3710.74,2011.79 3708.43,2015.25C3710.74,2018.72 3714.48,2020.82 3718.5,2020.82C3722.52,2020.82 3726.26,2018.72 3728.57,2015.25Z" style="fill:rgb(211,208,200);"/>
                    </g>
                    <g transform="matrix(7.03563,0,0,0.838713,-21159.1,1752.77)">
                        <circle cx="3623.5" cy="2005.5" r="2.5" style="fill:rgb(211,208,200);"/>
                    </g>
                </g>
            </g>
        </g>
    </g>
</svg>
