<?xml version="1.0" encoding="UTF-8" standalone="no"?>
<!DOCTYPE svg PUBLIC "-//W3C//DTD SVG 1.1//EN" "http://www.w3.org/Graphics/SVG/1.1/DTD/svg11.dtd">
<svg width="100%" height="100%" viewBox="0 0 48 16" version="1.1" xmlns="http://www.w3.org/2000/svg" xmlns:xlink="http://www.w3.org/1999/xlink" xml:space="preserve" xmlns:serif="http://www.serif.com/" style="fill-rule:evenodd;clip-rule:evenodd;stroke-linejoin:round;stroke-miterlimit:2;">
    <g transform="matrix(1,0,0,1,-43,-1249)">
        <g transform="matrix(1.13981,0,0,0.894792,0,0)">
            <g id="table_solo_on" transform="matrix(0.121385,0,0,1.29708,-481.402,-3114.77)">
                <g transform="matrix(17.5495,0,0,0.765875,-25484.9,3235.82)">
                    <g transform="matrix(0.389769,0,0,1,1035.96,0)">
                        <g transform="matrix(12,0,0,12,1705.36,328.932)">
                        </g>
                        <text x="1697.66px" y="328.932px" style="font-family:'Inter-Regular', 'Inter';font-size:12px;fill:rgb(102,204,204);">S</text>
                    </g>
                </g>
                <g transform="matrix(17.5495,0,0,0.765875,-25369.3,3235.82)">
                    <g transform="matrix(0.389769,0,0,1,1035.96,0)">
                        <g transform="matrix(12,0,0,12,1705.36,328.932)">
                        </g>
                        <text x="1697.66px" y="328.932px" style="font-family:'Inter-Regular', 'Inter';font-size:12px;fill:rgb(102,204,204);">S</text>
                    </g>
                </g>
                <g transform="matrix(17.5495,0,0,0.765875,-25253.7,3235.82)">
                    <g transform="matrix(0.389769,0,0,1,1035.96,0)">
                        <g transform="matrix(12,0,0,12,1705.36,328.932)">
                        </g>
                        <text x="1697.66px" y="328.932px" style="font-family:'Inter-Regular', 'Inter';font-size:12px;fill:rgb(102,204,204);">S</text>
                    </g>
                </g>
            </g>
        </g>
    </g>
</svg>
