<?xml version="1.0" encoding="UTF-8" standalone="no"?>
<!DOCTYPE svg PUBLIC "-//W3C//DTD SVG 1.1//EN" "http://www.w3.org/Graphics/SVG/1.1/DTD/svg11.dtd">
<svg width="100%" height="100%" viewBox="0 0 48 16" version="1.1" xmlns="http://www.w3.org/2000/svg" xmlns:xlink="http://www.w3.org/1999/xlink" xml:space="preserve" xmlns:serif="http://www.serif.com/" style="fill-rule:evenodd;clip-rule:evenodd;stroke-linejoin:round;stroke-miterlimit:2;">
    <g transform="matrix(1,0,0,1,-43,-1201)">
        <g transform="matrix(1.13981,0,0,0.894792,0,0)">
            <g id="table_mute_off" transform="matrix(0.121385,0,0,1.29708,-481.402,-3104.71)">
                <g transform="matrix(6.62297,0,0,0.78952,-6934.53,3179.05)">
                    <g transform="matrix(12,0,0,12,1706.93,328.932)">
                    </g>
                    <text x="1696.09px" y="328.932px" style="font-family:'Inter-Regular', 'Inter';font-size:12px;fill:rgb(242,240,236);fill-opacity:0.19;">M</text>
                </g>
                <g transform="matrix(6.62297,0,0,0.78952,-6818.89,3179.05)">
                    <g transform="matrix(12,0,0,12,1706.93,328.932)">
                    </g>
                    <text x="1696.09px" y="328.932px" style="font-family:'Inter-Regular', 'Inter';font-size:12px;fill:rgb(242,240,236);fill-opacity:0.19;">M</text>
                </g>
                <g transform="matrix(6.62297,0,0,0.78952,-6703.24,3179.05)">
                    <g transform="matrix(12,0,0,12,1706.93,328.932)">
                    </g>
                    <text x="1696.09px" y="328.932px" style="font-family:'Inter-Regular', 'Inter';font-size:12px;fill:rgb(242,240,236);fill-opacity:0.19;">M</text>
                </g>
            </g>
        </g>
    </g>
</svg>
