<?xml version="1.0" encoding="UTF-8" standalone="no"?>
<!DOCTYPE svg PUBLIC "-//W3C//DTD SVG 1.1//EN" "http://www.w3.org/Graphics/SVG/1.1/DTD/svg11.dtd">
<svg width="100%" height="100%" viewBox="0 0 4 4" version="1.1" xmlns="http://www.w3.org/2000/svg" xmlns:xlink="http://www.w3.org/1999/xlink" xml:space="preserve" xmlns:serif="http://www.serif.com/" style="fill-rule:evenodd;clip-rule:evenodd;stroke-linejoin:round;stroke-miterlimit:2;">
    <g transform="matrix(1,0,0,1,-324,-33)">
        <g transform="matrix(1.13981,0,0,0.894792,0,0)">
            <g id="tcp_iconbg" transform="matrix(0.913,0,0,0.704449,163.184,0)">
                <g transform="matrix(0.5,0,0,0.5,116.754,2.37969)">
                    <rect x="31.711" y="99.947" width="7.688" height="12.692" style="fill:none;"/>
                    <clipPath id="_clip1">
                        <rect x="31.711" y="99.947" width="7.688" height="12.692"/>
                    </clipPath>
                    <g clip-path="url(#_clip1)">
                        <g transform="matrix(3.84375,0,0,3.17291,-95.1328,-99.9468)">
                            <rect x="33" y="63" width="1" height="1" style="fill:rgb(255,0,255);"/>
                        </g>
                        <g transform="matrix(-1.92188,-3.8857e-16,2.35362e-16,-3.17291,102.82,312.532)">
                            <rect x="33" y="63" width="1" height="1" style="fill:rgb(255,0,255);"/>
                        </g>
                        <g transform="matrix(-2.35362e-16,3.17291,-1.92188,2.03538e-16,154.711,-4.75937)">
                            <rect x="33" y="63" width="1" height="1" style="fill:rgb(255,0,255);"/>
                        </g>
                        <g transform="matrix(5.88405e-16,-6.34583,1.92188,1.75779e-16,-83.6016,322.051)">
                            <rect x="33" y="63" width="1" height="1" style="fill:rgb(255,0,255);"/>
                        </g>
                    </g>
                </g>
                <g transform="matrix(1.92188,0,0,3.17291,-133.57,-53.9395)">
                    <rect x="139" y="34" width="1" height="1" style="fill:rgb(30,30,30);"/>
                </g>
                <g id="n-1-divider-line" serif:id="n-1 divider line" transform="matrix(0.0171596,0,0,0.0661024,105.789,33.5139)">
                    <rect x="1675" y="333" width="56" height="24" style="fill:rgb(9,9,9);fill-opacity:0.32;"/>
                </g>
                <g id="n-1-divider-line1" serif:id="n-1 divider line" transform="matrix(0.0171596,0,0,0.132205,104.828,9.91536)">
                    <rect x="1675" y="333" width="56" height="24" style="fill:rgb(9,9,9);fill-opacity:0.32;"/>
                </g>
            </g>
        </g>
    </g>
</svg>
