<?xml version="1.0" encoding="UTF-8" standalone="no"?>
<!DOCTYPE svg PUBLIC "-//W3C//DTD SVG 1.1//EN" "http://www.w3.org/Graphics/SVG/1.1/DTD/svg11.dtd">
<svg width="100%" height="100%" viewBox="0 0 26 74" version="1.1" xmlns="http://www.w3.org/2000/svg" xmlns:xlink="http://www.w3.org/1999/xlink" xml:space="preserve" xmlns:serif="http://www.serif.com/" style="fill-rule:evenodd;clip-rule:evenodd;stroke-linejoin:round;stroke-miterlimit:2;">
    <g transform="matrix(1,0,0,1,-352,-326)">
        <g transform="matrix(1.13981,0,0,0.894792,0,0)">
            <g id="tcp_fxparm_empty" transform="matrix(0.913,0,0,0.704449,239.513,318.51)">
                <g opacity="0.15">
                    <g transform="matrix(0.149756,0,0,1.51748,-429.664,-2361.27)">
                        <path d="M3530,1603.09C3530,1601.94 3524.25,1601 3517.17,1601L3459.42,1601C3455.88,1601 3453,1601.47 3453,1602.05L3453,1622.95C3453,1623.53 3455.88,1624 3459.42,1624L3517.17,1624C3524.25,1624 3530,1623.06 3530,1621.91L3530,1603.09Z"/>
                    </g>
                    <g transform="matrix(0.880859,0,0,1.45425,-2963.77,-2274.58)">
                        <circle cx="3465" cy="1623" r="12"/>
                    </g>
                </g>
                <g transform="matrix(1,0,0,1,0,38.075)">
                    <g opacity="0.33">
                        <g transform="matrix(0.149756,0,0,1.51748,-429.664,-2361.27)">
                            <path d="M3530,1603.09C3530,1601.94 3524.25,1601 3517.17,1601L3459.42,1601C3455.88,1601 3453,1601.47 3453,1602.05L3453,1622.95C3453,1623.53 3455.88,1624 3459.42,1624L3517.17,1624C3524.25,1624 3530,1623.06 3530,1621.91L3530,1603.09Z"/>
                        </g>
                        <g transform="matrix(0.880859,0,0,1.45425,-2963.77,-2274.58)">
                            <circle cx="3465" cy="1623" r="12"/>
                        </g>
                    </g>
                </g>
                <g transform="matrix(1,0,0,1,0,76.1499)">
                    <g opacity="0.33">
                        <g transform="matrix(0.149756,0,0,1.51748,-429.664,-2361.27)">
                            <path d="M3530,1603.09C3530,1601.94 3524.25,1601 3517.17,1601L3459.42,1601C3455.88,1601 3453,1601.47 3453,1602.05L3453,1622.95C3453,1623.53 3455.88,1624 3459.42,1624L3517.17,1624C3524.25,1624 3530,1623.06 3530,1621.91L3530,1603.09Z"/>
                        </g>
                        <g transform="matrix(0.880859,0,0,1.45425,-2963.77,-2274.58)">
                            <circle cx="3465" cy="1623" r="12"/>
                        </g>
                    </g>
                </g>
                <g transform="matrix(3.25,0,0,9.25,-27.1465,-859.463)">
                    <rect x="31.711" y="99.947" width="7.688" height="12.692" style="fill:none;"/>
                    <clipPath id="_clip1">
                        <rect x="31.711" y="99.947" width="7.688" height="12.692"/>
                    </clipPath>
                    <g clip-path="url(#_clip1)">
                        <g transform="matrix(4.4351,0,0,0.171509,-114.647,89.1417)">
                            <rect x="33" y="63" width="1" height="1" style="fill:rgb(255,0,255);"/>
                        </g>
                        <g transform="matrix(-1.47837,-1.05019e-16,3.62095e-17,-0.171509,88.1845,123.444)">
                            <rect x="33" y="63" width="1" height="1" style="fill:rgb(255,0,255);"/>
                        </g>
                        <g transform="matrix(3.802e-16,4.11621,-0.295673,2.25061e-17,50.634,-35.8882)">
                            <rect x="33" y="63" width="1" height="1" style="fill:rgb(255,0,255);"/>
                        </g>
                        <g transform="matrix(7.2419e-17,-0.171509,0.295673,1.00017e-17,20.4754,118.298)">
                            <rect x="33" y="63" width="1" height="1" style="fill:rgb(255,0,255);"/>
                        </g>
                    </g>
                </g>
            </g>
        </g>
    </g>
</svg>
