<?xml version="1.0" encoding="UTF-8" standalone="no"?>
<!DOCTYPE svg PUBLIC "-//W3C//DTD SVG 1.1//EN" "http://www.w3.org/Graphics/SVG/1.1/DTD/svg11.dtd">
<svg width="100%" height="100%" viewBox="0 0 33 42" version="1.1" xmlns="http://www.w3.org/2000/svg" xmlns:xlink="http://www.w3.org/1999/xlink" xml:space="preserve" xmlns:serif="http://www.serif.com/" style="fill-rule:evenodd;clip-rule:evenodd;stroke-linejoin:round;stroke-miterlimit:2;">
    <g transform="matrix(1,0,0,1,-371,-417)">
        <g transform="matrix(1.13981,0,0,0.894792,0,0)">
            <g id="tcp_sendlist_meter" transform="matrix(1,0,0,1.3702,-149.147,-755.483)">
                <g transform="matrix(0.438668,0,0,0.0582595,240.829,842.432)">
                    <rect x="543" y="1094" width="4" height="14" style="fill:rgb(255,204,102);"/>
                </g>
                <g transform="matrix(3.76612,0,0,2.69914,355.211,621.716)">
                    <rect x="31.711" y="99.947" width="7.688" height="12.692" style="fill:none;"/>
                    <clipPath id="_clip1">
                        <rect x="31.711" y="99.947" width="7.688" height="12.692"/>
                    </clipPath>
                    <g clip-path="url(#_clip1)">
                        <g transform="matrix(1.16477,0,0,0.302182,-6.72656,80.9093)">
                            <rect x="33" y="63" width="1" height="1" style="fill:rgb(255,0,255);"/>
                        </g>
                        <g transform="matrix(-6.05682,-9.62173e-16,2.85287e-17,-0.302182,239.273,131.676)">
                            <rect x="33" y="63" width="1" height="1" style="fill:rgb(255,0,255);"/>
                        </g>
                    </g>
                </g>
            </g>
        </g>
    </g>
</svg>
