<?xml version="1.0" encoding="UTF-8" standalone="no"?>
<!DOCTYPE svg PUBLIC "-//W3C//DTD SVG 1.1//EN" "http://www.w3.org/Graphics/SVG/1.1/DTD/svg11.dtd">
<svg width="100%" height="100%" viewBox="0 0 3 4" version="1.1" xmlns="http://www.w3.org/2000/svg" xmlns:xlink="http://www.w3.org/1999/xlink" xml:space="preserve" xmlns:serif="http://www.serif.com/" style="fill-rule:evenodd;clip-rule:evenodd;stroke-linejoin:round;stroke-miterlimit:2;">
    <g transform="matrix(1,0,0,1,-750,-33)">
        <g transform="matrix(1.13981,0,0,0.894792,0,0)">
            <g id="tcp_mainbgsel" transform="matrix(0.913,0,0,0.704449,552.721,0)">
                <g transform="matrix(0.375,0,0,0.5,103.421,2.37969)">
                    <rect x="31.711" y="99.947" width="7.688" height="12.692" style="fill:none;"/>
                    <clipPath id="_clip1">
                        <rect x="31.711" y="99.947" width="7.688" height="12.692"/>
                    </clipPath>
                    <g clip-path="url(#_clip1)">
                        <g transform="matrix(2.5625,0,0,3.17291,-52.8516,-99.9468)">
                            <rect x="33" y="63" width="1" height="1" style="fill:rgb(255,0,255);"/>
                        </g>
                        <g transform="matrix(-5.125,-7.7714e-16,3.13816e-16,-3.17291,208.523,312.532)">
                            <rect x="33" y="63" width="1" height="1" style="fill:rgb(255,0,255);"/>
                        </g>
                        <g transform="matrix(-3.13816e-16,3.17291,-2.5625,2.03538e-16,195.711,-4.75937)">
                            <rect x="33" y="63" width="1" height="1" style="fill:rgb(255,0,255);"/>
                        </g>
                        <g transform="matrix(7.84539e-16,-6.34583,2.5625,1.75779e-16,-124.602,322.051)">
                            <rect x="33" y="63" width="1" height="1" style="fill:rgb(255,0,255);"/>
                        </g>
                    </g>
                </g>
                <g id="n-1-divider-line" serif:id="n-1 divider line" transform="matrix(0.0171596,0,0,0.0661024,87.5311,33.5139)">
                    <rect x="1675" y="333" width="56" height="24" style="fill:rgb(30,30,30);"/>
                </g>
            </g>
        </g>
    </g>
</svg>
