<?xml version="1.0" encoding="UTF-8" standalone="no"?>
<!DOCTYPE svg PUBLIC "-//W3C//DTD SVG 1.1//EN" "http://www.w3.org/Graphics/SVG/1.1/DTD/svg11.dtd">
<svg width="100%" height="100%" viewBox="0 0 66 18" version="1.1" xmlns="http://www.w3.org/2000/svg" xmlns:xlink="http://www.w3.org/1999/xlink" xml:space="preserve" xmlns:serif="http://www.serif.com/" style="fill-rule:evenodd;clip-rule:evenodd;stroke-linejoin:round;stroke-miterlimit:2;">
    <g transform="matrix(1,0,0,1,-489,-383)">
        <g transform="matrix(1.13981,0,0,0.894792,0,0)">
            <g id="track_env_latch" transform="matrix(0.913,0,0,0.704449,163.184,6.70547)">
                <g transform="matrix(1.37277,0,0,1.81309,-34.0446,494.521)">
                    <rect x="253" y="58" width="14" height="14" style="fill:rgb(242,240,236);fill-opacity:0.06;"/>
                </g>
                <g>
                    <g transform="matrix(0.960938,0,0,1.58646,-1586.51,-5.90661)">
                        <path d="M1966.73,389.869L1965.59,388.723L1964.68,388.723L1962,392.054L1962,394.946L1958,394.946L1958,390.946L1960.32,390.946L1963,387.616L1963,384.723L1967,384.723L1967,387.309L1967.27,387.575C1966.94,387.85 1966.73,388.262 1966.73,388.723L1966.73,389.869ZM1971.22,389.723L1972,389.723L1972,393.263L1971.22,393.263L1971.22,389.723ZM1968.41,388.723L1969.41,389.723L1969.72,389.723L1969.72,393.723L1968.23,393.723L1968.23,388.723L1968.41,388.723Z" style="fill:rgb(204,153,204);"/>
                    </g>
                    <g transform="matrix(0.960938,0,0,1.58646,18.2634,61.594)">
                        <path d="M298.226,353.451L298.226,346.175L299.715,346.175L299.715,352.215L302.855,352.215L302.855,353.451L298.226,353.451Z" style="fill:rgb(204,153,204);fill-rule:nonzero;"/>
                    </g>
                </g>
                <g transform="matrix(1,0,0,1,21.1406,0)">
                    <g transform="matrix(0.960938,0,0,1.58646,-1586.51,-5.90661)">
                        <path d="M1966.73,389.869L1965.59,388.723L1964.68,388.723L1962,392.054L1962,394.946L1958,394.946L1958,390.946L1960.32,390.946L1963,387.616L1963,384.723L1967,384.723L1967,387.309L1967.27,387.575C1966.94,387.85 1966.73,388.262 1966.73,388.723L1966.73,389.869ZM1971.22,389.723L1972,389.723L1972,393.263L1971.22,393.263L1971.22,389.723ZM1968.41,388.723L1969.41,389.723L1969.72,389.723L1969.72,393.723L1968.23,393.723L1968.23,388.723L1968.41,388.723Z" style="fill:rgb(204,153,204);"/>
                    </g>
                    <g transform="matrix(0.960938,0,0,1.58646,18.2634,61.594)">
                        <path d="M298.226,353.451L298.226,346.175L299.715,346.175L299.715,352.215L302.855,352.215L302.855,353.451L298.226,353.451Z" style="fill:rgb(204,153,204);fill-rule:nonzero;"/>
                    </g>
                </g>
                <g transform="matrix(1,0,0,1,42.2813,0)">
                    <g transform="matrix(0.960938,0,0,1.58646,-1586.51,-5.90661)">
                        <path d="M1966.73,389.869L1965.59,388.723L1964.68,388.723L1962,392.054L1962,394.946L1958,394.946L1958,390.946L1960.32,390.946L1963,387.616L1963,384.723L1967,384.723L1967,387.309L1967.27,387.575C1966.94,387.85 1966.73,388.262 1966.73,388.723L1966.73,389.869ZM1971.22,389.723L1972,389.723L1972,393.263L1971.22,393.263L1971.22,389.723ZM1968.41,388.723L1969.41,389.723L1969.72,389.723L1969.72,393.723L1968.23,393.723L1968.23,388.723L1968.41,388.723Z" style="fill:rgb(30,30,30);"/>
                    </g>
                    <g transform="matrix(0.960938,0,0,1.58646,18.2634,61.594)">
                        <path d="M298.226,353.451L298.226,346.175L299.715,346.175L299.715,352.215L302.855,352.215L302.855,353.451L298.226,353.451Z" style="fill:rgb(30,30,30);fill-rule:nonzero;"/>
                    </g>
                </g>
            </g>
        </g>
    </g>
</svg>
