<?xml version="1.0" encoding="UTF-8" standalone="no"?>
<!DOCTYPE svg PUBLIC "-//W3C//DTD SVG 1.1//EN" "http://www.w3.org/Graphics/SVG/1.1/DTD/svg11.dtd">
<svg width="100%" height="100%" viewBox="0 0 54 18" version="1.1" xmlns="http://www.w3.org/2000/svg" xmlns:xlink="http://www.w3.org/1999/xlink" xml:space="preserve" xmlns:serif="http://www.serif.com/" style="fill-rule:evenodd;clip-rule:evenodd;stroke-linejoin:round;stroke-miterlimit:2;">
    <g transform="matrix(1,0,0,1,-457,-232)">
        <g transform="matrix(1.13981,0,0,0.894792,0,0)">
            <g id="track_mute_on" transform="matrix(0.913,0,0,0.704449,196.523,174.342)">
                <g id="old">
                    <g transform="matrix(0.960938,0,0,1.58646,-1384.85,-381.069)">
                        <g transform="matrix(12,0,0,12,1706.93,328.932)">
                        </g>
                        <text x="1696.09px" y="328.932px" style="font-family:'Inter-Regular', 'Inter';font-size:12px;fill:rgb(242,119,122);">M</text>
                    </g>
                    <g transform="matrix(0.960938,0,0,1.58646,-1402.15,-381.069)">
                        <g transform="matrix(12,0,0,12,1706.93,328.932)">
                        </g>
                        <text x="1696.09px" y="328.932px" style="font-family:'Inter-Regular', 'Inter';font-size:12px;fill:rgb(242,119,122);">M</text>
                    </g>
                    <g transform="matrix(0.960938,0,0,1.58646,-36.5156,-249.074)">
                        <rect x="272" y="248" width="16" height="1" style="fill:rgb(242,119,122);"/>
                    </g>
                    <g transform="matrix(0.960938,0,0,1.58646,-19.2188,-249.074)">
                        <rect x="272" y="248" width="16" height="1" style="fill:rgb(242,119,122);"/>
                    </g>
                    <g transform="matrix(0.960938,0,0,1.58646,-1.92188,-249.074)">
                        <rect x="272" y="248" width="16" height="1" style="fill:rgb(30,30,30);"/>
                    </g>
                </g>
                <g transform="matrix(0.960938,0,0,1.58646,-1367.55,-381.069)">
                    <g transform="matrix(12,0,0,12,1706.93,328.932)">
                    </g>
                    <text x="1696.09px" y="328.932px" style="font-family:'Inter-Regular', 'Inter';font-size:12px;fill:rgb(30,30,30);">M</text>
                </g>
            </g>
        </g>
    </g>
</svg>
