<?xml version="1.0" encoding="UTF-8" standalone="no"?>
<!DOCTYPE svg PUBLIC "-//W3C//DTD SVG 1.1//EN" "http://www.w3.org/Graphics/SVG/1.1/DTD/svg11.dtd">
<svg width="100%" height="100%" viewBox="0 0 45 17" version="1.1" xmlns="http://www.w3.org/2000/svg" xmlns:xlink="http://www.w3.org/1999/xlink" xml:space="preserve" xmlns:serif="http://www.serif.com/" style="fill-rule:evenodd;clip-rule:evenodd;stroke-linejoin:round;stroke-miterlimit:2;">
    <g transform="matrix(1,0,0,1,-281,-214)">
        <g transform="matrix(1.13981,0,0,0.894792,0,0)">
            <g transform="matrix(0.91488,0,0,1.41177,-3412.38,-5082.26)">
                <g id="track_fcomp_small">
                    <g>
                        <g transform="matrix(0.958963,4.38086e-16,5.50672e-16,0.791618,3526.77,2485.5)">
                            <path d="M503.629,1626.63L496.629,1633.63L503.629,1633.63L503.629,1626.63Z" style="fill:rgb(242,240,236);fill-opacity:0.38;"/>
                        </g>
                        <g transform="matrix(0.958963,4.38086e-16,5.50672e-16,0.791618,3541.15,2485.5)">
                            <path d="M503.629,1626.63L496.629,1633.63L503.629,1633.63L503.629,1626.63Z" style="fill:rgb(242,240,236);fill-opacity:0.38;"/>
                        </g>
                        <g transform="matrix(0.958963,4.38086e-16,5.50672e-16,0.791618,3555.54,2485.5)">
                            <path d="M503.629,1626.63L496.629,1633.63L503.629,1633.63L503.629,1626.63Z" style="fill:rgb(242,240,236);fill-opacity:0.38;"/>
                        </g>
                    </g>
                </g>
            </g>
        </g>
    </g>
</svg>
