<?xml version="1.0" encoding="UTF-8" standalone="no"?>
<!DOCTYPE svg PUBLIC "-//W3C//DTD SVG 1.1//EN" "http://www.w3.org/Graphics/SVG/1.1/DTD/svg11.dtd">
<svg width="100%" height="100%" viewBox="0 0 42 14" version="1.1" xmlns="http://www.w3.org/2000/svg" xmlns:xlink="http://www.w3.org/1999/xlink" xml:space="preserve" xmlns:serif="http://www.serif.com/" style="fill-rule:evenodd;clip-rule:evenodd;stroke-linejoin:round;stroke-miterlimit:2;">
    <g transform="matrix(1,0,0,1,-359,-73)">
        <g transform="matrix(1.13981,0,0,0.894792,0,0)">
            <g id="track_recarm_auto" transform="matrix(0.913,0,0,0.704449,243.022,32.4098)">
                <g transform="matrix(0.960938,0,0,1.58646,-89.5841,-70.2424)">
                    <g transform="matrix(10,0,0,10,185.959,98.9139)">
                    </g>
                    <text x="178.493px" y="98.914px" style="font-family:'Inter-Bold', 'Inter';font-weight:700;font-size:10px;fill:rgb(242,240,236);fill-opacity:0.19;">A</text>
                </g>
                <g transform="matrix(0.960938,0,0,1.58646,-76.131,-70.2424)">
                    <g transform="matrix(10,0,0,10,185.959,98.9139)">
                    </g>
                    <text x="178.493px" y="98.914px" style="font-family:'Inter-Bold', 'Inter';font-weight:700;font-size:10px;fill:rgb(116,115,105);">A</text>
                </g>
                <g transform="matrix(0.960938,0,0,1.58646,-62.6779,-70.2424)">
                    <g transform="matrix(10,0,0,10,185.959,98.9139)">
                    </g>
                    <text x="178.493px" y="98.914px" style="font-family:'Inter-Bold', 'Inter';font-weight:700;font-size:10px;fill:rgb(30,30,30);">A</text>
                </g>
            </g>
        </g>
    </g>
</svg>
