<?xml version="1.0" encoding="UTF-8" standalone="no"?>
<!DOCTYPE svg PUBLIC "-//W3C//DTD SVG 1.1//EN" "http://www.w3.org/Graphics/SVG/1.1/DTD/svg11.dtd">
<svg width="100%" height="100%" viewBox="0 0 45 15" version="1.1" xmlns="http://www.w3.org/2000/svg" xmlns:xlink="http://www.w3.org/1999/xlink" xml:space="preserve" xmlns:serif="http://www.serif.com/" style="fill-rule:evenodd;clip-rule:evenodd;stroke-linejoin:round;stroke-miterlimit:2;">
    <g transform="matrix(1,0,0,1,-281,-267)">
        <g transform="matrix(1.13981,0,0,0.894792,0,0)">
            <g id="track_folder_last" transform="matrix(0.121385,0,0,1.29708,-291.021,-4861.55)">
                <g id="is-end" serif:id="is end" transform="matrix(21.3621,0,0,2.14741,-80837.2,1657.97)">
                    <g opacity="0.38">
                        <g transform="matrix(0.338343,0,0,0.200616,3824.65,747.617)">
                            <rect x="497" y="1671" width="7" height="2" style="fill:rgb(242,240,236);"/>
                        </g>
                        <g transform="matrix(0.435012,0,0,0.200616,3776.26,748.821)">
                            <rect x="497" y="1671" width="7" height="2" style="fill:rgb(242,240,236);"/>
                        </g>
                    </g>
                </g>
                <g id="is-end1" serif:id="is end" transform="matrix(21.3621,0,0,2.14741,-80728.8,1657.97)">
                    <g opacity="0.38">
                        <g transform="matrix(0.338343,0,0,0.200616,3824.65,747.617)">
                            <rect x="497" y="1671" width="7" height="2" style="fill:rgb(242,240,236);"/>
                        </g>
                        <g transform="matrix(0.435012,0,0,0.200616,3776.26,748.821)">
                            <rect x="497" y="1671" width="7" height="2" style="fill:rgb(242,240,236);"/>
                        </g>
                    </g>
                </g>
                <g id="is-end2" serif:id="is end" transform="matrix(21.3621,0,0,2.14741,-80620.4,1657.97)">
                    <g opacity="0.38">
                        <g transform="matrix(0.338343,0,0,0.200616,3824.65,747.617)">
                            <rect x="497" y="1671" width="7" height="2" style="fill:rgb(242,240,236);"/>
                        </g>
                        <g transform="matrix(0.435012,0,0,0.200616,3776.26,748.821)">
                            <rect x="497" y="1671" width="7" height="2" style="fill:rgb(242,240,236);"/>
                        </g>
                    </g>
                </g>
            </g>
        </g>
    </g>
</svg>
