<?xml version="1.0" encoding="UTF-8" standalone="no"?>
<!DOCTYPE svg PUBLIC "-//W3C//DTD SVG 1.1//EN" "http://www.w3.org/Graphics/SVG/1.1/DTD/svg11.dtd">
<svg width="100%" height="100%" viewBox="0 0 45 17" version="1.1" xmlns="http://www.w3.org/2000/svg" xmlns:xlink="http://www.w3.org/1999/xlink" xml:space="preserve" xmlns:serif="http://www.serif.com/" style="fill-rule:evenodd;clip-rule:evenodd;stroke-linejoin:round;stroke-miterlimit:2;">
    <g transform="matrix(1,0,0,1,-281,-231)">
        <g transform="matrix(1.13981,0,0,0.894792,0,0)">
            <g id="track_fcomp_tiny" transform="matrix(0.121385,0,0,1.29708,-289.266,-4803.43)">
                <g transform="matrix(5.11076,-0.60925,5.11076,0.60925,-6438.03,3221.02)">
                    <path d="M503.629,1626.63L496.629,1633.63L503.629,1633.63L503.629,1626.63Z" style="fill:rgb(242,240,236);fill-opacity:0.38;"/>
                </g>
                <g transform="matrix(5.11076,-0.60925,5.11076,0.60925,-6329.62,3221.02)">
                    <path d="M503.629,1626.63L496.629,1633.63L503.629,1633.63L503.629,1626.63Z" style="fill:rgb(242,240,236);fill-opacity:0.38;"/>
                </g>
                <g transform="matrix(5.11076,-0.60925,5.11076,0.60925,-6221.2,3221.02)">
                    <path d="M503.629,1626.63L496.629,1633.63L503.629,1633.63L503.629,1626.63Z" style="fill:rgb(242,240,236);fill-opacity:0.38;"/>
                </g>
            </g>
        </g>
    </g>
</svg>
