<?xml version="1.0" encoding="UTF-8" standalone="no"?>
<!DOCTYPE svg PUBLIC "-//W3C//DTD SVG 1.1//EN" "http://www.w3.org/Graphics/SVG/1.1/DTD/svg11.dtd">
<svg width="100%" height="100%" viewBox="0 0 42 14" version="1.1" xmlns="http://www.w3.org/2000/svg" xmlns:xlink="http://www.w3.org/1999/xlink" xml:space="preserve" xmlns:serif="http://www.serif.com/" style="fill-rule:evenodd;clip-rule:evenodd;stroke-linejoin:round;stroke-miterlimit:2;">
    <g transform="matrix(1,0,0,1,-359,-179)">
        <g transform="matrix(1.13981,0,0,0.894792,0,0)">
            <g id="track_fx_in_empty" transform="matrix(0.913,0,0,0.704449,243.022,150.873)">
                <g transform="matrix(0.960938,0,0,1.58646,-1550.17,-435.733)">
                    <g transform="matrix(9,0,0,9,1708.02,328.932)">
                    </g>
                    <text x="1696.09px" y="328.932px" style="font-family:'Inter-BoldItalic', 'Inter';font-weight:700;font-style:italic;font-size:9px;fill:rgb(242,240,236);fill-opacity:0.19;">FX</text>
                </g>
                <g transform="matrix(0.960938,0,0,1.58646,-1536.72,-435.733)">
                    <g transform="matrix(9,0,0,9,1708.02,328.932)">
                    </g>
                    <text x="1696.09px" y="328.932px" style="font-family:'Inter-BoldItalic', 'Inter';font-weight:700;font-style:italic;font-size:9px;fill:rgb(116,115,105);">FX</text>
                </g>
                <g transform="matrix(0.960938,0,0,1.58646,-1523.27,-435.733)">
                    <g transform="matrix(9,0,0,9,1708.02,328.932)">
                    </g>
                    <text x="1696.09px" y="328.932px" style="font-family:'Inter-BoldItalic', 'Inter';font-weight:700;font-style:italic;font-size:9px;fill:rgb(30,30,30);">FX</text>
                </g>
            </g>
        </g>
    </g>
</svg>
