<?xml version="1.0" encoding="UTF-8" standalone="no"?>
<!DOCTYPE svg PUBLIC "-//W3C//DTD SVG 1.1//EN" "http://www.w3.org/Graphics/SVG/1.1/DTD/svg11.dtd">
<svg width="100%" height="100%" viewBox="0 0 66 18" version="1.1" xmlns="http://www.w3.org/2000/svg" xmlns:xlink="http://www.w3.org/1999/xlink" xml:space="preserve" xmlns:serif="http://www.serif.com/" style="fill-rule:evenodd;clip-rule:evenodd;stroke-linejoin:round;stroke-miterlimit:2;">
    <g transform="matrix(1,0,0,1,-489,-365)">
        <g transform="matrix(1.13981,0,0,0.894792,0,0)">
            <g id="track_env_touch" transform="matrix(0.913,0,0,0.704449,163.184,6.70547)">
                <g transform="matrix(1.37277,0,0,1.81309,-34.0446,465.965)">
                    <rect x="253" y="58" width="14" height="14" style="fill:rgb(242,240,236);fill-opacity:0.06;"/>
                </g>
                <g>
                    <g transform="matrix(0.960938,0,0,1.58646,-1586.51,-34.4628)">
                        <path d="M1965.42,388.723L1964.68,388.723L1962,392.054L1962,394.946L1958,394.946L1958,390.946L1960.32,390.946L1963,387.616L1963,384.723L1967,384.723L1967,387.223L1966.92,387.223C1966.09,387.223 1965.42,387.895 1965.42,388.723ZM1968.41,388.723L1969.41,389.723L1972,389.723L1972,389.958L1970.64,389.958L1970.64,393.723L1969.14,393.723L1969.14,389.958L1966.92,389.958L1966.92,388.723L1968.41,388.723Z" style="fill:rgb(255,204,102);"/>
                    </g>
                    <g transform="matrix(0.960938,0,0,1.58646,18.2634,33.0378)">
                        <path d="M296.912,347.41L296.912,346.175L302.855,346.175L302.855,347.41L300.633,347.41L300.633,353.451L299.139,353.451L299.139,347.41L296.912,347.41Z" style="fill:rgb(255,204,102);fill-rule:nonzero;"/>
                    </g>
                </g>
                <g transform="matrix(1,0,0,1,21.1406,0)">
                    <g transform="matrix(0.960938,0,0,1.58646,-1586.51,-34.4628)">
                        <path d="M1965.42,388.723L1964.68,388.723L1962,392.054L1962,394.946L1958,394.946L1958,390.946L1960.32,390.946L1963,387.616L1963,384.723L1967,384.723L1967,387.223L1966.92,387.223C1966.09,387.223 1965.42,387.895 1965.42,388.723ZM1968.41,388.723L1969.41,389.723L1972,389.723L1972,389.958L1970.64,389.958L1970.64,393.723L1969.14,393.723L1969.14,389.958L1966.92,389.958L1966.92,388.723L1968.41,388.723Z" style="fill:rgb(255,204,102);"/>
                    </g>
                    <g transform="matrix(0.960938,0,0,1.58646,18.2634,33.0378)">
                        <path d="M296.912,347.41L296.912,346.175L302.855,346.175L302.855,347.41L300.633,347.41L300.633,353.451L299.139,353.451L299.139,347.41L296.912,347.41Z" style="fill:rgb(255,204,102);fill-rule:nonzero;"/>
                    </g>
                </g>
                <g transform="matrix(1,0,0,1,42.2813,0)">
                    <g transform="matrix(0.960938,0,0,1.58646,-1586.51,-34.4628)">
                        <path d="M1965.42,388.723L1964.68,388.723L1962,392.054L1962,394.946L1958,394.946L1958,390.946L1960.32,390.946L1963,387.616L1963,384.723L1967,384.723L1967,387.223L1966.92,387.223C1966.09,387.223 1965.42,387.895 1965.42,388.723ZM1968.41,388.723L1969.41,389.723L1972,389.723L1972,389.958L1970.64,389.958L1970.64,393.723L1969.14,393.723L1969.14,389.958L1966.92,389.958L1966.92,388.723L1968.41,388.723Z" style="fill:rgb(30,30,30);"/>
                    </g>
                    <g transform="matrix(0.960938,0,0,1.58646,18.2634,33.0378)">
                        <path d="M296.912,347.41L296.912,346.175L302.855,346.175L302.855,347.41L300.633,347.41L300.633,353.451L299.139,353.451L299.139,347.41L296.912,347.41Z" style="fill:rgb(30,30,30);fill-rule:nonzero;"/>
                    </g>
                </g>
            </g>
        </g>
    </g>
</svg>
