<?xml version="1.0" encoding="UTF-8" standalone="no"?>
<!DOCTYPE svg PUBLIC "-//W3C//DTD SVG 1.1//EN" "http://www.w3.org/Graphics/SVG/1.1/DTD/svg11.dtd">
<svg width="100%" height="100%" viewBox="0 0 66 18" version="1.1" xmlns="http://www.w3.org/2000/svg" xmlns:xlink="http://www.w3.org/1999/xlink" xml:space="preserve" xmlns:serif="http://www.serif.com/" style="fill-rule:evenodd;clip-rule:evenodd;stroke-linejoin:round;stroke-miterlimit:2;">
    <g transform="matrix(1,0,0,1,-489,-329)">
        <g transform="matrix(1.13981,0,0,0.894792,0,0)">
            <g id="track_env" transform="matrix(0.913,0,0,0.704449,163.184,6.70547)">
                <g transform="matrix(1.37277,0,0,1.81309,-34.0446,408.853)">
                    <rect x="253" y="58" width="14" height="14" style="fill:rgb(242,240,236);fill-opacity:0.06;"/>
                </g>
                <g transform="matrix(0.960938,0,0,1.58646,-1586.51,-91.5753)">
                    <g opacity="0.19">
                        <g transform="matrix(1.33333,0,0,0.947162,-652.667,63.2793)">
                            <rect x="1958" y="345.946" width="3" height="4.223" style="fill:rgb(242,240,236);"/>
                        </g>
                        <g transform="matrix(1.33333,0,0,0.947162,-647.667,57.0561)">
                            <rect x="1958" y="345.946" width="3" height="4.223" style="fill:rgb(242,240,236);"/>
                        </g>
                        <g transform="matrix(1.33333,0,0,0.947162,-642.667,62.0561)">
                            <rect x="1958" y="345.946" width="3" height="4.223" style="fill:rgb(242,240,236);"/>
                        </g>
                        <g transform="matrix(1,0,0,1,0,45)">
                            <path d="M1971.41,346.723L1970,348.137L1963.59,341.723L1965,340.309L1971.41,346.723Z" style="fill:rgb(242,240,236);"/>
                        </g>
                        <g transform="matrix(1,0,0,1,0,45)">
                            <path d="M1960.15,349.352L1958.59,348.1L1964.85,340.317L1966.41,341.57L1960.15,349.352Z" style="fill:rgb(242,240,236);"/>
                        </g>
                    </g>
                </g>
                <g transform="matrix(0.960938,0,0,1.58646,-1565.37,-91.5753)">
                    <g opacity="0.19">
                        <g transform="matrix(1.33333,0,0,0.947162,-652.667,63.2793)">
                            <rect x="1958" y="345.946" width="3" height="4.223" style="fill:rgb(242,240,236);"/>
                        </g>
                        <g transform="matrix(1.33333,0,0,0.947162,-647.667,57.0561)">
                            <rect x="1958" y="345.946" width="3" height="4.223" style="fill:rgb(242,240,236);"/>
                        </g>
                        <g transform="matrix(1.33333,0,0,0.947162,-642.667,62.0561)">
                            <rect x="1958" y="345.946" width="3" height="4.223" style="fill:rgb(242,240,236);"/>
                        </g>
                        <g transform="matrix(1,0,0,1,0,45)">
                            <path d="M1971.41,346.723L1970,348.137L1963.59,341.723L1965,340.309L1971.41,346.723Z" style="fill:rgb(242,240,236);"/>
                        </g>
                        <g transform="matrix(1,0,0,1,0,45)">
                            <path d="M1960.15,349.352L1958.59,348.1L1964.85,340.317L1966.41,341.57L1960.15,349.352Z" style="fill:rgb(242,240,236);"/>
                        </g>
                    </g>
                </g>
                <g transform="matrix(0.960938,0,0,1.58646,-1544.23,-91.5753)">
                    <g transform="matrix(1.33333,0,0,0.947162,-652.667,63.2793)">
                        <rect x="1958" y="345.946" width="3" height="4.223" style="fill:rgb(30,30,30);"/>
                    </g>
                    <g transform="matrix(1.33333,0,0,0.947162,-647.667,57.0561)">
                        <rect x="1958" y="345.946" width="3" height="4.223" style="fill:rgb(30,30,30);"/>
                    </g>
                    <g transform="matrix(1.33333,0,0,0.947162,-642.667,62.0561)">
                        <rect x="1958" y="345.946" width="3" height="4.223" style="fill:rgb(30,30,30);"/>
                    </g>
                    <g transform="matrix(1,0,0,1,0,45)">
                        <path d="M1971.41,346.723L1970,348.137L1963.59,341.723L1965,340.309L1971.41,346.723Z" style="fill:rgb(30,30,30);"/>
                    </g>
                    <g transform="matrix(1,0,0,1,0,45)">
                        <path d="M1960.15,349.352L1958.59,348.1L1964.85,340.317L1966.41,341.57L1960.15,349.352Z" style="fill:rgb(30,30,30);"/>
                    </g>
                </g>
            </g>
        </g>
    </g>
</svg>
