<?xml version="1.0" encoding="UTF-8" standalone="no"?>
<!DOCTYPE svg PUBLIC "-//W3C//DTD SVG 1.1//EN" "http://www.w3.org/Graphics/SVG/1.1/DTD/svg11.dtd">
<svg width="100%" height="100%" viewBox="0 0 39 18" version="1.1" xmlns="http://www.w3.org/2000/svg" xmlns:xlink="http://www.w3.org/1999/xlink" xml:space="preserve" xmlns:serif="http://www.serif.com/" style="fill-rule:evenodd;clip-rule:evenodd;stroke-linejoin:round;stroke-miterlimit:2;">
    <g transform="matrix(1,0,0,1,-458,-463)">
        <g transform="matrix(1.13981,0,0,0.894792,0,0)">
            <g id="track_phase_inv" transform="matrix(0.913,0,0,0.704449,163.184,0)">
                <g transform="matrix(0.755022,0,0,1.81309,83.8075,630.957)">
                    <rect x="253" y="58" width="14" height="14" style="fill:rgb(242,240,236);fill-opacity:0.06;"/>
                </g>
                <g transform="matrix(0.960938,0,0,1.58646,-1637.44,130.529)">
                    <g transform="matrix(0.726968,0,0,0.726968,545.419,138.917)">
                        <path d="M1976.82,340.317C1979.47,340.317 1981.63,342.475 1981.63,345.132C1981.63,347.789 1979.47,349.946 1976.82,349.946C1974.16,349.946 1972,347.789 1972,345.132C1972,342.475 1974.16,340.317 1976.82,340.317ZM1976.82,341.693C1974.92,341.693 1973.38,343.234 1973.38,345.132C1973.38,347.03 1974.92,348.571 1976.82,348.571C1978.71,348.571 1980.25,347.03 1980.25,345.132C1980.25,343.234 1978.71,341.693 1976.82,341.693Z" style="fill:rgb(204,153,204);"/>
                    </g>
                    <g transform="matrix(0.707107,0.707107,-0.707107,0.707107,819.309,-1256.33)">
                        <rect x="1986" y="337" width="1" height="9" style="fill:rgb(204,153,204);"/>
                    </g>
                </g>
                <g transform="matrix(0.960938,0,0,1.58646,-1624.95,130.529)">
                    <g transform="matrix(0.726968,0,0,0.726968,545.419,138.917)">
                        <path d="M1976.82,340.317C1979.47,340.317 1981.63,342.475 1981.63,345.132C1981.63,347.789 1979.47,349.946 1976.82,349.946C1974.16,349.946 1972,347.789 1972,345.132C1972,342.475 1974.16,340.317 1976.82,340.317ZM1976.82,341.693C1974.92,341.693 1973.38,343.234 1973.38,345.132C1973.38,347.03 1974.92,348.571 1976.82,348.571C1978.71,348.571 1980.25,347.03 1980.25,345.132C1980.25,343.234 1978.71,341.693 1976.82,341.693Z" style="fill:rgb(204,153,204);"/>
                    </g>
                    <g transform="matrix(0.707107,0.707107,-0.707107,0.707107,819.309,-1256.33)">
                        <rect x="1986" y="337" width="1" height="9" style="fill:rgb(204,153,204);"/>
                    </g>
                </g>
                <g transform="matrix(0.960938,0,0,1.58646,-1612.45,130.529)">
                    <g transform="matrix(0.726968,0,0,0.726968,545.419,138.917)">
                        <path d="M1976.82,340.317C1979.47,340.317 1981.63,342.475 1981.63,345.132C1981.63,347.789 1979.47,349.946 1976.82,349.946C1974.16,349.946 1972,347.789 1972,345.132C1972,342.475 1974.16,340.317 1976.82,340.317ZM1976.82,341.693C1974.92,341.693 1973.38,343.234 1973.38,345.132C1973.38,347.03 1974.92,348.571 1976.82,348.571C1978.71,348.571 1980.25,347.03 1980.25,345.132C1980.25,343.234 1978.71,341.693 1976.82,341.693Z" style="fill:rgb(30,30,30);"/>
                    </g>
                    <g transform="matrix(0.707107,0.707107,-0.707107,0.707107,819.309,-1256.33)">
                        <rect x="1986" y="337" width="1" height="9" style="fill:rgb(30,30,30);"/>
                    </g>
                </g>
            </g>
        </g>
    </g>
</svg>
