<?xml version="1.0" encoding="UTF-8" standalone="no"?>
<!DOCTYPE svg PUBLIC "-//W3C//DTD SVG 1.1//EN" "http://www.w3.org/Graphics/SVG/1.1/DTD/svg11.dtd">
<svg width="100%" height="100%" viewBox="0 0 42 14" version="1.1" xmlns="http://www.w3.org/2000/svg" xmlns:xlink="http://www.w3.org/1999/xlink" xml:space="preserve" xmlns:serif="http://www.serif.com/" style="fill-rule:evenodd;clip-rule:evenodd;stroke-linejoin:round;stroke-miterlimit:2;">
    <g transform="matrix(1,0,0,1,-359,-156)">
        <g transform="matrix(1.13981,0,0,0.894792,0,0)">
            <g id="track_monitor_auto" transform="matrix(0.913,0,0,0.704449,243.022,125.169)">
                <g transform="matrix(0.960938,0,0,1.58646,-1570.17,-536.222)">
                    <path d="M1720.46,391.228L1720,391L1718,391L1718,387L1720,387L1724,385L1724,385.5L1723.49,385.5C1722.84,385.5 1722.27,385.908 1722.07,386.515L1720.46,391.228ZM1727,386.92L1727,386L1728,386L1728,389.775L1727,386.92ZM1725,387L1725.44,387L1726,388.603L1726,391L1725.24,391L1725.16,390.765C1725.11,390.59 1725.06,390.409 1725,390.222L1725,387ZM1724,387L1724,389.952C1723.92,390.24 1723.85,390.511 1723.77,390.765L1723.56,391.419L1724,391.419L1724,392.586L1723.19,392.586L1723.18,392.593L1721.81,391.905L1723.49,387L1724,387ZM1727.19,392L1727,392L1727,391.457L1727.19,392Z" style="fill:rgb(160,159,147);"/>
                </g>
                <g transform="matrix(0.960938,0,0,1.58646,-1556.72,-536.222)">
                    <path d="M1720.46,391.228L1720,391L1718,391L1718,387L1720,387L1724,385L1724,385.5L1723.49,385.5C1722.84,385.5 1722.27,385.908 1722.07,386.515L1720.46,391.228ZM1727,386.92L1727,386L1728,386L1728,389.775L1727,386.92ZM1725,387L1725.44,387L1726,388.603L1726,391L1725.24,391L1725.16,390.765C1725.11,390.59 1725.06,390.409 1725,390.222L1725,387ZM1724,387L1724,389.952C1723.92,390.24 1723.85,390.511 1723.77,390.765L1723.56,391.419L1724,391.419L1724,392.586L1723.19,392.586L1723.18,392.593L1721.81,391.905L1723.49,387L1724,387ZM1727.19,392L1727,392L1727,391.457L1727.19,392Z" style="fill:rgb(211,208,200);"/>
                </g>
                <g transform="matrix(0.960938,0,0,1.58646,-68.0022,-217.976)">
                    <path d="M171.766,193.673L174.252,186.398L176.205,186.398L178.754,193.673L177.099,193.673L176.537,191.984L173.954,191.984L173.412,193.673L171.766,193.673ZM174.325,190.817L176.151,190.817L175.932,190.163C175.814,189.792 175.697,189.39 175.58,188.957C175.463,188.524 175.341,188.06 175.214,187.565C175.093,188.066 174.978,188.533 174.867,188.966C174.756,189.399 174.646,189.798 174.535,190.163L174.325,190.817Z" style="fill:rgb(211,208,200);fill-rule:nonzero;"/>
                </g>
                <g transform="matrix(0.960938,0,0,1.58646,-81.4553,-217.976)">
                    <path d="M171.766,193.673L174.252,186.398L176.205,186.398L178.754,193.673L177.099,193.673L176.537,191.984L173.954,191.984L173.412,193.673L171.766,193.673ZM174.325,190.817L176.151,190.817L175.932,190.163C175.814,189.792 175.697,189.39 175.58,188.957C175.463,188.524 175.341,188.06 175.214,187.565C175.093,188.066 174.978,188.533 174.867,188.966C174.756,189.399 174.646,189.798 174.535,190.163L174.325,190.817Z" style="fill:rgb(160,159,147);fill-rule:nonzero;"/>
                </g>
                <g transform="matrix(0.960938,0,0,1.58646,-1543.27,-536.222)">
                    <path d="M1720.46,391.228L1720,391L1718,391L1718,387L1720,387L1724,385L1724,385.5L1723.49,385.5C1722.84,385.5 1722.27,385.908 1722.07,386.515L1720.46,391.228ZM1727,386.92L1727,386L1728,386L1728,389.775L1727,386.92ZM1725,387L1725.44,387L1726,388.603L1726,391L1725.24,391L1725.16,390.765C1725.11,390.59 1725.06,390.409 1725,390.222L1725,387ZM1724,387L1724,389.952C1723.92,390.24 1723.85,390.511 1723.77,390.765L1723.56,391.419L1724,391.419L1724,392.586L1723.19,392.586L1723.18,392.593L1721.81,391.905L1723.49,387L1724,387ZM1727.19,392L1727,392L1727,391.457L1727.19,392Z" style="fill:rgb(30,30,30);"/>
                </g>
                <g transform="matrix(0.960938,0,0,1.58646,-54.549,-217.976)">
                    <path d="M171.766,193.673L174.252,186.398L176.205,186.398L178.754,193.673L177.099,193.673L176.537,191.984L173.954,191.984L173.412,193.673L171.766,193.673ZM174.325,190.817L176.151,190.817L175.932,190.163C175.814,189.792 175.697,189.39 175.58,188.957C175.463,188.524 175.341,188.06 175.214,187.565C175.093,188.066 174.978,188.533 174.867,188.966C174.756,189.399 174.646,189.798 174.535,190.163L174.325,190.817Z" style="fill:rgb(30,30,30);fill-rule:nonzero;"/>
                </g>
            </g>
        </g>
    </g>
</svg>
