<?xml version="1.0" encoding="UTF-8" standalone="no"?>
<!DOCTYPE svg PUBLIC "-//W3C//DTD SVG 1.1//EN" "http://www.w3.org/Graphics/SVG/1.1/DTD/svg11.dtd">
<svg width="100%" height="100%" viewBox="0 0 54 18" version="1.1" xmlns="http://www.w3.org/2000/svg" xmlns:xlink="http://www.w3.org/1999/xlink" xml:space="preserve" xmlns:serif="http://www.serif.com/" style="fill-rule:evenodd;clip-rule:evenodd;stroke-linejoin:round;stroke-miterlimit:2;">
    <g transform="matrix(1,0,0,1,-534,-210)">
        <g transform="matrix(1.13981,0,0,0.894792,0,0)">
            <g id="track_solo_off" transform="matrix(0.913,0,0,0.704449,264.078,170.99)">
                <g transform="matrix(1.09821,0,0,1.81309,-35.692,-13.1449)">
                    <rect x="253" y="58" width="14" height="14" style="fill:rgb(242,240,236);fill-opacity:0.06;"/>
                </g>
                <g transform="matrix(0.960938,0,0,1.58646,-1400.83,-411.026)">
                    <g transform="matrix(12,0,0,12,1703.79,328.932)">
                    </g>
                    <text x="1696.09px" y="328.932px" style="font-family:'Inter-Regular', 'Inter';font-size:12px;fill:rgb(242,240,236);fill-opacity:0.19;">S</text>
                </g>
                <g transform="matrix(0.960938,0,0,1.58646,-1383.53,-411.026)">
                    <g transform="matrix(12,0,0,12,1703.79,328.932)">
                    </g>
                    <text x="1696.09px" y="328.932px" style="font-family:'Inter-Regular', 'Inter';font-size:12px;fill:rgb(242,240,236);fill-opacity:0.19;">S</text>
                </g>
                <g transform="matrix(0.960938,0,0,1.58646,-1366.23,-411.026)">
                    <g transform="matrix(12,0,0,12,1703.79,328.932)">
                    </g>
                    <text x="1696.09px" y="328.932px" style="font-family:'Inter-Regular', 'Inter';font-size:12px;fill:rgb(30,30,30);">S</text>
                </g>
            </g>
        </g>
    </g>
</svg>
