<?xml version="1.0" encoding="UTF-8" standalone="no"?>
<!DOCTYPE svg PUBLIC "-//W3C//DTD SVG 1.1//EN" "http://www.w3.org/Graphics/SVG/1.1/DTD/svg11.dtd">
<svg width="100%" height="100%" viewBox="0 0 66 22" version="1.1" xmlns="http://www.w3.org/2000/svg" xmlns:xlink="http://www.w3.org/1999/xlink" xml:space="preserve" xmlns:serif="http://www.serif.com/" style="fill-rule:evenodd;clip-rule:evenodd;stroke-linejoin:round;stroke-miterlimit:2;">
    <g transform="matrix(1,0,0,1,-18,-715)">
        <g transform="matrix(1.13981,0,0,0.894792,0,0)">
            <g id="transport_record_item" transform="matrix(0.913,0,0,0.704449,0,-82.7008)">
                <g transform="matrix(0.960938,0,0,1.58646,-2161.15,929.664)">
                    <circle cx="2278" cy="214" r="5" style="fill:rgb(81,81,81);"/>
                </g>
                <g transform="matrix(0.960938,0,0,1.58646,-2140.01,929.664)">
                    <circle cx="2278" cy="214" r="5" style="fill:rgb(116,115,105);"/>
                </g>
                <g transform="matrix(0.960938,0,0,1.58646,-2118.87,929.664)">
                    <circle cx="2278" cy="214" r="5" style="fill:rgb(57,57,57);"/>
                </g>
                <g transform="matrix(1.09821,0,0,1.85087,-3929.82,-3555.78)">
                    <path d="M3609,2606L3602,2606L3602,2612L3609,2612L3609,2606ZM3608,2607L3608,2611C3608,2611 3603,2611 3603,2611C3603,2611 3603,2607 3603,2607L3608,2607Z" style="fill:rgb(81,81,81);"/>
                    <path d="M3610.05,2606L3610.05,2612C3610.05,2612.57 3609.58,2613.03 3609,2613.03L3602,2613.03C3601.42,2613.03 3600.95,2612.57 3600.95,2612L3600.95,2606C3600.95,2605.43 3601.42,2604.97 3602,2604.97L3609,2604.97C3609.58,2604.97 3610.05,2605.43 3610.05,2606ZM3609,2606L3602,2606L3602,2612L3609,2612L3609,2606ZM3608,2607L3608,2611L3603,2611C3603,2611 3603,2607 3603,2607L3608,2607ZM3604.05,2609.97L3606.95,2609.98L3606.95,2608.03L3604.05,2608.03L3604.05,2609.97Z" style="fill:rgb(45,45,45);"/>
                </g>
                <g transform="matrix(1.09821,0,0,1.85087,-3908.68,-3555.78)">
                    <path d="M3609,2606L3602,2606L3602,2612L3609,2612L3609,2606ZM3608,2607L3608,2611C3608,2611 3603,2611 3603,2611C3603,2611 3603,2607 3603,2607L3608,2607Z" style="fill:rgb(116,115,105);"/>
                    <path d="M3610.05,2606L3610.05,2612C3610.05,2612.57 3609.58,2613.03 3609,2613.03L3602,2613.03C3601.42,2613.03 3600.95,2612.57 3600.95,2612L3600.95,2606C3600.95,2605.43 3601.42,2604.97 3602,2604.97L3609,2604.97C3609.58,2604.97 3610.05,2605.43 3610.05,2606ZM3609,2606L3602,2606L3602,2612L3609,2612L3609,2606ZM3608,2607L3608,2611L3603,2611C3603,2611 3603,2607 3603,2607L3608,2607ZM3604.05,2609.97L3606.95,2609.98L3606.95,2608.03L3604.05,2608.03L3604.05,2609.97Z" style="fill:rgb(45,45,45);"/>
                </g>
                <g transform="matrix(1.09821,0,0,1.85087,-3887.54,-3555.78)">
                    <path d="M3609,2606L3602,2606L3602,2612L3609,2612L3609,2606ZM3608,2607L3608,2611C3608,2611 3603,2611 3603,2611C3603,2611 3603,2607 3603,2607L3608,2607Z" style="fill:rgb(59,59,57);"/>
                    <path d="M3610.05,2606L3610.05,2612C3610.05,2612.57 3609.58,2613.03 3609,2613.03L3602,2613.03C3601.42,2613.03 3600.95,2612.57 3600.95,2612L3600.95,2606C3600.95,2605.43 3601.42,2604.97 3602,2604.97L3609,2604.97C3609.58,2604.97 3610.05,2605.43 3610.05,2606ZM3609,2606L3602,2606L3602,2612L3609,2612L3609,2606ZM3608,2607L3608,2611L3603,2611C3603,2611 3603,2607 3603,2607L3608,2607ZM3604.05,2609.97L3606.95,2609.98L3606.95,2608.03L3604.05,2608.03L3604.05,2609.97Z" style="fill:rgb(45,45,45);"/>
                </g>
            </g>
        </g>
    </g>
</svg>
