<?xml version="1.0" encoding="UTF-8" standalone="no"?>
<!DOCTYPE svg PUBLIC "-//W3C//DTD SVG 1.1//EN" "http://www.w3.org/Graphics/SVG/1.1/DTD/svg11.dtd">
<svg width="100%" height="100%" viewBox="0 0 75 21" version="1.1" xmlns="http://www.w3.org/2000/svg" xmlns:xlink="http://www.w3.org/1999/xlink" xml:space="preserve" xmlns:serif="http://www.serif.com/" style="fill-rule:evenodd;clip-rule:evenodd;stroke-linejoin:round;stroke-miterlimit:2;">
    <g transform="matrix(1,0,0,1,-206,-1038)">
        <g transform="matrix(1.13981,0,0,0.894792,0,0)">
            <g id="transport_bpm" transform="matrix(0.913,0,0,0.704449,0,-93.8766)">
                <g transform="matrix(0.960938,0,0,1.58646,-2338.92,1456.37)">
                    <g transform="matrix(1,-0.4,0,1,0,1061.4)">
                        <ellipse cx="2653.5" cy="218" rx="2.5" ry="2" style="fill:rgb(116,115,105);"/>
                    </g>
                    <rect x="2655" y="207" width="1" height="10" style="fill:rgb(116,115,105);"/>
                </g>
                <g transform="matrix(0.960938,0,0,1.58646,-2273.28,1458.13)">
                    <g transform="matrix(9,0,0,9,2597.65,216.034)">
                    </g>
                    <text x="2591.7px" y="216.034px" style="font-family:'Inter-Regular', 'Inter';font-size:9px;fill:rgb(160,159,147);">=</text>
                </g>
                <g transform="matrix(0.960938,0,0,1.58646,7.42597,4.68799)">
                    <g transform="matrix(9,0,0,9,239.556,1132.66)">
                    </g>
                    <text x="223.842px" y="1132.66px" style="font-family:'Inter-Regular', 'Inter';font-size:9px;fill:rgb(211,208,200);">T<tspan x="228.992px " y="1132.66px ">a</tspan>p</text>
                </g>
                <g transform="matrix(0.960938,0,0,1.58646,31.4494,4.68799)">
                    <g transform="matrix(9,0,0,9,239.556,1132.66)">
                    </g>
                    <text x="223.842px" y="1132.66px" style="font-family:'Inter-Regular', 'Inter';font-size:9px;fill:rgb(160,159,147);">T<tspan x="228.992px " y="1132.66px ">a</tspan>p</text>
                </g>
                <g transform="matrix(0.960938,0,0,1.58646,-2249.26,1458.13)">
                    <g transform="matrix(9,0,0,9,2597.65,216.034)">
                    </g>
                    <text x="2591.7px" y="216.034px" style="font-family:'Inter-Regular', 'Inter';font-size:9px;fill:rgb(160,159,147);">=</text>
                </g>
                <g transform="matrix(0.960938,0,0,1.58646,-2225.23,1458.13)">
                    <g transform="matrix(9,0,0,9,2597.65,216.034)">
                    </g>
                    <text x="2591.7px" y="216.034px" style="font-family:'Inter-Regular', 'Inter';font-size:9px;fill:rgb(160,159,147);">=</text>
                </g>
            </g>
        </g>
    </g>
</svg>
