<?xml version="1.0" encoding="UTF-8" standalone="no"?>
<!DOCTYPE svg PUBLIC "-//W3C//DTD SVG 1.1//EN" "http://www.w3.org/Graphics/SVG/1.1/DTD/svg11.dtd">
<svg width="100%" height="100%" viewBox="0 0 66 22" version="1.1" xmlns="http://www.w3.org/2000/svg" xmlns:xlink="http://www.w3.org/1999/xlink" xml:space="preserve" xmlns:serif="http://www.serif.com/" style="fill-rule:evenodd;clip-rule:evenodd;stroke-linejoin:round;stroke-miterlimit:2;">
    <g transform="matrix(1,0,0,1,-18,-462)">
        <g transform="matrix(1.13981,0,0,0.894792,0,0)">
            <g id="transport_play" transform="matrix(0.913,0,0,0.704449,0,-82.7008)">
                <g transform="matrix(0.0600586,0,0,0.0991536,20.1797,855.1)">
                    <path d="M240,128C240.013,133.519 237.123,138.656 232.4,141.51L88.32,229.65C83.38,232.675 77.169,232.79 72.12,229.95C67.12,227.154 64.008,221.859 64,216.13L64,39.87C64.008,34.141 67.12,28.846 72.12,26.05C77.169,23.21 83.38,23.325 88.32,26.35L232.4,114.49C237.123,117.344 240.013,122.481 240,128Z" style="fill:rgb(81,81,81);fill-rule:nonzero;"/>
                </g>
                <g transform="matrix(0.0600586,0,0,0.0991536,41.3203,855.1)">
                    <path d="M240,128C240.013,133.519 237.123,138.656 232.4,141.51L88.32,229.65C83.38,232.675 77.169,232.79 72.12,229.95C67.12,227.154 64.008,221.859 64,216.13L64,39.87C64.008,34.141 67.12,28.846 72.12,26.05C77.169,23.21 83.38,23.325 88.32,26.35L232.4,114.49C237.123,117.344 240.013,122.481 240,128Z" style="fill:rgb(116,115,105);fill-rule:nonzero;"/>
                </g>
                <g transform="matrix(0.0600586,0,0,0.0991536,62.4609,855.1)">
                    <path d="M240,128C240.013,133.519 237.123,138.656 232.4,141.51L88.32,229.65C83.38,232.675 77.169,232.79 72.12,229.95C67.12,227.154 64.008,221.859 64,216.13L64,39.87C64.008,34.141 67.12,28.846 72.12,26.05C77.169,23.21 83.38,23.325 88.32,26.35L232.4,114.49C237.123,117.344 240.013,122.481 240,128Z" style="fill:rgb(57,57,57);fill-rule:nonzero;"/>
                </g>
            </g>
        </g>
    </g>
</svg>
