<?xml version="1.0" encoding="UTF-8" standalone="no"?>
<!DOCTYPE svg PUBLIC "-//W3C//DTD SVG 1.1//EN" "http://www.w3.org/Graphics/SVG/1.1/DTD/svg11.dtd">
<svg width="100%" height="100%" viewBox="0 0 66 22" version="1.1" xmlns="http://www.w3.org/2000/svg" xmlns:xlink="http://www.w3.org/1999/xlink" xml:space="preserve" xmlns:serif="http://www.serif.com/" style="fill-rule:evenodd;clip-rule:evenodd;stroke-linejoin:round;stroke-miterlimit:2;">
    <g transform="matrix(1,0,0,1,-18,-508)">
        <g transform="matrix(1.13981,0,0,0.894792,0,0)">
            <g id="transport_play_sync" transform="matrix(0.913,0,0,0.704449,0,-82.7008)">
                <g transform="matrix(0.0600586,0,0,0.0991536,20.1797,928.077)">
                    <path d="M240,128C240.013,133.519 237.123,138.656 232.4,141.51L88.32,229.65C83.38,232.675 77.169,232.79 72.12,229.95C67.12,227.154 64.008,221.859 64,216.13L64,39.87C64.008,34.141 67.12,28.846 72.12,26.05C77.169,23.21 83.38,23.325 88.32,26.35L232.4,114.49C237.123,117.344 240.013,122.481 240,128Z" style="fill:rgb(81,81,81);fill-rule:nonzero;"/>
                </g>
                <g transform="matrix(0.0600586,0,0,0.0991536,41.3203,928.077)">
                    <path d="M240,128C240.013,133.519 237.123,138.656 232.4,141.51L88.32,229.65C83.38,232.675 77.169,232.79 72.12,229.95C67.12,227.154 64.008,221.859 64,216.13L64,39.87C64.008,34.141 67.12,28.846 72.12,26.05C77.169,23.21 83.38,23.325 88.32,26.35L232.4,114.49C237.123,117.344 240.013,122.481 240,128Z" style="fill:rgb(116,115,105);fill-rule:nonzero;"/>
                </g>
                <g transform="matrix(0.0600586,0,0,0.0991536,62.4609,928.077)">
                    <path d="M240,128C240.013,133.519 237.123,138.656 232.4,141.51L88.32,229.65C83.38,232.675 77.169,232.79 72.12,229.95C67.12,227.154 64.008,221.859 64,216.13L64,39.87C64.008,34.141 67.12,28.846 72.12,26.05C77.169,23.21 83.38,23.325 88.32,26.35L232.4,114.49C237.123,117.344 240.013,122.481 240,128Z" style="fill:rgb(57,57,57);fill-rule:nonzero;"/>
                </g>
                <g transform="matrix(0.0444267,-6.93889e-18,-6.93889e-18,0.0733461,25.6636,937.122)">
                    <path d="M136.37,187.53C138.629,189.781 139.899,192.841 139.899,196.03C139.899,199.219 138.629,202.279 136.37,204.53L130.43,210.47C119.179,221.721 103.902,228.049 87.99,228.049C55.064,228.049 27.971,200.956 27.971,168.03C27.971,152.118 34.299,136.841 45.55,125.59L69.67,101.48C91.994,79.101 128.37,78.005 152,99C154.569,101.284 156.042,104.562 156.042,108C156.042,114.606 150.606,120.042 144,120.042C141.052,120.042 138.204,118.959 136,117C121.83,104.416 100.026,105.065 86.63,118.47L62.53,142.55C55.78,149.3 51.984,158.464 51.984,168.01C51.984,187.762 68.238,204.016 87.99,204.016C97.536,204.016 106.7,200.22 113.45,193.47L119.39,187.53C121.64,185.278 124.696,184.011 127.88,184.011C131.064,184.011 134.12,185.278 136.37,187.53ZM210.45,45.53C187.151,22.286 148.869,22.286 125.57,45.53L119.63,51.47C117.377,53.723 116.109,56.783 116.109,59.97C116.109,66.564 121.536,71.991 128.13,71.991C131.317,71.991 134.377,70.723 136.63,68.47L142.57,62.53C149.32,55.78 158.484,51.984 168.03,51.984C187.782,51.984 204.036,68.238 204.036,87.99C204.036,97.536 200.24,106.7 193.49,113.45L169.38,137.57C155.972,150.97 134.161,151.601 120,139C117.796,137.041 114.948,135.958 112,135.958C105.394,135.958 99.958,141.394 99.958,148C99.958,151.438 101.431,154.716 104,157C127.613,177.99 163.966,176.916 186.3,154.57L210.42,130.46C233.692,107.166 233.705,68.86 210.45,45.55L210.45,45.53Z" style="fill:rgb(81,81,81);fill-rule:nonzero;"/>
                    <path d="M119.248,51.871L110.293,30.217C141.979,-1.394 194.041,-1.394 225.727,30.217C225.742,30.233 225.752,30.253 225.768,30.268C257.394,61.969 257.365,114.074 225.717,145.753L201.599,169.86C190.198,181.268 176.111,188.601 161.262,191.802C161.439,193.197 161.529,194.609 161.529,196.03C161.529,204.966 157.968,213.543 151.638,219.851L136.37,226.16L151.498,219.991L145.86,225.629C145.815,225.674 145.77,225.72 145.724,225.764C130.418,241.071 109.636,249.679 87.99,249.679C43.199,249.679 6.341,212.821 6.341,168.03C6.341,146.384 14.951,125.6 30.257,110.294L54.357,86.204C65.767,74.766 79.875,67.415 94.749,64.209C94.571,62.819 94.479,61.404 94.479,59.97C94.479,51.049 98.027,42.484 104.335,36.175L115.201,62.407L115.257,62.409L104.471,36.04L110.109,30.402L119.174,51.952C117.206,54.15 116.109,57.005 116.109,59.97C116.109,60.448 116.138,60.92 116.193,61.385C116.073,61.732 115.962,62.081 115.86,62.433C116.03,62.441 116.201,62.449 116.372,62.457C117.53,67.876 122.387,71.991 128.13,71.991C131.317,71.991 134.377,70.723 136.63,68.47L142.57,62.53C149.32,55.78 158.484,51.984 168.03,51.984C187.782,51.984 204.036,68.238 204.036,87.99C204.036,97.536 200.24,106.7 193.49,113.45L169.38,137.57C155.972,150.97 134.161,151.601 120,139C117.796,137.041 114.948,135.958 112,135.958C105.394,135.958 99.958,141.394 99.958,148C99.958,151.438 101.431,154.716 104,157C127.613,177.99 163.966,176.916 186.3,154.57L210.42,130.46C233.692,107.166 233.705,68.85 210.45,45.54C187.151,22.296 148.869,22.286 125.57,45.53L119.63,51.47C119.499,51.601 119.372,51.734 119.248,51.871ZM115.606,63.386L119.63,73.1L115.625,63.309L115.606,63.386ZM123.832,216.171L130.43,232.1L123.895,216.124C126.194,214.409 128.379,212.521 130.43,210.47L136.37,204.53C138.629,202.279 139.899,199.219 139.899,196.03C139.899,192.841 138.629,189.781 136.37,187.53C134.12,185.278 131.064,184.011 127.88,184.011C124.696,184.011 121.64,185.278 119.39,187.53L113.45,193.47C106.7,200.22 97.536,204.016 87.99,204.016C68.238,204.016 51.984,187.762 51.984,168.01C51.984,158.464 55.78,149.3 62.53,142.55L86.63,118.47C100.026,105.065 121.83,104.416 136,117C138.204,118.959 141.052,120.042 144,120.042C150.606,120.042 156.042,114.606 156.042,108C156.042,104.562 154.569,101.284 152,99C128.37,78.005 91.994,79.101 69.67,101.48L45.55,125.59C34.299,136.841 27.971,152.118 27.971,168.03C27.971,200.956 55.064,228.049 87.99,228.049C100.975,228.049 113.536,223.836 123.832,216.171ZM176.635,99.716L178.194,98.157C180.889,95.462 182.406,91.801 182.406,87.99C182.406,80.103 175.917,73.614 168.03,73.614C164.671,73.614 161.43,74.791 158.863,76.916C161.452,78.719 163.959,80.691 166.368,82.832C171.446,87.346 174.992,93.249 176.635,99.716ZM97.146,179.093C94.553,177.286 92.043,175.311 89.63,173.166C84.557,168.657 81.014,162.761 79.369,156.301L77.824,157.845C75.129,160.54 73.614,164.199 73.614,168.01C73.614,175.897 80.103,182.386 87.99,182.386C91.345,182.386 94.581,181.212 97.146,179.093Z" style="fill:rgb(30,30,30);"/>
                </g>
                <g transform="matrix(0.0444267,-6.93889e-18,-6.93889e-18,0.0733461,25.4655,937.558)">
                    <path d="M136.37,187.53C138.629,189.781 139.899,192.841 139.899,196.03C139.899,199.219 138.629,202.279 136.37,204.53L130.43,210.47C119.179,221.721 103.902,228.049 87.99,228.049C55.064,228.049 27.971,200.956 27.971,168.03C27.971,152.118 34.299,136.841 45.55,125.59L69.67,101.48C91.994,79.101 128.37,78.005 152,99C154.569,101.284 156.042,104.562 156.042,108C156.042,114.606 150.606,120.042 144,120.042C141.052,120.042 138.204,118.959 136,117C121.83,104.416 100.026,105.065 86.63,118.47L62.53,142.55C55.78,149.3 51.984,158.464 51.984,168.01C51.984,187.762 68.238,204.016 87.99,204.016C97.536,204.016 106.7,200.22 113.45,193.47L119.39,187.53C121.64,185.278 124.696,184.011 127.88,184.011C131.064,184.011 134.12,185.278 136.37,187.53ZM210.45,45.53C187.151,22.286 148.869,22.286 125.57,45.53L119.63,51.47C117.377,53.723 116.109,56.783 116.109,59.97C116.109,66.564 121.536,71.991 128.13,71.991C131.317,71.991 134.377,70.723 136.63,68.47L142.57,62.53C149.32,55.78 158.484,51.984 168.03,51.984C187.782,51.984 204.036,68.238 204.036,87.99C204.036,97.536 200.24,106.7 193.49,113.45L169.38,137.57C155.972,150.97 134.161,151.601 120,139C117.796,137.041 114.948,135.958 112,135.958C105.394,135.958 99.958,141.394 99.958,148C99.958,151.438 101.431,154.716 104,157C127.613,177.99 163.966,176.916 186.3,154.57L210.42,130.46C233.692,107.166 233.705,68.86 210.45,45.55L210.45,45.53Z" style="fill:rgb(81,81,81);fill-rule:nonzero;"/>
                    <path d="M119.248,51.871L110.293,30.217C141.979,-1.394 194.041,-1.394 225.727,30.217C225.742,30.233 225.752,30.253 225.768,30.268C257.394,61.969 257.365,114.074 225.717,145.753L201.599,169.86C190.198,181.268 176.111,188.601 161.262,191.802C161.439,193.197 161.529,194.609 161.529,196.03C161.529,204.966 157.968,213.543 151.638,219.851L136.37,226.16L151.498,219.991L145.86,225.629C145.815,225.674 145.77,225.72 145.724,225.764C130.418,241.071 109.636,249.679 87.99,249.679C43.199,249.679 6.341,212.821 6.341,168.03C6.341,146.384 14.951,125.6 30.257,110.294L54.357,86.204C65.767,74.766 79.875,67.415 94.749,64.209C94.571,62.819 94.479,61.404 94.479,59.97C94.479,51.049 98.027,42.484 104.335,36.175C98.149,42.362 96.299,51.665 99.647,59.747C100.13,60.913 100.707,62.02 101.367,63.061C105.971,62.455 110.619,62.237 115.257,62.409L104.471,36.04L110.109,30.402L119.174,51.952C117.206,54.15 116.109,57.005 116.109,59.97C116.109,60.448 116.138,60.92 116.193,61.385C116.073,61.732 115.962,62.081 115.86,62.433C116.03,62.441 116.201,62.449 116.372,62.457C117.53,67.876 122.387,71.991 128.13,71.991C131.317,71.991 134.377,70.723 136.63,68.47L142.57,62.53C149.32,55.78 158.484,51.984 168.03,51.984C187.782,51.984 204.036,68.238 204.036,87.99C204.036,97.536 200.24,106.7 193.49,113.45L169.38,137.57C155.972,150.97 134.161,151.601 120,139C117.796,137.041 114.948,135.958 112,135.958C105.394,135.958 99.958,141.394 99.958,148C99.958,151.438 101.431,154.716 104,157C127.613,177.99 163.966,176.916 186.3,154.57L210.42,130.46C233.692,107.166 233.705,68.85 210.45,45.54C187.151,22.296 148.869,22.286 125.57,45.53L119.63,51.47C119.499,51.601 119.372,51.734 119.248,51.871ZM115.414,72.686C116.785,72.958 118.196,73.1 119.63,73.1L115.625,63.309C114.877,66.354 114.792,69.556 115.414,72.686ZM176.635,99.716L178.194,98.157C180.889,95.462 182.406,91.801 182.406,87.99C182.406,80.103 175.917,73.614 168.03,73.614C164.671,73.614 161.43,74.791 158.863,76.916C161.452,78.719 163.959,80.691 166.368,82.832C171.446,87.346 174.992,93.249 176.635,99.716ZM97.146,179.093C94.553,177.286 92.043,175.311 89.63,173.166C84.557,168.657 81.014,162.761 79.369,156.301L77.824,157.845C75.129,160.54 73.614,164.199 73.614,168.01C73.614,175.897 80.103,182.386 87.99,182.386C91.345,182.386 94.581,181.212 97.146,179.093ZM123.832,216.171L130.43,232.1L123.895,216.124C126.194,214.409 128.379,212.521 130.43,210.47L136.37,204.53C138.629,202.279 139.899,199.219 139.899,196.03C139.899,192.841 138.629,189.781 136.37,187.53C134.12,185.278 131.064,184.011 127.88,184.011C124.696,184.011 121.64,185.278 119.39,187.53L113.45,193.47C106.7,200.22 97.536,204.016 87.99,204.016C68.238,204.016 51.984,187.762 51.984,168.01C51.984,158.464 55.78,149.3 62.53,142.55L86.63,118.47C100.026,105.065 121.83,104.416 136,117C138.204,118.959 141.052,120.042 144,120.042C150.606,120.042 156.042,114.606 156.042,108C156.042,104.562 154.569,101.284 152,99C128.37,78.005 91.994,79.101 69.67,101.48L45.55,125.59C34.299,136.841 27.971,152.118 27.971,168.03C27.971,200.956 55.064,228.049 87.99,228.049C100.975,228.049 113.536,223.836 123.832,216.171Z" style="fill:rgb(30,30,30);"/>
                </g>
                <g transform="matrix(0.0444267,-6.93889e-18,-6.93889e-18,0.0733461,46.8042,937.122)">
                    <path d="M136.37,187.53C138.629,189.781 139.899,192.841 139.899,196.03C139.899,199.219 138.629,202.279 136.37,204.53L130.43,210.47C119.179,221.721 103.902,228.049 87.99,228.049C55.064,228.049 27.971,200.956 27.971,168.03C27.971,152.118 34.299,136.841 45.55,125.59L69.67,101.48C91.994,79.101 128.37,78.005 152,99C154.569,101.284 156.042,104.562 156.042,108C156.042,114.606 150.606,120.042 144,120.042C141.052,120.042 138.204,118.959 136,117C121.83,104.416 100.026,105.065 86.63,118.47L62.53,142.55C55.78,149.3 51.984,158.464 51.984,168.01C51.984,187.762 68.238,204.016 87.99,204.016C97.536,204.016 106.7,200.22 113.45,193.47L119.39,187.53C121.64,185.278 124.696,184.011 127.88,184.011C131.064,184.011 134.12,185.278 136.37,187.53ZM210.45,45.53C187.151,22.286 148.869,22.286 125.57,45.53L119.63,51.47C117.377,53.723 116.109,56.783 116.109,59.97C116.109,66.564 121.536,71.991 128.13,71.991C131.317,71.991 134.377,70.723 136.63,68.47L142.57,62.53C149.32,55.78 158.484,51.984 168.03,51.984C187.782,51.984 204.036,68.238 204.036,87.99C204.036,97.536 200.24,106.7 193.49,113.45L169.38,137.57C155.972,150.97 134.161,151.601 120,139C117.796,137.041 114.948,135.958 112,135.958C105.394,135.958 99.958,141.394 99.958,148C99.958,151.438 101.431,154.716 104,157C127.613,177.99 163.966,176.916 186.3,154.57L210.42,130.46C233.692,107.166 233.705,68.86 210.45,45.55L210.45,45.53Z" style="fill:rgb(116,115,105);fill-rule:nonzero;"/>
                    <path d="M119.248,51.871L110.293,30.217C141.979,-1.394 194.041,-1.394 225.727,30.217C225.742,30.233 225.752,30.253 225.768,30.268C257.394,61.969 257.365,114.074 225.717,145.753L201.599,169.86C190.198,181.268 176.111,188.601 161.262,191.802C161.439,193.197 161.529,194.609 161.529,196.03C161.529,204.966 157.968,213.543 151.638,219.851L136.37,226.16L151.498,219.991L145.86,225.629C145.815,225.674 145.77,225.72 145.724,225.764C130.418,241.071 109.636,249.679 87.99,249.679C43.199,249.679 6.341,212.821 6.341,168.03C6.341,146.384 14.951,125.6 30.257,110.294L54.357,86.204C65.767,74.766 79.875,67.415 94.749,64.209C94.571,62.819 94.479,61.404 94.479,59.97C94.479,51.049 98.027,42.484 104.335,36.175L115.201,62.407L115.257,62.409L104.471,36.04L110.109,30.402L119.174,51.952C117.206,54.15 116.109,57.005 116.109,59.97C116.109,60.448 116.138,60.92 116.193,61.385C116.073,61.732 115.962,62.081 115.86,62.433C116.03,62.441 116.201,62.449 116.372,62.457C117.53,67.876 122.387,71.991 128.13,71.991C131.317,71.991 134.377,70.723 136.63,68.47L142.57,62.53C149.32,55.78 158.484,51.984 168.03,51.984C187.782,51.984 204.036,68.238 204.036,87.99C204.036,97.536 200.24,106.7 193.49,113.45L169.38,137.57C155.972,150.97 134.161,151.601 120,139C117.796,137.041 114.948,135.958 112,135.958C105.394,135.958 99.958,141.394 99.958,148C99.958,151.438 101.431,154.716 104,157C127.613,177.99 163.966,176.916 186.3,154.57L210.42,130.46C233.692,107.166 233.705,68.85 210.45,45.54C187.151,22.296 148.869,22.286 125.57,45.53L119.63,51.47C119.499,51.601 119.372,51.734 119.248,51.871ZM176.635,99.716L178.194,98.157C180.889,95.462 182.406,91.801 182.406,87.99C182.406,80.103 175.917,73.614 168.03,73.614C164.671,73.614 161.43,74.791 158.863,76.916C161.452,78.719 163.959,80.691 166.368,82.832C171.446,87.346 174.992,93.249 176.635,99.716ZM115.606,63.386L119.63,73.1L115.625,63.309L115.606,63.386ZM97.146,179.093C94.553,177.286 92.043,175.311 89.63,173.166C84.557,168.657 81.014,162.761 79.369,156.301L77.824,157.845C75.129,160.54 73.614,164.199 73.614,168.01C73.614,175.897 80.103,182.386 87.99,182.386C91.345,182.386 94.581,181.212 97.146,179.093ZM123.832,216.171L130.43,232.1L123.895,216.124C126.194,214.409 128.379,212.521 130.43,210.47L136.37,204.53C138.629,202.279 139.899,199.219 139.899,196.03C139.899,192.841 138.629,189.781 136.37,187.53C134.12,185.278 131.064,184.011 127.88,184.011C124.696,184.011 121.64,185.278 119.39,187.53L113.45,193.47C106.7,200.22 97.536,204.016 87.99,204.016C68.238,204.016 51.984,187.762 51.984,168.01C51.984,158.464 55.78,149.3 62.53,142.55L86.63,118.47C100.026,105.065 121.83,104.416 136,117C138.204,118.959 141.052,120.042 144,120.042C150.606,120.042 156.042,114.606 156.042,108C156.042,104.562 154.569,101.284 152,99C128.37,78.005 91.994,79.101 69.67,101.48L45.55,125.59C34.299,136.841 27.971,152.118 27.971,168.03C27.971,200.956 55.064,228.049 87.99,228.049C100.975,228.049 113.536,223.836 123.832,216.171Z" style="fill:rgb(30,30,30);"/>
                </g>
                <g transform="matrix(0.0444267,-6.93889e-18,-6.93889e-18,0.0733461,46.6061,937.558)">
                    <path d="M136.37,187.53C138.629,189.781 139.899,192.841 139.899,196.03C139.899,199.219 138.629,202.279 136.37,204.53L130.43,210.47C119.179,221.721 103.902,228.049 87.99,228.049C55.064,228.049 27.971,200.956 27.971,168.03C27.971,152.118 34.299,136.841 45.55,125.59L69.67,101.48C91.994,79.101 128.37,78.005 152,99C154.569,101.284 156.042,104.562 156.042,108C156.042,114.606 150.606,120.042 144,120.042C141.052,120.042 138.204,118.959 136,117C121.83,104.416 100.026,105.065 86.63,118.47L62.53,142.55C55.78,149.3 51.984,158.464 51.984,168.01C51.984,187.762 68.238,204.016 87.99,204.016C97.536,204.016 106.7,200.22 113.45,193.47L119.39,187.53C121.64,185.278 124.696,184.011 127.88,184.011C131.064,184.011 134.12,185.278 136.37,187.53ZM210.45,45.53C187.151,22.286 148.869,22.286 125.57,45.53L119.63,51.47C117.377,53.723 116.109,56.783 116.109,59.97C116.109,66.564 121.536,71.991 128.13,71.991C131.317,71.991 134.377,70.723 136.63,68.47L142.57,62.53C149.32,55.78 158.484,51.984 168.03,51.984C187.782,51.984 204.036,68.238 204.036,87.99C204.036,97.536 200.24,106.7 193.49,113.45L169.38,137.57C155.972,150.97 134.161,151.601 120,139C117.796,137.041 114.948,135.958 112,135.958C105.394,135.958 99.958,141.394 99.958,148C99.958,151.438 101.431,154.716 104,157C127.613,177.99 163.966,176.916 186.3,154.57L210.42,130.46C233.692,107.166 233.705,68.86 210.45,45.55L210.45,45.53Z" style="fill:rgb(116,115,105);fill-rule:nonzero;"/>
                    <path d="M119.248,51.871L110.293,30.217C141.979,-1.394 194.041,-1.394 225.727,30.217C225.742,30.233 225.752,30.253 225.768,30.268C257.394,61.969 257.365,114.074 225.717,145.753L201.599,169.86C190.198,181.268 176.111,188.601 161.262,191.802C161.439,193.197 161.529,194.609 161.529,196.03C161.529,204.966 157.968,213.543 151.638,219.851L136.37,226.16L151.498,219.991L145.86,225.629C145.815,225.674 145.77,225.72 145.724,225.764C130.418,241.071 109.636,249.679 87.99,249.679C43.199,249.679 6.341,212.821 6.341,168.03C6.341,146.384 14.951,125.6 30.257,110.294L54.357,86.204C65.767,74.766 79.875,67.415 94.749,64.209C94.571,62.819 94.479,61.404 94.479,59.97C94.479,51.049 98.027,42.484 104.335,36.175C98.149,42.362 96.299,51.665 99.647,59.747C100.13,60.913 100.707,62.02 101.367,63.061C105.971,62.455 110.619,62.237 115.257,62.409L104.471,36.04L110.109,30.402L119.174,51.952C117.206,54.15 116.109,57.005 116.109,59.97C116.109,60.448 116.138,60.92 116.193,61.385C116.073,61.732 115.962,62.081 115.86,62.433C116.03,62.441 116.201,62.449 116.372,62.457C117.53,67.876 122.387,71.991 128.13,71.991C131.317,71.991 134.377,70.723 136.63,68.47L142.57,62.53C149.32,55.78 158.484,51.984 168.03,51.984C187.782,51.984 204.036,68.238 204.036,87.99C204.036,97.536 200.24,106.7 193.49,113.45L169.38,137.57C155.972,150.97 134.161,151.601 120,139C117.796,137.041 114.948,135.958 112,135.958C105.394,135.958 99.958,141.394 99.958,148C99.958,151.438 101.431,154.716 104,157C127.613,177.99 163.966,176.916 186.3,154.57L210.42,130.46C233.692,107.166 233.705,68.85 210.45,45.54C187.151,22.296 148.869,22.286 125.57,45.53L119.63,51.47C119.499,51.601 119.372,51.734 119.248,51.871ZM123.832,216.171L130.43,232.1L123.895,216.124C126.194,214.409 128.379,212.521 130.43,210.47L136.37,204.53C138.629,202.279 139.899,199.219 139.899,196.03C139.899,192.841 138.629,189.781 136.37,187.53C134.12,185.278 131.064,184.011 127.88,184.011C124.696,184.011 121.64,185.278 119.39,187.53L113.45,193.47C106.7,200.22 97.536,204.016 87.99,204.016C68.238,204.016 51.984,187.762 51.984,168.01C51.984,158.464 55.78,149.3 62.53,142.55L86.63,118.47C100.026,105.065 121.83,104.416 136,117C138.204,118.959 141.052,120.042 144,120.042C150.606,120.042 156.042,114.606 156.042,108C156.042,104.562 154.569,101.284 152,99C128.37,78.005 91.994,79.101 69.67,101.48L45.55,125.59C34.299,136.841 27.971,152.118 27.971,168.03C27.971,200.956 55.064,228.049 87.99,228.049C100.975,228.049 113.536,223.836 123.832,216.171ZM176.635,99.716L178.194,98.157C180.889,95.462 182.406,91.801 182.406,87.99C182.406,80.103 175.917,73.614 168.03,73.614C164.671,73.614 161.43,74.791 158.863,76.916C161.452,78.719 163.959,80.691 166.368,82.832C171.446,87.346 174.992,93.249 176.635,99.716ZM115.414,72.686C116.785,72.958 118.196,73.1 119.63,73.1L115.625,63.309C114.877,66.354 114.792,69.556 115.414,72.686ZM97.146,179.093C94.553,177.286 92.043,175.311 89.63,173.166C84.557,168.657 81.014,162.761 79.369,156.301L77.824,157.845C75.129,160.54 73.614,164.199 73.614,168.01C73.614,175.897 80.103,182.386 87.99,182.386C91.345,182.386 94.581,181.212 97.146,179.093Z" style="fill:rgb(30,30,30);"/>
                </g>
                <g transform="matrix(0.0444267,-6.93889e-18,-6.93889e-18,0.0733461,67.9449,937.122)">
                    <path d="M136.37,187.53C138.629,189.781 139.899,192.841 139.899,196.03C139.899,199.219 138.629,202.279 136.37,204.53L130.43,210.47C119.179,221.721 103.902,228.049 87.99,228.049C55.064,228.049 27.971,200.956 27.971,168.03C27.971,152.118 34.299,136.841 45.55,125.59L69.67,101.48C91.994,79.101 128.37,78.005 152,99C154.569,101.284 156.042,104.562 156.042,108C156.042,114.606 150.606,120.042 144,120.042C141.052,120.042 138.204,118.959 136,117C121.83,104.416 100.026,105.065 86.63,118.47L62.53,142.55C55.78,149.3 51.984,158.464 51.984,168.01C51.984,187.762 68.238,204.016 87.99,204.016C97.536,204.016 106.7,200.22 113.45,193.47L119.39,187.53C121.64,185.278 124.696,184.011 127.88,184.011C131.064,184.011 134.12,185.278 136.37,187.53ZM210.45,45.53C187.151,22.286 148.869,22.286 125.57,45.53L119.63,51.47C117.377,53.723 116.109,56.783 116.109,59.97C116.109,66.564 121.536,71.991 128.13,71.991C131.317,71.991 134.377,70.723 136.63,68.47L142.57,62.53C149.32,55.78 158.484,51.984 168.03,51.984C187.782,51.984 204.036,68.238 204.036,87.99C204.036,97.536 200.24,106.7 193.49,113.45L169.38,137.57C155.972,150.97 134.161,151.601 120,139C117.796,137.041 114.948,135.958 112,135.958C105.394,135.958 99.958,141.394 99.958,148C99.958,151.438 101.431,154.716 104,157C127.613,177.99 163.966,176.916 186.3,154.57L210.42,130.46C233.692,107.166 233.705,68.86 210.45,45.55L210.45,45.53Z" style="fill:rgb(57,57,57);fill-rule:nonzero;"/>
                    <path d="M119.248,51.871L110.293,30.217C141.979,-1.394 194.041,-1.394 225.727,30.217C225.742,30.233 225.752,30.253 225.768,30.268C257.394,61.969 257.365,114.074 225.717,145.753L201.599,169.86C190.198,181.268 176.111,188.601 161.262,191.802C161.439,193.197 161.529,194.609 161.529,196.03C161.529,204.966 157.968,213.543 151.638,219.851L136.37,226.16L151.498,219.991L145.86,225.629C145.815,225.674 145.77,225.72 145.724,225.764C130.418,241.071 109.636,249.679 87.99,249.679C43.199,249.679 6.341,212.821 6.341,168.03C6.341,146.384 14.951,125.6 30.257,110.294L54.357,86.204C65.767,74.766 79.875,67.415 94.749,64.209C94.571,62.819 94.479,61.404 94.479,59.97C94.479,51.049 98.027,42.484 104.335,36.175L115.201,62.407L115.257,62.409L104.471,36.04L110.109,30.402L119.174,51.952C117.206,54.15 116.109,57.005 116.109,59.97C116.109,60.448 116.138,60.92 116.193,61.385C116.073,61.732 115.962,62.081 115.86,62.433C116.03,62.441 116.201,62.449 116.372,62.457C117.53,67.876 122.387,71.991 128.13,71.991C131.317,71.991 134.377,70.723 136.63,68.47L142.57,62.53C149.32,55.78 158.484,51.984 168.03,51.984C187.782,51.984 204.036,68.238 204.036,87.99C204.036,97.536 200.24,106.7 193.49,113.45L169.38,137.57C155.972,150.97 134.161,151.601 120,139C117.796,137.041 114.948,135.958 112,135.958C105.394,135.958 99.958,141.394 99.958,148C99.958,151.438 101.431,154.716 104,157C127.613,177.99 163.966,176.916 186.3,154.57L210.42,130.46C233.692,107.166 233.705,68.85 210.45,45.54C187.151,22.296 148.869,22.286 125.57,45.53L119.63,51.47C119.499,51.601 119.372,51.734 119.248,51.871ZM115.606,63.386L119.63,73.1L115.625,63.309L115.606,63.386ZM176.635,99.716L178.194,98.157C180.889,95.462 182.406,91.801 182.406,87.99C182.406,80.103 175.917,73.614 168.03,73.614C164.671,73.614 161.43,74.791 158.863,76.916C161.452,78.719 163.959,80.691 166.368,82.832C171.446,87.346 174.992,93.249 176.635,99.716ZM97.146,179.093C94.553,177.286 92.043,175.311 89.63,173.166C84.557,168.657 81.014,162.761 79.369,156.301L77.824,157.845C75.129,160.54 73.614,164.199 73.614,168.01C73.614,175.897 80.103,182.386 87.99,182.386C91.345,182.386 94.581,181.212 97.146,179.093ZM123.832,216.171L130.43,232.1L123.895,216.124C126.194,214.409 128.379,212.521 130.43,210.47L136.37,204.53C138.629,202.279 139.899,199.219 139.899,196.03C139.899,192.841 138.629,189.781 136.37,187.53C134.12,185.278 131.064,184.011 127.88,184.011C124.696,184.011 121.64,185.278 119.39,187.53L113.45,193.47C106.7,200.22 97.536,204.016 87.99,204.016C68.238,204.016 51.984,187.762 51.984,168.01C51.984,158.464 55.78,149.3 62.53,142.55L86.63,118.47C100.026,105.065 121.83,104.416 136,117C138.204,118.959 141.052,120.042 144,120.042C150.606,120.042 156.042,114.606 156.042,108C156.042,104.562 154.569,101.284 152,99C128.37,78.005 91.994,79.101 69.67,101.48L45.55,125.59C34.299,136.841 27.971,152.118 27.971,168.03C27.971,200.956 55.064,228.049 87.99,228.049C100.975,228.049 113.536,223.836 123.832,216.171Z" style="fill:rgb(30,30,30);"/>
                </g>
                <g transform="matrix(0.0444267,-6.93889e-18,-6.93889e-18,0.0733461,67.7467,937.558)">
                    <path d="M136.37,187.53C138.629,189.781 139.899,192.841 139.899,196.03C139.899,199.219 138.629,202.279 136.37,204.53L130.43,210.47C119.179,221.721 103.902,228.049 87.99,228.049C55.064,228.049 27.971,200.956 27.971,168.03C27.971,152.118 34.299,136.841 45.55,125.59L69.67,101.48C91.994,79.101 128.37,78.005 152,99C154.569,101.284 156.042,104.562 156.042,108C156.042,114.606 150.606,120.042 144,120.042C141.052,120.042 138.204,118.959 136,117C121.83,104.416 100.026,105.065 86.63,118.47L62.53,142.55C55.78,149.3 51.984,158.464 51.984,168.01C51.984,187.762 68.238,204.016 87.99,204.016C97.536,204.016 106.7,200.22 113.45,193.47L119.39,187.53C121.64,185.278 124.696,184.011 127.88,184.011C131.064,184.011 134.12,185.278 136.37,187.53ZM210.45,45.53C187.151,22.286 148.869,22.286 125.57,45.53L119.63,51.47C117.377,53.723 116.109,56.783 116.109,59.97C116.109,66.564 121.536,71.991 128.13,71.991C131.317,71.991 134.377,70.723 136.63,68.47L142.57,62.53C149.32,55.78 158.484,51.984 168.03,51.984C187.782,51.984 204.036,68.238 204.036,87.99C204.036,97.536 200.24,106.7 193.49,113.45L169.38,137.57C155.972,150.97 134.161,151.601 120,139C117.796,137.041 114.948,135.958 112,135.958C105.394,135.958 99.958,141.394 99.958,148C99.958,151.438 101.431,154.716 104,157C127.613,177.99 163.966,176.916 186.3,154.57L210.42,130.46C233.692,107.166 233.705,68.86 210.45,45.55L210.45,45.53Z" style="fill:rgb(57,57,57);fill-rule:nonzero;"/>
                    <path d="M119.248,51.871L110.293,30.217C141.979,-1.394 194.041,-1.394 225.727,30.217C225.742,30.233 225.752,30.253 225.768,30.268C257.394,61.969 257.365,114.074 225.717,145.753L201.599,169.86C190.198,181.268 176.111,188.601 161.262,191.802C161.439,193.197 161.529,194.609 161.529,196.03C161.529,204.966 157.968,213.543 151.638,219.851L136.37,226.16L151.498,219.991L145.86,225.629C145.815,225.674 145.77,225.72 145.724,225.764C130.418,241.071 109.636,249.679 87.99,249.679C43.199,249.679 6.341,212.821 6.341,168.03C6.341,146.384 14.951,125.6 30.257,110.294L54.357,86.204C65.767,74.766 79.875,67.415 94.749,64.209C94.571,62.819 94.479,61.404 94.479,59.97C94.479,51.049 98.027,42.484 104.335,36.175C98.149,42.362 96.299,51.665 99.647,59.747C100.13,60.913 100.707,62.02 101.367,63.061C105.971,62.455 110.619,62.237 115.257,62.409L104.471,36.04L110.109,30.402L119.174,51.952C117.206,54.15 116.109,57.005 116.109,59.97C116.109,60.448 116.138,60.92 116.193,61.385C116.073,61.732 115.962,62.081 115.86,62.433C116.03,62.441 116.201,62.449 116.372,62.457C117.53,67.876 122.387,71.991 128.13,71.991C131.317,71.991 134.377,70.723 136.63,68.47L142.57,62.53C149.32,55.78 158.484,51.984 168.03,51.984C187.782,51.984 204.036,68.238 204.036,87.99C204.036,97.536 200.24,106.7 193.49,113.45L169.38,137.57C155.972,150.97 134.161,151.601 120,139C117.796,137.041 114.948,135.958 112,135.958C105.394,135.958 99.958,141.394 99.958,148C99.958,151.438 101.431,154.716 104,157C127.613,177.99 163.966,176.916 186.3,154.57L210.42,130.46C233.692,107.166 233.705,68.85 210.45,45.54C187.151,22.296 148.869,22.286 125.57,45.53L119.63,51.47C119.499,51.601 119.372,51.734 119.248,51.871ZM115.414,72.686C116.785,72.958 118.196,73.1 119.63,73.1L115.625,63.309C114.877,66.354 114.792,69.556 115.414,72.686ZM123.832,216.171L130.43,232.1L123.895,216.124C126.194,214.409 128.379,212.521 130.43,210.47L136.37,204.53C138.629,202.279 139.899,199.219 139.899,196.03C139.899,192.841 138.629,189.781 136.37,187.53C134.12,185.278 131.064,184.011 127.88,184.011C124.696,184.011 121.64,185.278 119.39,187.53L113.45,193.47C106.7,200.22 97.536,204.016 87.99,204.016C68.238,204.016 51.984,187.762 51.984,168.01C51.984,158.464 55.78,149.3 62.53,142.55L86.63,118.47C100.026,105.065 121.83,104.416 136,117C138.204,118.959 141.052,120.042 144,120.042C150.606,120.042 156.042,114.606 156.042,108C156.042,104.562 154.569,101.284 152,99C128.37,78.005 91.994,79.101 69.67,101.48L45.55,125.59C34.299,136.841 27.971,152.118 27.971,168.03C27.971,200.956 55.064,228.049 87.99,228.049C100.975,228.049 113.536,223.836 123.832,216.171ZM176.635,99.716L178.194,98.157C180.889,95.462 182.406,91.801 182.406,87.99C182.406,80.103 175.917,73.614 168.03,73.614C164.671,73.614 161.43,74.791 158.863,76.916C161.452,78.719 163.959,80.691 166.368,82.832C171.446,87.346 174.992,93.249 176.635,99.716ZM97.146,179.093C94.553,177.286 92.043,175.311 89.63,173.166C84.557,168.657 81.014,162.761 79.369,156.301L77.824,157.845C75.129,160.54 73.614,164.199 73.614,168.01C73.614,175.897 80.103,182.386 87.99,182.386C91.345,182.386 94.581,181.212 97.146,179.093Z" style="fill:rgb(30,30,30);"/>
                </g>
            </g>
        </g>
    </g>
</svg>
