<?xml version="1.0" encoding="UTF-8" standalone="no"?>
<!DOCTYPE svg PUBLIC "-//W3C//DTD SVG 1.1//EN" "http://www.w3.org/Graphics/SVG/1.1/DTD/svg11.dtd">
<svg width="100%" height="100%" viewBox="0 0 66 22" version="1.1" xmlns="http://www.w3.org/2000/svg" xmlns:xlink="http://www.w3.org/1999/xlink" xml:space="preserve" xmlns:serif="http://www.serif.com/" style="fill-rule:evenodd;clip-rule:evenodd;stroke-linejoin:round;stroke-miterlimit:2;">
    <g transform="matrix(1,0,0,1,-18,-761)">
        <g transform="matrix(1.13981,0,0,0.894792,0,0)">
            <g id="transport_record_loop" transform="matrix(0.913,0,0,0.704449,0,-82.7008)">
                <g transform="matrix(0.960938,0,0,1.58646,-2161.15,1002.64)">
                    <circle cx="2278" cy="214" r="5" style="fill:rgb(81,81,81);"/>
                </g>
                <g transform="matrix(0.960938,0,0,1.58646,-2140.01,1002.64)">
                    <circle cx="2278" cy="214" r="5" style="fill:rgb(116,115,105);"/>
                </g>
                <g transform="matrix(0.960938,0,0,1.58646,-2118.87,1002.64)">
                    <circle cx="2278" cy="214" r="5" style="fill:rgb(57,57,57);"/>
                </g>
                <g transform="matrix(0.960938,0,0,1.41018,0,148.774)">
                    <path d="M36,845.202C36,844.538 35.521,844 34.932,844L27.068,844C26.479,844 26,844.538 26,845.202L26,851.798C26,852.462 26.479,853 27.068,853L34.932,853C35.521,853 36,852.462 36,851.798L36,845.202Z" style="fill:rgb(45,45,45);"/>
                </g>
                <g transform="matrix(0.960938,0,0,1.41018,21.1406,148.774)">
                    <path d="M36,845.202C36,844.538 35.521,844 34.932,844L27.068,844C26.479,844 26,844.538 26,845.202L26,851.798C26,852.462 26.479,853 27.068,853L34.932,853C35.521,853 36,852.462 36,851.798L36,845.202Z" style="fill:rgb(45,45,45);"/>
                </g>
                <g transform="matrix(0.960938,0,0,1.41018,42.2813,148.774)">
                    <path d="M36,845.202C36,844.538 35.521,844 34.932,844L27.068,844C26.479,844 26,844.538 26,845.202L26,851.798C26,852.462 26.479,853 27.068,853L34.932,853C35.521,853 36,852.462 36,851.798L36,845.202Z" style="fill:rgb(45,45,45);"/>
                </g>
                <g transform="matrix(2.69448,0,0,6.74131,-11052.2,-14579.6)">
                    <g transform="matrix(-2.85306,0,0,0.0522964,14259.8,2225.98)">
                        <rect x="3556" y="2611" width="1" height="9" style="fill:rgb(81,81,81);fill-opacity:0.43;"/>
                    </g>
                    <g transform="matrix(-2.85306,0,0,0.0522964,14259.8,2225.51)">
                        <rect x="3556" y="2611" width="1" height="9" style="fill:rgb(81,81,81);"/>
                    </g>
                    <g transform="matrix(1.40903e-17,0.1765,-0.267474,1.21885e-17,4810.86,1733.42)">
                        <path d="M3559,2611L3563,2615L3559,2615L3559,2611Z" style="fill:rgb(81,81,81);"/>
                    </g>
                    <g transform="matrix(-0.267474,-2.4377e-17,2.81807e-17,-0.1765,5066.21,2823.14)">
                        <path d="M3559,2611L3563,2615L3559,2615L3559,2611Z" style="fill:rgb(81,81,81);"/>
                    </g>
                </g>
                <g transform="matrix(2.69448,0,0,6.74131,-11031,-14579.6)">
                    <g transform="matrix(-2.85306,0,0,0.0522964,14259.8,2225.98)">
                        <rect x="3556" y="2611" width="1" height="9" style="fill:rgb(116,115,105);fill-opacity:0.43;"/>
                    </g>
                    <g transform="matrix(-2.85306,0,0,0.0522964,14259.8,2225.51)">
                        <rect x="3556" y="2611" width="1" height="9" style="fill:rgb(116,115,105);"/>
                    </g>
                    <g transform="matrix(1.40903e-17,0.1765,-0.267474,1.21885e-17,4810.86,1733.42)">
                        <path d="M3559,2611L3563,2615L3559,2615L3559,2611Z" style="fill:rgb(116,115,105);"/>
                    </g>
                    <g transform="matrix(-0.267474,-2.4377e-17,2.81807e-17,-0.1765,5066.21,2823.14)">
                        <path d="M3559,2611L3563,2615L3559,2615L3559,2611Z" style="fill:rgb(116,115,105);"/>
                    </g>
                </g>
                <g transform="matrix(2.69448,0,0,6.74131,-11009.9,-14579.6)">
                    <g transform="matrix(-2.85306,0,0,0.0522964,14259.8,2225.98)">
                        <rect x="3556" y="2611" width="1" height="9" style="fill:rgb(57,57,57);fill-opacity:0.43;"/>
                    </g>
                    <g transform="matrix(-2.85306,0,0,0.0522964,14259.8,2225.51)">
                        <rect x="3556" y="2611" width="1" height="9" style="fill:rgb(57,57,57);"/>
                    </g>
                    <g transform="matrix(1.40903e-17,0.1765,-0.267474,1.21885e-17,4810.86,1733.42)">
                        <path d="M3559,2611L3563,2615L3559,2615L3559,2611Z" style="fill:rgb(57,57,57);"/>
                    </g>
                    <g transform="matrix(-0.267474,-2.4377e-17,2.81807e-17,-0.1765,5066.21,2823.14)">
                        <path d="M3559,2611L3563,2615L3559,2615L3559,2611Z" style="fill:rgb(57,57,57);"/>
                    </g>
                </g>
            </g>
        </g>
    </g>
</svg>
